<svg xmlns="http://www.w3.org/2000/svg" width="37" height="35" fill="none" viewBox="0 0 37 35"><g clip-path="url(#a)"><path fill="#00f" d="M27.615 5.182a.84.84 0 0 0 0-1.232L23.71.255a.96.96 0 0 0-1.302 0l-5.86 5.543L18.5 7.646a.84.84 0 0 1-.006 1.232.96.96 0 0 1-1.296 0L15.245 7.03.27 21.196a.84.84 0 0 0 0 1.231l3.906 3.695c.36.34.942.34 1.301.001h.001c1.079-1.021 2.828-1.021 3.907 0a2.514 2.514 0 0 1 0 3.695c-.36.34-.36.89-.001 1.23v.002l3.907 3.695a.96.96 0 0 0 1.303 0l14.974-14.166-1.953-1.847a.84.84 0 0 1-.006-1.232.96.96 0 0 1 1.302-.006l.006.006 1.954 1.847 5.86-5.542a.84.84 0 0 0 0-1.232l-3.907-3.696a.957.957 0 0 0-1.301 0h-.001c-1.08 1.021-2.828 1.021-3.907 0a2.514 2.514 0 0 1 0-3.695M18.5 23.66l-2.604 2.464a.96.96 0 0 1-1.303.005.84.84 0 0 1-.005-1.232l.006-.005 2.604-2.464a.96.96 0 0 1 1.302.005.84.84 0 0 1 0 1.227m1.302-6.159-6.51 6.159a.96.96 0 0 1-1.303-.005.84.84 0 0 1 0-1.227l6.511-6.159a.96.96 0 0 1 1.302.006.84.84 0 0 1 0 1.226m-2.604-2.464-6.511 6.16a.96.96 0 0 1-1.302-.006.837.837 0 0 1 0-1.226l6.51-6.16a.96.96 0 0 1 1.303-.005c.361.339.364.89.005 1.232zm9.115 0c.361.339.364.89.006 1.232a.96.96 0 0 1-1.303.006l-.005-.006-1.302-1.232a.84.84 0 0 1 .006-1.231.96.96 0 0 1 1.296 0zm-3.906-3.695a.84.84 0 0 1-.006 1.232.96.96 0 0 1-1.296 0l-1.303-1.232a.84.84 0 0 1-.006-1.232.96.96 0 0 1 1.309 0z"/></g><defs><clipPath id="a"><path fill="#fff" d="M0 0h37v35H0z"/></clipPath></defs></svg>