<svg xmlns="http://www.w3.org/2000/svg" width="40" height="40" fill="none" viewBox="0 0 40 40"><g fill="#00f" clip-path="url(#a)"><path d="M18.75 14.375a6.875 6.875 0 1 0 0-13.75 6.875 6.875 0 0 0 0 13.75m0-12.5a5.625 5.625 0 1 1 0 11.25 5.625 5.625 0 0 1 0-11.25"/><path d="M18.812 9.55a.98.98 0 0 1-.725-.244.63.63 0 0 1-.225-.468h-1.25a1.88 1.88 0 0 0 .625 1.38c.254.23.558.398.888.488v1.169h1.25V10.7a2.05 2.05 0 0 0 1.381-1.294 1.875 1.875 0 0 0-.812-2.131 4.4 4.4 0 0 0-1.194-.463c-.831-.237-.913-.33-.913-.625a.85.85 0 0 1 .913-.743.82.82 0 0 1 .887.718h1.25a1.98 1.98 0 0 0-1.512-1.875V3.125h-1.25v1.169a2.025 2.025 0 0 0-1.513 1.875c0 1.331 1.094 1.644 1.82 1.875.29.064.57.169.83.312a.625.625 0 0 1 .3.707.88.88 0 0 1-.75.487m-8.187 7.95v-1.875H12.5v-1.25h-1.875V12.5h-1.25v1.875H7.5v1.25h1.875V17.5zm28.75-15H37.5V.625h-1.25V2.5h-1.875v1.25h1.875v1.875h1.25V3.75h1.875zm-35 21.875v-1.25h1.25v-1.25h-1.25v-1.25h-1.25v1.25h-1.25v1.25h1.25v1.25zm-2.5-17.5h1.25v-1.25h1.25v-1.25h-1.25v-1.25h-1.25v1.25H.625v1.25h1.25zM5 39.375c2.175 0 4.375-.75 4.375-2.187v-7.5c0-1.438-2.2-2.188-4.375-2.188s-4.375.75-4.375 2.188v7.5c0 1.437 2.2 2.187 4.375 2.187M5 28.75c2.05 0 3.125.694 3.125.938 0 .243-1.075.937-3.125.937s-3.125-.694-3.125-.937S2.95 28.75 5 28.75m-3.125 2.5A7.4 7.4 0 0 0 5 31.875a7.4 7.4 0 0 0 3.125-.625v.938c0 .243-1.075.937-3.125.937s-3.125-.694-3.125-.937zm0 2.5A7.4 7.4 0 0 0 5 34.375a7.4 7.4 0 0 0 3.125-.625v.938c0 .243-1.075.937-3.125.937s-3.125-.694-3.125-.937zm0 2.5A7.4 7.4 0 0 0 5 36.875a7.4 7.4 0 0 0 3.125-.625v.938c0 .243-1.075.937-3.125.937s-3.125-.694-3.125-.937zM15 39.375c2.175 0 4.375-.75 4.375-2.187v-12.5c0-1.438-2.2-2.188-4.375-2.188s-4.375.75-4.375 2.188v12.5c0 1.437 2.2 2.187 4.375 2.187m0-15.625c2.05 0 3.125.694 3.125.938 0 .243-1.075.937-3.125.937s-3.125-.694-3.125-.937S12.95 23.75 15 23.75m-3.125 2.5a7.4 7.4 0 0 0 3.125.625 7.4 7.4 0 0 0 3.125-.625v.906c0 .244-1.081.963-3.125.963s-3.125-.719-3.125-.963zm0 2.5c.983.434 2.05.647 3.125.625a7.4 7.4 0 0 0 3.125-.625v1.006c-.187.331-1.294.869-3.125.869-2.062 0-3.125-.694-3.125-.937zm0 2.5a7.5 7.5 0 0 0 3.125.625 7.7 7.7 0 0 0 3.125-.625v.9c0 .244-1.075.944-3.125.944s-3.125-.7-3.125-.944zm0 2.5a7.4 7.4 0 0 0 3.125.625 7.4 7.4 0 0 0 3.125-.625v.938c0 .243-1.075.937-3.125.937s-3.125-.694-3.125-.937zm0 2.5a7.4 7.4 0 0 0 3.125.625 7.4 7.4 0 0 0 3.125-.625v.938c0 .243-1.075.937-3.125.937s-3.125-.694-3.125-.937zm17.5.938v-17.5c0-1.438-2.2-2.188-4.375-2.188s-4.375.75-4.375 2.188v17.5c0 1.437 2.2 2.187 4.375 2.187s4.375-.75 4.375-2.187m-1.25 0c0 .243-1.075.937-3.125.937s-3.125-.694-3.125-.937v-.938a7.4 7.4 0 0 0 3.125.625 7.4 7.4 0 0 0 3.125-.625zm0-2.5c0 .243-1.075.937-3.125.937s-3.125-.694-3.125-.937v-.938a7.4 7.4 0 0 0 3.125.625 7.4 7.4 0 0 0 3.125-.625zm0-2.5c0 .243-1.075.943-3.125.943s-3.125-.7-3.125-.944v-.937a7.5 7.5 0 0 0 3.125.625 7.7 7.7 0 0 0 3.125-.594zm0-2.42c-.187.326-1.319.87-3.125.87-2.062 0-3.125-.694-3.125-.938v-.95a7.5 7.5 0 0 0 3.125.625 7.7 7.7 0 0 0 3.125-.625zm0-2.5c-.187.326-1.319.87-3.125.87-2.062 0-3.125-.694-3.125-.938v-.95a7.5 7.5 0 0 0 3.125.625 7.7 7.7 0 0 0 3.125-.625zm0-2.5c-.187.326-1.319.87-3.125.87-2.062 0-3.125-.694-3.125-.938v-.95c.983.434 2.05.647 3.125.625a7.5 7.5 0 0 0 3.125-.625zm0-2.568c0 .244-1.081.938-3.125.938s-3.125-.663-3.125-.938v-.95a7.4 7.4 0 0 0 3.125.625 7.4 7.4 0 0 0 3.125-.625zM25 20.625c-2.05 0-3.125-.694-3.125-.937S22.95 18.75 25 18.75s3.125.694 3.125.938c0 .243-1.075.937-3.125.937m5.625-8.437v25c0 1.437 2.2 2.187 4.375 2.187s4.375-.75 4.375-2.187v-25C39.375 10.75 37.175 10 35 10s-4.375.75-4.375 2.188m7.5 25c0 .243-1.075.937-3.125.937s-3.125-.694-3.125-.937v-.938a8.2 8.2 0 0 0 6.25 0zm0-2.5c0 .243-1.075.937-3.125.937s-3.125-.694-3.125-.937v-.938a8.2 8.2 0 0 0 6.25 0zm0-2.5c0 .243-1.075.943-3.125.943s-3.125-.7-3.125-.944v-.937a7.5 7.5 0 0 0 3.125.625 7.7 7.7 0 0 0 3.125-.625zm0-2.426c-.187.325-1.319.87-3.125.87-2.062 0-3.125-.695-3.125-.938v-.944a7.5 7.5 0 0 0 3.125.625 7.7 7.7 0 0 0 3.125-.625zm0-2.5c-.187.325-1.319.87-3.125.87-2.062 0-3.125-.695-3.125-.938v-.944a7.5 7.5 0 0 0 3.125.625 7.7 7.7 0 0 0 3.125-.625zm0-2.5c-.187.325-1.319.87-3.125.87-2.062 0-3.125-.695-3.125-.938v-.944c.983.434 2.05.647 3.125.625a7.5 7.5 0 0 0 3.125-.625zm0-2.568c0 .244-1.081.937-3.125.937s-3.125-.662-3.125-.937v-.944a7.5 7.5 0 0 0 3.125.625 7.7 7.7 0 0 0 3.125-.625zm0-2.431c-.187.324-1.319.868-3.125.868-2.062 0-3.125-.694-3.125-.937v-.944a7.5 7.5 0 0 0 3.125.625 7.7 7.7 0 0 0 3.125-.594zm0-2.5c-.187.324-1.319.868-3.125.868-2.062 0-3.125-.694-3.125-.937v-.944c.983.434 2.05.647 3.125.625a7.5 7.5 0 0 0 3.125-.625zm0-2.57c0 .245-1.081.938-3.125.938s-3.125-.662-3.125-.937v-.944a8.2 8.2 0 0 0 6.25 0zm0-2.5c0 .245-1.075.938-3.125.938s-3.125-.694-3.125-.937S32.95 11.25 35 11.25s3.125.694 3.125.938z"/></g><defs><clipPath id="a"><path fill="#fff" d="M0 0h40v40H0z"/></clipPath></defs></svg>