<svg xmlns="http://www.w3.org/2000/svg" width="34" height="34" fill="none" viewBox="0 0 34 34"><g clip-path="url(#a)"><path fill="#00f" d="M14.362.401c-.29 1.138-.993 1.977-1.804 2.29a.531.531 0 0 0 .002.992c.811.314 1.512 1.155 1.8 2.294.135.537.895.537 1.03 0 .29-1.139.99-1.978 1.8-2.29a.532.532 0 0 0 .005-.992C16.385 2.38 15.68 1.54 15.39.401a.532.532 0 0 0-1.029 0m16.465 2.255c-.29 1.138-.992 1.977-1.803 2.29a.532.532 0 0 0 .002.992c.81.313 1.511 1.155 1.799 2.294.136.537.895.537 1.031 0 .289-1.14.989-1.979 1.8-2.29a.531.531 0 0 0 .005-.992c-.81-.315-1.515-1.156-1.805-2.294a.52.52 0 0 0-.514-.402.53.53 0 0 0-.515.402M2.143 8.896c-.29 1.138-.993 1.977-1.804 2.29a.531.531 0 0 0 .002.992c.811.313 1.512 1.155 1.8 2.294.135.537.895.537 1.031 0 .288-1.14.989-1.979 1.8-2.29a.531.531 0 0 0 .004-.992c-.81-.315-1.515-1.156-1.804-2.294a.52.52 0 0 0-.515-.402.53.53 0 0 0-.514.402m13.529 1.197c-1.03 0-1.86.83-1.86 1.86s.83 1.859 1.86 1.859h15.406c1.03 0 1.86-.83 1.86-1.86s-.83-1.859-1.86-1.859zm-5.577 3.718C4.527 13.81 0 18.337 0 23.905 0 29.474 4.527 34 10.095 34s10.094-4.526 10.094-10.095c0-5.568-4.526-10.094-10.094-10.094m6.518 1.063a11.25 11.25 0 0 1 3.287 3.719h7.99c1.03 0 1.86-.83 1.86-1.86s-.83-1.859-1.86-1.859zm-6.521 1.33a7.706 7.706 0 0 1 7.706 7.701c0 4.248-3.456 7.702-7.706 7.702S2.39 28.153 2.39 23.905a7.7 7.7 0 0 1 7.7-7.702m0 1.062a6.637 6.637 0 0 0-6.639 6.64 6.642 6.642 0 0 0 13.282 0 6.64 6.64 0 0 0-6.643-6.64m.006 2.124c.26.001.529.18.529.53v.52c.93.236 1.49.892 1.753 1.724.182.696-.788.975-1.015.319-.213-.672-.636-1.015-1.287-1.04-.724.007-1.282.548-1.282 1.24 0 .326.117.428.275.505.212.104.624.168 1.082.216s.964.082 1.439.314.87.686.87 1.458c0 1.102-.792 2.02-1.835 2.253v.462c0 .692-1.063.719-1.063 0v-.467c-.695-.179-1.406-.667-1.748-1.726-.193-.68.782-.99 1.015-.321.202.666.679 1.039 1.287 1.05.723-.006 1.282-.572 1.282-1.25 0-.363-.144-.433-.275-.506-.212-.103-.624-.165-1.082-.213s-.964-.08-1.44-.313c-.475-.232-.87-.68-.87-1.463 0-1.112.79-2.02 1.831-2.254v-.508c0-.357.273-.532.534-.53m10.308.265c.48 1.156.77 2.408.832 3.72H32.14c1.03 0 1.859-.83 1.859-1.86s-.83-1.86-1.86-1.86zm.832 4.782a11 11 0 0 1-.832 3.718H32.14c1.03 0 1.859-.829 1.859-1.859s-.83-1.86-1.86-1.86zm-1.337 4.78a11.3 11.3 0 0 1-3.273 3.71c.037.001.07.01.107.01h15.406c1.03 0 1.86-.83 1.86-1.86s-.83-1.86-1.86-1.86z"/></g><defs><clipPath id="a"><path fill="#fff" d="M0 0h34v34H0z"/></clipPath></defs></svg>