<svg xmlns="http://www.w3.org/2000/svg" width="209" height="69" fill="none" viewBox="0 0 209 69"><path fill="#fff" d="M32.85 0H16.425v16.3H32.85zm16.428 0H32.852v16.3h16.426z"/><path fill="#fff" d="M16.426 16.298H0v16.3h16.426z"/><path fill="#fff" d="M16.426 0H0v16.3h16.426zM32.85 32.602H16.425v16.3H32.85z"/><path fill="#fff" d="M16.426 48.898H0v16.3h16.426zM63.833 7.18h-1.138v50.28h1.138zm93.341 61.276q-1.71 0-2.698-.646a3.9 3.9 0 0 1-1.368-1.71 6.6 6.6 0 0 1-.38-2.242V51.28h-2.508v-3.268h2.584l.722-5.586h3.154v5.586h3.61v3.268h-3.61v12.122q0 .874.38 1.33.381.456 1.254.456h1.976v2.66q-.38.152-.95.266a8 8 0 0 1-1.102.228q-.57.114-1.064.114m-17.533 0q-2.09 0-3.686-.456t-2.66-1.254a5.55 5.55 0 0 1-1.634-1.9q-.532-1.14-.532-2.508v-.342q.038-.152.038-.266h3.914v.418q0 1.177.646 1.9.645.684 1.71.988 1.101.266 2.394.266a7.7 7.7 0 0 0 2.09-.266q.987-.304 1.596-.874.645-.57.646-1.444 0-1.14-.798-1.748t-2.09-.95l-2.698-.798a93 93 0 0 1-2.508-.722 10 10 0 0 1-2.204-1.064 5.2 5.2 0 0 1-1.596-1.634q-.608-.988-.608-2.47 0-1.406.608-2.47a5.34 5.34 0 0 1 1.672-1.786q1.102-.723 2.584-1.102 1.52-.38 3.306-.38 1.862 0 3.306.418 1.443.38 2.432 1.102 1.026.722 1.558 1.748.532.987.532 2.128 0 .227-.038.494v.304h-3.876v-.342q0-.76-.418-1.368t-1.33-.988q-.874-.38-2.356-.38-.989 0-1.748.19-.76.151-1.254.456a2.3 2.3 0 0 0-.76.722 1.95 1.95 0 0 0-.228.95q0 .873.608 1.368.645.456 1.672.798 1.025.303 2.204.684 1.368.38 2.774.798 1.405.38 2.584.988 1.215.607 1.938 1.672.76 1.065.76 2.85 0 1.635-.646 2.85a5.26 5.26 0 0 1-1.824 1.976q-1.14.722-2.698 1.064-1.558.38-3.382.38m-20.129 0q-3.078 0-5.168-1.102-2.052-1.14-3.116-3.458t-1.064-5.89q0-3.61 1.064-5.89 1.063-2.319 3.154-3.42 2.09-1.14 5.206-1.14 2.85 0 4.75 1.102 1.938 1.063 2.926 3.268.987 2.203.988 5.548v1.52H114.23q.076 2.127.646 3.572.57 1.406 1.71 2.09 1.177.646 2.964.646 1.101 0 1.976-.266a4.5 4.5 0 0 0 1.482-.836q.608-.57.95-1.33.342-.798.342-1.786h3.876q0 1.786-.608 3.154a6.16 6.16 0 0 1-1.786 2.318q-1.14.911-2.736 1.406t-3.534.494m-5.206-12.35h9.804q0-1.483-.342-2.47-.304-1.026-.912-1.672a3.35 3.35 0 0 0-1.444-.912q-.837-.304-1.9-.304-1.596 0-2.736.57-1.103.57-1.71 1.786-.609 1.178-.76 3.002M85.078 68V41.932H98.91q2.166 0 3.8.798 1.634.76 2.546 2.204.95 1.444.95 3.382 0 1.482-.57 2.698a5.6 5.6 0 0 1-1.52 2.052 6.4 6.4 0 0 1-2.166 1.254v.152a6.3 6.3 0 0 1 2.508 1.14q1.14.798 1.786 2.128.684 1.292.684 3.116 0 2.47-1.102 4.066a6.33 6.33 0 0 1-2.85 2.356Q101.19 68 98.91 68zm4.256-3.648h9.234q1.748 0 2.85-.912 1.14-.95 1.14-3.04 0-1.255-.494-2.128a2.95 2.95 0 0 0-1.406-1.368q-.95-.495-2.394-.494h-8.93zm0-11.514h8.588q1.215 0 2.09-.456a3.1 3.1 0 0 0 1.33-1.292 3.6 3.6 0 0 0 .494-1.862q0-1.863-1.026-2.736-.989-.912-2.622-.912h-8.854zm110.313-23.382q-2.09 0-3.686-.456t-2.66-1.254a5.55 5.55 0 0 1-1.634-1.9q-.532-1.14-.532-2.508v-.342q.038-.153.038-.266h3.914v.418q0 1.177.646 1.9.645.684 1.71.988a10.2 10.2 0 0 0 2.394.266q1.14 0 2.09-.266.987-.304 1.596-.874.645-.57.646-1.444 0-1.14-.798-1.748t-2.09-.95a912 912 0 0 1-2.698-.798 93 93 0 0 1-2.508-.722 10 10 0 0 1-2.204-1.064 5.2 5.2 0 0 1-1.596-1.634q-.609-.988-.608-2.47 0-1.406.608-2.47a5.34 5.34 0 0 1 1.672-1.786q1.101-.723 2.584-1.102 1.52-.38 3.306-.38 1.862 0 3.306.418 1.443.38 2.432 1.102 1.026.722 1.558 1.748.532.988.532 2.128 0 .227-.038.494v.304h-3.876v-.342q0-.76-.418-1.368t-1.33-.988q-.874-.38-2.356-.38-.989 0-1.748.19-.76.152-1.254.456a2.3 2.3 0 0 0-.76.722 1.95 1.95 0 0 0-.228.95q0 .873.608 1.368.646.456 1.672.798 1.026.303 2.204.684 1.368.38 2.774.798 1.405.38 2.584.988 1.215.607 1.938 1.672.76 1.065.76 2.85 0 1.635-.646 2.85a5.26 5.26 0 0 1-1.824 1.976q-1.14.722-2.698 1.064-1.558.38-3.382.38m-14.906-16.264v-1.748q.837-.152 1.368-.722.532-.609.76-1.482a7.5 7.5 0 0 0 .228-1.9h-2.014V2.932h4.256v3.99q0 2.166-.684 3.496-.684 1.292-1.748 1.938a6.9 6.9 0 0 1-2.166.836m-15.128 16.264q-2.431 0-4.218-1.102-1.785-1.101-2.774-3.42-.95-2.317-.95-6.004 0-3.61.988-5.89t2.736-3.382 4.028-1.102q1.33 0 2.47.304 1.14.305 2.014.95.912.647 1.52 1.634h.266V1.526h3.952V29h-3.23l-.38-2.736h-.266q-.987 1.596-2.622 2.394-1.596.798-3.534.798m1.102-3.42q1.749 0 2.812-.76 1.103-.798 1.634-2.28.532-1.52.532-3.686v-.532q0-1.824-.342-3.116t-.988-2.09a3.8 3.8 0 0 0-1.558-1.216q-.912-.38-2.052-.38-1.748 0-2.85.722-1.101.684-1.634 2.166-.494 1.482-.494 3.838v.684q0 2.356.532 3.838.532 1.444 1.596 2.128 1.102.684 2.812.684M153.681 29V1.526h3.952V29zm-13.137 0V9.012h3.268l.342 3.23h.228a9 9 0 0 1 .874-1.786 4.65 4.65 0 0 1 1.444-1.368q.912-.532 2.204-.532.608 0 1.064.114.494.114.76.19v3.724h-1.33q-1.216 0-2.166.38a4.1 4.1 0 0 0-1.558 1.14q-.607.721-.912 1.786-.266 1.064-.266 2.394V29zm-13.642.456q-3.117 0-5.282-1.102-2.129-1.14-3.23-3.458-1.064-2.319-1.064-5.89 0-3.61 1.064-5.89 1.101-2.319 3.23-3.42 2.165-1.14 5.282-1.14 3.192 0 5.32 1.14 2.127 1.101 3.192 3.42 1.102 2.28 1.102 5.89 0 3.571-1.102 5.89-1.065 2.318-3.192 3.458-2.128 1.101-5.32 1.102m0-3.268q1.9 0 3.116-.722 1.216-.76 1.786-2.28.608-1.52.608-3.838v-.684q0-2.319-.608-3.838-.57-1.52-1.786-2.242-1.217-.76-3.116-.76-1.863 0-3.078.76-1.216.721-1.824 2.242-.57 1.52-.57 3.838v.684q0 2.317.57 3.838.608 1.52 1.824 2.28 1.215.722 3.078.722M89.6 29 82.418 2.932h4.522l4.446 17.176q.114.417.266 1.14t.266 1.52q.152.76.266 1.406h.228q.114-.495.19-1.064t.19-1.14q.114-.57.19-1.064a8 8 0 0 0 .152-.798l4.104-17.176h5.472l4.142 17.176q.114.417.266 1.14t.266 1.52q.152.76.266 1.406h.228q.076-.456.19-1.026t.228-1.102q.114-.57.228-1.064.151-.495.228-.874l4.446-17.176h4.028L110.044 29h-4.978l-4.37-17.404q-.114-.57-.266-1.292l-.304-1.52q-.114-.798-.19-1.368h-.19q-.076.608-.19 1.406a29 29 0 0 1-.266 1.558q-.152.721-.266 1.216L94.73 29z"/></svg>