<svg xmlns="http://www.w3.org/2000/svg" width="422" height="147" fill="none" viewBox="0 0 422 147"><g fill="#000" clip-path="url(#a)"><path d="M74.283 0H37.142v36.751h37.141zm37.142 0H74.283v36.751h37.142zM37.142 36.746H0v36.752h37.142z"/><path d="M37.142 0H0v36.751h37.142zm37.141 73.506H37.142v36.751h37.141zm-37.141 36.746H0v36.751h37.142zm135.752-51.225V16.189h28.952v4.157h-24.362v16.306h23.392v4.222h-23.392v18.158h-4.59zm33.859-12.587V27.45h4.652V45.8c0 6.841 2.78 9.845 9.047 9.845 5.883 0 9.888-3.07 9.888-10.484V27.449h4.591v31.586h-4.201v-6.967h-.195c-1.292 3.644-4.913 7.607-11.565 7.607-8.334 0-12.211-5.689-12.211-13.235zm37.606 3.652V31.42h-5.365v-3.963h5.426l1.098-8.06h3.487v8.06h10.084v3.963h-10.084v18.93c0 3.71 1.744 4.542 5.883 4.542h4.201v3.71c-1.098.193-3.103.512-5.427.512-5.882 0-9.303-2.304-9.303-9.018zm19.183-3.652V27.45h4.652V45.8c0 6.841 2.78 9.845 9.047 9.845 5.883 0 9.888-3.07 9.888-10.484V27.449h4.591v31.586h-4.201v-6.967h-.195c-1.292 3.644-4.913 7.607-11.565 7.607-8.334 0-12.211-5.689-12.211-13.235zm35.494 12.579V27.047h4.201v5.308h.323c1.036-2.944 4.133-5.562 8.852-5.562 6.59 0 9.114 4.669 9.114 10.104v1.792h-4.652v-1.086c0-4.923-1.548-6.841-6.139-6.841-4.975 0-7.042 2.238-7.042 7.353v20.91h-4.651zm25.9-15.793c0-9.592 5.749-16.433 14.863-16.433 7.688 0 14.022 4.603 14.022 13.94 0 1.473-.128 2.878-.323 3.771h-24.167c.195 6.968 2.975 11.064 10.596 11.064 6.462 0 9.047-2.878 9.047-6.714v-.386h4.591v.446c0 6.075-5.56 10.744-13.699 10.744-9.822 0-14.93-6.84-14.93-16.433m4.395-2.046h20.094c.257-7.48-3.487-10.424-9.76-10.424-7.108 0-9.95 4.03-10.34 10.424zm41.419 2.047c0-9.592 6.139-16.433 15.51-16.433s15.253 6.84 15.253 16.432-5.944 16.433-15.253 16.433-15.51-6.84-15.51-16.433m26.239 0c0-7.867-3.036-12.277-10.729-12.277-7.694 0-10.92 4.41-10.92 12.276 0 7.867 3.103 12.343 10.92 12.343 7.816 0 10.729-4.476 10.729-12.343m11.434 15.803V31.404h-4.719V27.44h4.719v-1.212c0-6.522 3.682-10.039 10.729-10.039h2.842v3.771h-3.683c-3.682 0-5.365 1.532-5.365 4.73v2.75h9.048v3.964h-8.981v27.623zm-236.51 55.926v-.959h4.591v.706c0 5.948 3.164 9.658 12.796 9.658 7.175 0 10.535-2.365 10.535-7.288 0-4.922-2.195-6.587-8.724-7.993l-7.499-1.665c-6.785-1.405-11.437-4.476-11.437-11.383 0-6.201 5.17-11.576 15.443-11.576 11.242 0 16.155 6.78 16.155 13.748v.833h-4.59v-.706c0-5.882-3.103-9.658-11.632-9.658-7.176 0-10.73 2.365-10.73 7.034s2.39 6.268 8.724 7.739l7.499 1.726c7.175 1.598 11.437 4.922 11.437 11.637 0 6.714-5.103 11.763-15.315 11.763-12.022 0-17.253-6.268-17.253-13.621zm38.582 24.113V96.35h4.201v6.141h.195c1.42-4.03 5.236-6.78 11.242-6.78 8.98 0 13.961 6.461 13.961 16.499s-4.719 16.372-13.443 16.372c-6.139 0-10.084-3.198-11.504-6.648v17.138h-4.652zm14.863-14.453c6.206 0 10.084-2.812 10.084-12.403s-3.811-12.536-10.084-12.536-10.211 3.264-10.211 9.785v5.435c0 6.461 3.877 9.719 10.211 9.719m19.383-12.47c0-9.591 6.139-16.432 15.51-16.432s15.253 6.841 15.253 16.432c0 9.592-5.944 16.433-15.253 16.433s-15.51-6.841-15.51-16.433m26.239 0c0-7.866-3.036-12.276-10.729-12.276-7.694 0-10.919 4.41-10.919 12.276 0 7.867 3.103 12.343 10.919 12.343s10.729-4.476 10.729-12.343m10.146 15.794V95.965h4.2v5.308h.324c1.036-2.944 4.133-5.562 8.852-5.562 6.59 0 9.114 4.669 9.114 10.104v1.792h-4.652v-1.086c0-4.923-1.549-6.841-6.139-6.841-4.975 0-7.042 2.238-7.042 7.353v20.909h-4.651zm30.374-8.945v-18.671h-5.365v-3.963h5.426l1.097-8.06h3.488v8.06h10.083v3.963h-10.083v18.93c0 3.71 1.743 4.542 5.883 4.542h4.2v3.71c-1.097.193-3.103.513-5.426.513-5.883 0-9.303-2.304-9.303-9.018zm17.965-1.419v-.127h4.523v.767c0 4.349 1.811 6.46 9.048 6.46 5.944 0 7.498-1.665 7.498-4.862s-2.005-4.349-6.852-5.242l-5.298-.893c-5.17-.959-8.919-3.324-8.919-8.886s4.652-9.08 12.211-9.08 12.669 3.71 12.669 10.805v.32h-4.457v-.513c0-3.77-1.487-6.648-8.334-6.648-5.816 0-7.627 1.853-7.627 5.05s1.616 4.283 6.396 5.181l5.426 1.026c5.56 1.025 9.242 3.451 9.242 8.698 0 5.629-4.652 8.953-12.022 8.953-8.724 0-13.504-3.644-13.504-10.998zM144.339 16.19h-2.573v113.368h2.573z"/></g><defs><clipPath id="a"><path fill="#fff" d="M0 0h422v147H0z"/></clipPath></defs></svg>