<svg xmlns="http://www.w3.org/2000/svg" width="159" height="49" fill="none" viewBox="0 0 159 49"><g clip-path="url(#a)"><mask id="b" width="159" height="49" x="0" y="0" maskUnits="userSpaceOnUse" style="mask-type:luminance"><path fill="#fff" d="M159 0H0v49h159z"/></mask><g fill="#00f" mask="url(#b)"><path d="M24.656 0H12.328v12.144h12.328zm12.328 0H24.656v12.144h12.328zM12.328 12.142H0v12.144h12.328z"/><path d="M12.328 0H0v12.144h12.328zm12.328 24.29H12.328v12.143h12.328zM12.328 36.43H0v12.145h12.328zM47.91 5.35h-.854v37.46h.854zm23.363 31.448q-5.028 0-7.663-2.623-2.604-2.624-2.604-8.082 0-3.558 1.211-5.94t3.574-3.558q2.362-1.206 5.754-1.206 2.12 0 3.847.452 1.725.452 2.968 1.387a5.9 5.9 0 0 1 1.938 2.292q.696 1.387.696 3.287h-2.937q0-1.328-.485-2.262a4 4 0 0 0-1.393-1.568q-.878-.603-2.06-.844a11.2 11.2 0 0 0-2.513-.272q-1.818 0-3.24.453-1.424.451-2.393 1.417-.97.964-1.484 2.472-.516 1.509-.515 3.589v.633q0 2.805.848 4.553.877 1.749 2.514 2.563 1.635.784 3.937.784 2.332 0 3.846-.633 1.515-.664 2.241-1.99.757-1.327.757-3.347v-.362h-7.329v-2.442h10.237v10.885h-2.18l-.304-2.623a6.9 6.9 0 0 1-1.938 1.718 8.4 8.4 0 0 1-2.483.965 13 13 0 0 1-2.847.302m18.229 0q-.879 0-1.757-.211a5.4 5.4 0 0 1-1.635-.694 3.5 3.5 0 0 1-1.212-1.327q-.454-.874-.454-2.17 0-1.629.787-2.684.788-1.056 2.181-1.629 1.424-.603 3.362-.814a34 34 0 0 1 4.21-.24v-1.81q0-.875-.303-1.508-.304-.633-1.09-.965-.758-.362-2.181-.362-1.364 0-2.18.362-.79.332-1.121.875a2.43 2.43 0 0 0-.303 1.206v.452H85.23q-.03-.15-.03-.301v-.362q0-1.448.788-2.413.818-.994 2.271-1.477 1.455-.513 3.331-.513 2 0 3.332.573 1.362.573 2.029 1.628.697 1.056.697 2.533v8.594q0 .574.272.814.273.212.666.212h1.181v1.748a5.7 5.7 0 0 1-.938.302q-.516.15-1.181.15-.788 0-1.303-.33a2 2 0 0 1-.787-.845 4.2 4.2 0 0 1-.364-1.267h-.212a5.5 5.5 0 0 1-1.393 1.327 6.8 6.8 0 0 1-1.847.844 8 8 0 0 1-2.241.302m.666-2.232q.97 0 1.817-.301a5 5 0 0 0 1.545-.844 4.3 4.3 0 0 0 1.06-1.357 3.8 3.8 0 0 0 .393-1.719v-1.327q-2.453 0-4.179.272-1.726.27-2.665.965-.909.693-.909 1.96 0 .813.364 1.326.363.513 1.03.784.665.241 1.544.241m11.839 1.87v-15.86h2.151l.242 2.381h.212q.606-.965 1.363-1.568a4.9 4.9 0 0 1 1.665-.874 6.2 6.2 0 0 1 1.969-.302q1.545 0 2.665.633 1.12.604 1.666 2.111h.182q.574-.965 1.332-1.538a5.3 5.3 0 0 1 1.696-.904 6.5 6.5 0 0 1 1.999-.302q1.453 0 2.544.513 1.09.483 1.696 1.628.636 1.117.636 3.016v11.066h-2.665V25.792q0-.965-.242-1.598-.213-.634-.636-.965a2.5 2.5 0 0 0-1-.513 4.4 4.4 0 0 0-1.181-.15q-1.06 0-1.969.542-.878.543-1.423 1.568-.545 1.026-.545 2.443v9.317h-2.665V25.792q0-.965-.243-1.598-.242-.634-.636-.965a2.24 2.24 0 0 0-.969-.513q-.545-.15-1.151-.15-1.09 0-2.029.542-.908.543-1.453 1.568-.546 1.026-.546 2.443v9.317zm32.416.362q-2.362 0-3.997-.875-1.605-.904-2.453-2.744-.819-1.84-.818-4.673 0-2.865.818-4.674.848-1.84 2.483-2.714 1.635-.905 4.089-.905 2.241 0 3.755.875 1.515.844 2.271 2.563.788 1.689.788 4.252v1.266H129.91q.06 1.9.545 3.136.515 1.206 1.514 1.78 1 .541 2.514.542 1.03 0 1.787-.241.787-.272 1.302-.754.546-.483.818-1.146.273-.664.303-1.447h2.604a6.4 6.4 0 0 1-.484 2.352 4.9 4.9 0 0 1-1.333 1.809q-.878.753-2.15 1.176t-2.908.422m-4.452-9.62h8.632q0-1.326-.303-2.23-.303-.905-.878-1.478a3.05 3.05 0 0 0-1.303-.814q-.726-.272-1.665-.272-1.393 0-2.363.513-.968.512-1.484 1.568-.514 1.055-.636 2.714m20.258 9.62q-1.636 0-2.877-.332-1.242-.331-2.06-.965a4.2 4.2 0 0 1-1.241-1.507q-.424-.875-.424-1.99v-.272q0-.15.03-.241h2.635a1 1 0 0 0-.031.21v.182q.03 1.055.546 1.658.545.603 1.484.845.938.24 2.089.24 1 0 1.848-.24.847-.272 1.332-.784.515-.543.515-1.357 0-.995-.666-1.508-.637-.543-1.696-.844-1.06-.301-2.211-.634a36 36 0 0 1-1.938-.603 8.8 8.8 0 0 1-1.757-.814 4 4 0 0 1-1.242-1.236q-.454-.784-.454-1.96 0-1.056.424-1.87a4.2 4.2 0 0 1 1.272-1.387q.817-.573 1.969-.844a10.5 10.5 0 0 1 2.604-.302q1.515 0 2.635.332 1.15.332 1.908.935.757.603 1.121 1.387.363.754.363 1.628v.362q0 .15-.03.241h-2.605v-.331q0-.603-.333-1.146-.303-.573-1.09-.905-.758-.362-2.12-.362-.879 0-1.514.151-.636.12-1.06.422-.424.271-.636.664a1.63 1.63 0 0 0-.212.844q0 .784.514 1.206.516.423 1.363.694.879.27 1.878.603 1.06.3 2.15.633a9.7 9.7 0 0 1 2.029.784 3.8 3.8 0 0 1 1.484 1.327q.576.814.576 2.17 0 1.268-.485 2.202a4.1 4.1 0 0 1-1.393 1.538q-.878.603-2.09.874-1.18.302-2.604.302"/></g></g><defs><clipPath id="a"><path fill="#fff" d="M0 0h159v49H0z"/></clipPath></defs></svg>