<svg xmlns="http://www.w3.org/2000/svg" width="35" height="35" fill="none" viewBox="0 0 35 35"><g fill="#00f" clip-path="url(#a)"><path d="M2.917 21.146h13.49V35H5.469a2.564 2.564 0 0 1-2.552-2.552zm29.166 0v11.302c0 1.4-1.152 2.552-2.552 2.552H18.594V21.145zM0 12.76v3.646c0 1.4 1.152 2.552 2.552 2.552h13.855v-8.75H2.551A2.564 2.564 0 0 0 0 12.76m32.448-2.552H18.594v8.75h13.854c1.4 0 2.552-1.152 2.552-2.552V12.76c0-1.4-1.152-2.552-2.552-2.552"/><path d="M17.5 11.731a1.097 1.097 0 0 1-1.082-1.254C16.958 6.83 19.805-.065 26.729-.065c3.953.001 5.354 2.136 5.354 3.965 0 3.25-4.525 7.831-14.583 7.831m9.23-9.607c-5.224 0-7.208 4.965-7.865 7.387 4.12-.192 6.72-1.235 8.216-2.123 2.075-1.232 2.814-2.61 2.814-3.49 0-1.31-1.634-1.774-3.166-1.774"/><path d="M17.501 11.73C7.443 11.73 2.918 7.15 2.918 3.9c0-1.83 1.403-3.964 5.355-3.964 6.923 0 9.77 6.896 10.31 10.542a1.097 1.097 0 0 1-1.082 1.252M8.273 2.124c-1.531 0-3.168.467-3.168 1.776 0 1.863 3.257 5.256 11.03 5.613-.656-2.423-2.64-7.389-7.862-7.389"/></g><defs><clipPath id="a"><path fill="#fff" d="M0 0h35v35H0z"/></clipPath></defs></svg>