<svg xmlns="http://www.w3.org/2000/svg" width="64" height="64" fill="none" viewBox="0 0 64 64"><circle cx="20" cy="24" r="6" fill="#9b7fff" opacity=".8"/><path stroke="#9b7fff" stroke-linecap="round" stroke-width="2" d="M20 30v8a4 4 0 0 0 4 4h4"/><path stroke="#9b7fff" stroke-linecap="round" stroke-width="2" d="m16 36 4 2 4-2"/><circle cx="32" cy="20" r="5" fill="#9b7fff"/><path stroke="#9b7fff" stroke-linecap="round" stroke-width="2" d="M32 25v7a3 3 0 0 0 3 3h2"/><path stroke="#9b7fff" stroke-linecap="round" stroke-width="2" d="m28 30 4 2 4-2"/><circle cx="44" cy="26" r="6" fill="#9b7fff" opacity=".8"/><path stroke="#9b7fff" stroke-linecap="round" stroke-width="2" d="M44 32v8a4 4 0 0 0 4 4h4"/><path stroke="#9b7fff" stroke-linecap="round" stroke-width="2" d="m40 38 4 2 4-2"/><path stroke="#9b7fff" stroke-linecap="round" stroke-width="1.5" d="M26 20h4m8 4h4" opacity=".6"/><path fill="#9b7fff" d="M12 48h4v8h-4z" opacity=".6"/><path fill="#9b7fff" d="M18 44h4v12h-4z"/><path fill="#9b7fff" d="M24 50h4v6h-4z" opacity=".6"/></svg>