<svg xmlns="http://www.w3.org/2000/svg" width="35" height="35" fill="none" viewBox="0 0 35 35"><g fill="#00f" clip-path="url(#a)"><path d="M25.703 12.373c-5.089 0-9.228 4.14-9.228 9.228 0 5.09 4.14 9.229 9.228 9.229 5.089 0 9.297-4.14 9.297-9.23s-4.208-9.228-9.297-9.228m1.052 14.17-.027.005v1.206a1.025 1.025 0 1 1-2.05 0V26.54c-.676-.228-1.323-.661-1.876-1.32a1.023 1.023 0 0 1 .126-1.445 1.023 1.023 0 0 1 1.444.127c.543.645 1.157.902 1.681.713a1.026 1.026 0 0 0-.35-1.99 3.08 3.08 0 0 1-3.076-3.075c0-1.239.737-2.351 1.877-2.834.057-.024.117-.023.174-.043v-1.225a1.025 1.025 0 1 1 2.05 0v1.227a3.96 3.96 0 0 1 1.511.912 1.025 1.025 0 1 1-1.428 1.472c-.498-.483-1.05-.65-1.507-.454a1.025 1.025 0 0 0 .399 1.97 3.08 3.08 0 0 1 3.076 3.076c0 1.289-.813 2.45-2.024 2.891m-25.73-3.915C.46 22.627 0 23.086 0 23.652v10.322C0 34.542.459 35 1.025 35h3.076V22.627z"/><path d="M24.319 6.4 17.141.248a1.02 1.02 0 0 0-1.333 0L8.63 6.4a1.024 1.024 0 0 0 .667 1.803h3.076V35h7.178c.566 0 1.025-.459 1.025-1.025v-2.34c-3.646-1.87-6.152-5.66-6.152-10.033s2.506-8.163 6.152-10.034V8.204h3.076A1.024 1.024 0 0 0 24.32 6.4"/><path d="M7.246 14.424c-.567 0-1.025.459-1.025 1.025V35h4.101V14.424z"/></g><defs><clipPath id="a"><path fill="#fff" d="M0 0h35v35H0z"/></clipPath></defs></svg>