<svg xmlns="http://www.w3.org/2000/svg" width="111" height="39" fill="none" viewBox="0 0 111 39"><g fill="#fff" clip-path="url(#a)"><path d="M19.539 0h-9.77v9.666h9.77zm9.77 0h-9.77v9.666h9.77z"/><path d="M9.77 9.664H0v9.666h9.77z"/><path d="M9.77 0H0v9.666h9.77zm9.769 19.332h-9.77v9.666h9.77z"/><path d="M9.77 28.996H0v9.666h9.77zm35.707-13.472V4.258h7.615V5.35h-6.408v4.288h6.153v1.11h-6.153v4.776zm8.906-3.311V7.22h1.223v4.826c0 1.8.732 2.59 2.38 2.59 1.547 0 2.601-.808 2.601-2.758V7.219h1.207v8.307H60.69v-1.833h-.052c-.34.959-1.292 2.001-3.042 2.001-2.192 0-3.212-1.496-3.212-3.48zm9.891.961v-4.91h-1.41V7.22h1.426l.29-2.12h.916v2.12h2.653v1.043h-2.653v4.978c0 .976.46 1.195 1.548 1.195h1.105v.975a8 8 0 0 1-1.427.135c-1.548 0-2.448-.606-2.448-2.372m5.046-.961V7.22h1.224v4.826c0 1.8.731 2.59 2.38 2.59 1.547 0 2.6-.808 2.6-2.758V7.219h1.208v8.307h-1.105v-1.833h-.051c-.34.959-1.293 2.001-3.042 2.001-2.192 0-3.212-1.496-3.212-3.48zm9.336 3.309V7.114h1.105V8.51h.085c.273-.774 1.087-1.463 2.328-1.463 1.734 0 2.398 1.228 2.398 2.657v.471h-1.224V9.89c0-1.295-.407-1.8-1.614-1.8-1.31 0-1.853.59-1.853 1.935v5.499h-1.223zm6.813-4.153c0-2.523 1.512-4.322 3.91-4.322 2.021 0 3.688 1.21 3.688 3.666a5 5 0 0 1-.085.992h-6.357c.051 1.832.782 2.91 2.787 2.91 1.7 0 2.38-.757 2.38-1.766v-.102h1.207v.118c0 1.597-1.462 2.825-3.603 2.825-2.584 0-3.927-1.799-3.927-4.321m1.156-.538h5.285c.068-1.968-.917-2.742-2.567-2.742-1.87 0-2.617 1.06-2.72 2.742zm10.895.538c0-2.523 1.614-4.322 4.079-4.322s4.012 1.799 4.012 4.322c0 2.522-1.563 4.321-4.012 4.321s-4.08-1.799-4.08-4.321m6.901 0c0-2.07-.798-3.229-2.822-3.229s-2.872 1.16-2.872 3.229.816 3.246 2.872 3.246 2.822-1.178 2.822-3.246m3.009 4.155V8.259h-1.241V7.217h1.241v-.32c0-1.714.968-2.64 2.822-2.64h.747v.992h-.968c-.969 0-1.411.403-1.411 1.244v.724h2.379v1.042h-2.362v7.265zm-62.21 14.709v-.253h1.207v.186c0 1.564.832 2.54 3.366 2.54 1.887 0 2.771-.622 2.771-1.917s-.577-1.732-2.295-2.102l-1.972-.438c-1.785-.37-3.008-1.177-3.008-2.994 0-1.63 1.36-3.044 4.062-3.044 2.957 0 4.25 1.783 4.25 3.616v.219h-1.208v-.186c0-1.547-.817-2.54-3.06-2.54-1.887 0-2.822.622-2.822 1.85s.628 1.648 2.294 2.035l1.973.454c1.887.42 3.008 1.295 3.008 3.06s-1.342 3.094-4.028 3.094c-3.162 0-4.538-1.648-4.538-3.582zm10.148 6.341V25.34h1.105v1.615h.051c.374-1.06 1.378-1.783 2.957-1.783 2.363 0 3.673 1.699 3.673 4.339s-1.242 4.306-3.536 4.306c-1.615 0-2.653-.841-3.026-1.749v4.508h-1.224zm3.91-3.801c1.632 0 2.652-.74 2.652-3.262s-1.002-3.297-2.652-3.297-2.686.859-2.686 2.574v1.43c0 1.698 1.02 2.555 2.686 2.555m5.098-3.279c0-2.523 1.615-4.322 4.08-4.322s4.012 1.799 4.012 4.322c0 2.522-1.564 4.321-4.013 4.321s-4.079-1.799-4.079-4.321m6.902 0c0-2.07-.799-3.229-2.823-3.229s-2.872 1.16-2.872 3.229.817 3.246 2.873 3.246 2.822-1.178 2.822-3.246m2.668 4.153V25.24h1.105v1.396h.085c.273-.775 1.087-1.463 2.329-1.463 1.733 0 2.397 1.228 2.397 2.657v.471h-1.224v-.285c0-1.295-.407-1.8-1.615-1.8-1.308 0-1.852.59-1.852 1.935v5.499h-1.223zm7.99-2.352v-4.91h-1.412v-1.043h1.428l.288-2.12h.918v2.12h2.652v1.043h-2.652v4.978c0 .976.458 1.195 1.547 1.195h1.105v.975a8 8 0 0 1-1.427.135c-1.548 0-2.447-.606-2.447-2.372zm4.725-.373v-.034h1.19v.202c0 1.144.476 1.699 2.38 1.699 1.563 0 1.972-.438 1.972-1.279 0-.84-.527-1.144-1.802-1.379l-1.394-.234c-1.36-.253-2.346-.875-2.346-2.337s1.224-2.388 3.212-2.388 3.332.976 3.332 2.841v.084h-1.172v-.134c0-.992-.391-1.749-2.192-1.749-1.53 0-2.006.487-2.006 1.328s.425 1.127 1.682 1.363l1.427.27c1.463.27 2.431.907 2.431 2.287 0 1.48-1.223 2.355-3.162 2.355-2.295 0-3.552-.959-3.552-2.893zM37.966 4.258h-.677v29.816h.677z"/></g><defs><clipPath id="a"><path fill="#fff" d="M0 0h111v38.661H0z"/></clipPath></defs></svg>