<svg xmlns="http://www.w3.org/2000/svg" width="37" height="37" fill="none" viewBox="0 0 37 37"><path fill="#00f" d="M16.188 17.344a8.094 8.094 0 1 0 0-16.188 8.094 8.094 0 0 0 0 16.188m10.406 0a9.25 9.25 0 1 0 0 18.5 9.25 9.25 0 0 0 0-18.5m3.468 10.406H27.75v2.313a1.156 1.156 0 1 1-2.312 0V27.75h-2.313a1.156 1.156 0 1 1 0-2.312h2.313v-2.313a1.156 1.156 0 1 1 2.312 0v2.313h2.313a1.156 1.156 0 1 1 0 2.312"/><path fill="#00f" d="M15.031 26.594a11.56 11.56 0 0 1 2.394-7.019q-.616.076-1.238.081a10.4 10.4 0 0 1-8.44-4.336 15.03 15.03 0 0 0-6.59 12.43v2.313a5.78 5.78 0 0 0 5.78 5.78h12.72a11.56 11.56 0 0 1-4.626-9.25"/></svg>