<svg xmlns="http://www.w3.org/2000/svg" width="36" height="36" fill="none" viewBox="0 0 36 36"><path fill="#00f" d="M21.164 32.888H18.38v-.99h2.784zm2.975-2.626h-5.76v.99h5.76zm6.574-4.369v7.586a1.26 1.26 0 0 1-1.258 1.26H17.31c-.695 0-1.26-.565-1.26-1.26v-1.39C8.772 31.9 2.91 25.923 2.91 18.602c0-1.73.32-3.405.952-4.988A5.27 5.27 0 0 1 .035 8.552 5.27 5.27 0 0 1 5.3 3.288a5.27 5.27 0 0 1 4.895 3.334 13.5 13.5 0 0 1 6.209-1.513c7.439 0 13.49 6.053 13.49 13.493 0 2.099-.49 4.167-1.422 6.031h.984a1.26 1.26 0 0 1 1.258 1.26M4.805 10.94v.903h.99v-.93c.65-.14 1.139-.72 1.139-1.411 0-.797-.648-1.445-1.444-1.445-.838 0-.838-.23-.838-.454 0-.252.204-.457.455-.457h.565c.148 0 .272.126.272.274v.495h.99V7.42c0-.655-.501-1.196-1.14-1.257V5.26h-.99v.928c-.65.14-1.141.72-1.141 1.414 0 .659.317 1.444 1.827 1.444a.455.455 0 0 1 0 .91h-.565a.273.273 0 0 1-.273-.273v-.495h-.99v.495c0 .655.503 1.195 1.143 1.256M17.31 24.633h.798l.023-2.856a20 20 0 0 1-1.741-1.646c-1.349-1.448-1.93-2.598-1.776-3.514.074-.445.366-1.047 1.335-1.39 2.06-.731 3.536.434 4.963 1.56 1.164.919 2.264 1.787 3.712 1.787 1.54 0 3.109-.02 4.28-.041a12.47 12.47 0 0 0-3.902-8.998c-1.075 2.064-3.375 3.179-5.271 3.222l-.13.002c-1.842 0-3.27-.911-3.926-2.515-.315-.767-.685-.75-1.492-.64-.458.064-.976.135-1.453-.086-.346-.16-.767-.581-1.302-2.387q-.486.21-.955.462.087.467.089.96a5.27 5.27 0 0 1-5.705 5.241 12 12 0 0 0-.465 1.317c1.884.118 2.417.46 2.663.756.417.5.497 1.134.574 1.748.126 1.005.209 1.669 1.47 1.83 2.015.259 3.526 1.497 4.254 3.486.876 2.397.388 5.355-1.172 7.439 1.215.436 2.515.69 3.87.728v-5.205c0-.694.564-1.26 1.26-1.26m12.414 4.692H17.04v4.154c0 .147.124.27.27.27h12.145a.27.27 0 0 0 .269-.27zm0-3.432a.27.27 0 0 0-.269-.27H17.31a.274.274 0 0 0-.27.27v.33h12.684zm5.753-4.442-2.225 1.26c.325-1.336.49-2.715.49-4.11 0-4.631-1.804-8.986-5.079-12.261a17.23 17.23 0 0 0-12.26-5.08A17.3 17.3 0 0 0 10.3 2.366l.349.926a16.3 16.3 0 0 1 5.755-1.042c9.015 0 16.35 7.336 16.35 16.352 0 1.295-.152 2.577-.45 3.82l-1.241-2.193-.861.488 1.84 3.249a.495.495 0 0 0 .675.186l3.249-1.84z"/></svg>