<svg xmlns="http://www.w3.org/2000/svg" width="346" height="346" fill="none" viewBox="0 0 346 346"><path fill="#e6f0ff" d="M0 0h346v346H0z"/><circle cx="173" cy="100" r="30" fill="#00f" opacity=".3"/><circle cx="173" cy="100" r="25" fill="#00f" opacity=".4"/><circle cx="173" cy="100" r="20" fill="#00f" opacity=".5"/><rect width="106" height="140" x="120" y="160" fill="#00f" opacity=".2" rx="12"/><rect width="86" height="110" x="130" y="170" fill="#00f" opacity=".3" rx="6"/><circle cx="173" cy="220" r="12" fill="#00f" opacity=".4"/><rect width="46" height="6" x="150" y="240" fill="#00f" opacity=".4" rx="3"/><rect width="46" height="6" x="150" y="255" fill="#00f" opacity=".4" rx="3"/><rect width="46" height="6" x="150" y="270" fill="#00f" opacity=".4" rx="3"/><circle cx="100" cy="80" r="3" fill="#00f" opacity=".3"/><circle cx="246" cy="80" r="3" fill="#00f" opacity=".3"/><circle cx="80" cy="140" r="3" fill="#00f" opacity=".3"/><circle cx="266" cy="140" r="3" fill="#00f" opacity=".3"/><circle cx="90" cy="200" r="3" fill="#00f" opacity=".3"/><circle cx="256" cy="200" r="3" fill="#00f" opacity=".3"/><circle cx="110" cy="280" r="3" fill="#00f" opacity=".3"/><circle cx="236" cy="280" r="3" fill="#00f" opacity=".3"/></svg>