<svg width="346" height="346" viewBox="0 0 346 346" fill="none" xmlns="http://www.w3.org/2000/svg">
<rect width="346" height="346" fill="#E6F0FF"/>
<circle cx="173" cy="120" r="25" fill="#0000FF" opacity="0.3"/>
<circle cx="173" cy="120" r="20" fill="#0000FF" opacity="0.4"/>
<circle cx="173" cy="120" r="15" fill="#0000FF" opacity="0.5"/>
<rect x="140" y="180" width="66" height="100" rx="8" fill="#0000FF" opacity="0.2"/>
<rect x="145" y="185" width="56" height="80" rx="4" fill="#0000FF" opacity="0.3"/>
<circle cx="173" cy="220" r="8" fill="#0000FF" opacity="0.4"/>
<rect x="160" y="235" width="26" height="4" rx="2" fill="#0000FF" opacity="0.4"/>
<rect x="160" y="245" width="26" height="4" rx="2" fill="#0000FF" opacity="0.4"/>
<circle cx="120" cy="100" r="3" fill="#0000FF" opacity="0.3"/>
<circle cx="226" cy="100" r="3" fill="#0000FF" opacity="0.3"/>
<circle cx="100" cy="150" r="3" fill="#0000FF" opacity="0.3"/>
<circle cx="246" cy="150" r="3" fill="#0000FF" opacity="0.3"/>
<circle cx="110" cy="200" r="3" fill="#0000FF" opacity="0.3"/>
<circle cx="236" cy="200" r="3" fill="#0000FF" opacity="0.3"/>
<circle cx="130" cy="250" r="3" fill="#0000FF" opacity="0.3"/>
<circle cx="216" cy="250" r="3" fill="#0000FF" opacity="0.3"/>
</svg>










