<svg width="346" height="346" viewBox="0 0 346 346" fill="none" xmlns="http://www.w3.org/2000/svg">
<rect width="346" height="346" fill="#E6F0FF"/>
<circle cx="173" cy="100" r="30" fill="#0000FF" opacity="0.3"/>
<circle cx="173" cy="100" r="25" fill="#0000FF" opacity="0.4"/>
<circle cx="173" cy="100" r="20" fill="#0000FF" opacity="0.5"/>
<rect x="120" y="160" width="106" height="140" rx="12" fill="#0000FF" opacity="0.2"/>
<rect x="130" y="170" width="86" height="110" rx="6" fill="#0000FF" opacity="0.3"/>
<circle cx="173" cy="220" r="12" fill="#0000FF" opacity="0.4"/>
<rect x="150" y="240" width="46" height="6" rx="3" fill="#0000FF" opacity="0.4"/>
<rect x="150" y="255" width="46" height="6" rx="3" fill="#0000FF" opacity="0.4"/>
<rect x="150" y="270" width="46" height="6" rx="3" fill="#0000FF" opacity="0.4"/>
<circle cx="100" cy="80" r="3" fill="#0000FF" opacity="0.3"/>
<circle cx="246" cy="80" r="3" fill="#0000FF" opacity="0.3"/>
<circle cx="80" cy="140" r="3" fill="#0000FF" opacity="0.3"/>
<circle cx="266" cy="140" r="3" fill="#0000FF" opacity="0.3"/>
<circle cx="90" cy="200" r="3" fill="#0000FF" opacity="0.3"/>
<circle cx="256" cy="200" r="3" fill="#0000FF" opacity="0.3"/>
<circle cx="110" cy="280" r="3" fill="#0000FF" opacity="0.3"/>
<circle cx="236" cy="280" r="3" fill="#0000FF" opacity="0.3"/>
</svg>



