<svg xmlns="http://www.w3.org/2000/svg" width="346" height="346" fill="none" viewBox="0 0 346 346"><path fill="#e6f0ff" d="M0 0h346v346H0z"/><circle cx="173" cy="120" r="25" fill="#00f" opacity=".3"/><circle cx="173" cy="120" r="20" fill="#00f" opacity=".4"/><circle cx="173" cy="120" r="15" fill="#00f" opacity=".5"/><rect width="66" height="100" x="140" y="180" fill="#00f" opacity=".2" rx="8"/><rect width="56" height="80" x="145" y="185" fill="#00f" opacity=".3" rx="4"/><circle cx="173" cy="220" r="8" fill="#00f" opacity=".4"/><rect width="26" height="4" x="160" y="235" fill="#00f" opacity=".4" rx="2"/><rect width="26" height="4" x="160" y="245" fill="#00f" opacity=".4" rx="2"/><circle cx="120" cy="100" r="3" fill="#00f" opacity=".3"/><circle cx="226" cy="100" r="3" fill="#00f" opacity=".3"/><circle cx="100" cy="150" r="3" fill="#00f" opacity=".3"/><circle cx="246" cy="150" r="3" fill="#00f" opacity=".3"/><circle cx="110" cy="200" r="3" fill="#00f" opacity=".3"/><circle cx="236" cy="200" r="3" fill="#00f" opacity=".3"/><circle cx="130" cy="250" r="3" fill="#00f" opacity=".3"/><circle cx="216" cy="250" r="3" fill="#00f" opacity=".3"/></svg>