<?xml version="1.0" encoding="utf-8"?>
<!-- Generator: Adobe Illustrator 28.0.0, SVG Export Plug-In . SVG Version: 6.00 Build 0)  -->
<svg version="1.1" id="Layer_1" xmlns="http://www.w3.org/2000/svg" xmlns:xlink="http://www.w3.org/1999/xlink" x="0px" y="0px"
	 viewBox="0 0 248 152" style="enable-background:new 0 0 248 152;" xml:space="preserve">
<path d="M136,13.6c1.8-0.8,3-1.1,3.1-1.1l-28,4.8c-13.6,1.7-25.8,3.4-36.4,5c-19.7,2.9-27,4.4-27.3,4.5l-0.6,0.1l-12.1,13
	c-1.4-0.3-3.6-0.6-5,0c-1.2,0.5-1.9,1.9-2.3,3.4C18,47.4,6.8,52.4,5.7,53.5C4,55.2,3.3,62.8,3.4,63.6c0.1,0.7,0.5,1.3,4,5.4
	c0.7,0.8,1.6,1.9,1.8,2.2c0.1,0.1,0.2,0.4,0.3,0.7c1.4,3.5,2.1,4.7,3.1,5.1c0.5,0.2,1.3,0.3,8.8,0.3c0.6,0.6,3.8,4,6,5.7
	c3.9,2.9,8.7,4,8.9,4l2.7,0.6l-1.7-2.2c0-0.1-4.1-5.4-4.5-10.9c0.2-0.1,0.5-0.2,0.8-0.3c0.3-0.1,0.7-0.2,1-0.4
	c1,0.9,3.9,3.4,4.6,4.2c0.8,1,2.9,2.8,2.9,2.8s0.1-1.4,0.2-3.1c2.1,3,7.2,10.5,9.7,15.6c-1.7-1.5-3.8-2.6-3.8-2.6s1,4,1.1,5
	c0.1,0.5,0.3,2.5,0.5,4.1c-2.7-1.3-7.5-3.7-10.7-5.7l-2-1.2l0.5,2.3c0,0.2,1,4.5,1.9,6.6c0.4,0.9,1,1.8,1.6,2.6l-0.9,0.2
	c-0.4,0.1-0.7,0.2-1.1,0.3c-0.2,0.1-0.4,0.1-0.6,0.2c-0.1,0-0.2,0.1-0.4,0.2c-0.1,0-0.1,0.1-0.2,0.1c-0.1,0-0.1,0-0.2,0.1l-0.1,0.1
	c0,0-0.1,0-0.2,0.1c-0.1,0.1-0.2,0.2-0.2,0.3c0,0.1-0.1,0.1-0.1,0.1l-0.1,0.1c-0.1,0.1-0.1,0.2-0.1,0.3c-0.1,0.1-0.1,0.2-0.1,0.3
	c-0.1,0.3-0.1,0.4-0.1,0.5c0,0.1,0,0.2,0,0.4c0,0.2,0,0.4,0,0.6c0,0.4,0,0.8,0,1.2c0,0.8,0.1,1.6,0.2,2.5c0,0.2,0.1,0.5,0.2,0.9
	c0,0.1,0.1,0.2,0.2,0.4c0.1,0.1,0.1,0.2,0.3,0.4c0,0,0.1,0.1,0.2,0.2c0.1,0.1,0.2,0.1,0.2,0.1l0.1,0.1l0.2,0.1l0.1,0.1l0.2,0.1
	c0.4,0.2,0.8,0.3,1.1,0.5c0.5,0.2,0.9,0.4,1.4,0.5l1.9,4.3l0.2,0.5l0.5,0.3c0.7,0.4,1.3,0.7,1.9,1c0.6,0.3,1.3,0.6,1.9,0.9
	c1.3,0.6,2.6,1.1,4,1.5c1.3,0.5,2.7,0.9,4.1,1.2c1.1,0.2,2.1,0.4,3.3,0.5c0.1-0.7,0.4-1.3,0.6-2c0-0.1,0-0.1,0-0.2
	c0.1-0.4,0.2-0.8,0.2-1.1c-0.2-0.1-0.3-0.3-0.2-0.6c0-0.3,0.1-0.5,0.1-0.8c-0.2,0.3-0.4,0.7-0.6,1c-2.1-0.2-4.3-0.8-6.4-1.5
	c-1.2-0.4-2.5-0.9-3.6-1.4c-0.6-0.3-1.2-0.5-1.8-0.8c-0.4-0.2-0.8-0.4-1.2-0.6l-1.2-2.7c0.2-0.3,0.5-0.7,0.7-0.9
	c0.6-0.6,8.2-5.3,8.4-5.4l-10.4,3.9l-0.6-0.2c-0.7-0.3-1.4-0.5-2.1-0.8c-0.1-0.2-0.3-0.4-0.4-0.6c0-0.4-0.1-0.9-0.1-1.3
	c0-0.3,0-0.7,0-1c0.3-0.1,0.5-0.2,0.8-0.2l2.2-0.6c1.5-0.4,2.9-0.7,4.4-1.2c0.4-0.1,0.7-0.2,1.2-0.4c0.1,0,0.2-0.1,0.4-0.1l0.2-0.1
	l0.1-0.1l0.1,0l0.1-0.1l0.1-0.1l0,0l0.1,0l0.5-0.3l1.8-1.4l3.6-2.8l7.2-5.5l0.7-0.5l0-0.9c-0.2,0.1-0.4,0.1-0.7,0.2
	c-0.4,0.1-0.8,0.3-1.1,0.5c-0.4,0.2-0.8,0-1-0.4c-0.5-0.2-0.6-1-0.1-1.2c0,0,0,0,0.1,0c-0.5-0.3-0.3-1.2,0.4-1.3
	c0.7,0,1.3-0.3,1.9-0.5c0.1,0,0.3-0.1,0.4-0.1c-0.1-1.5-0.4-2.9-0.8-4.3c-0.3-1.1-0.7-2.2-1.1-3.3c-0.4-1.1-0.8-2.2-1.3-3.2
	c-0.9-2.1-2-4.2-3.1-6.1c-1.2-2-2.4-3.9-3.8-5.7c0.9,2.1,1.6,4.2,2.4,6.3c0.7,2.1,1.3,4.2,1.9,6.3C51.4,75,42.5,68.5,41.3,68.2
	c-0.7-0.2-0.8-0.2-8.8,2.6c-3.3,1.1-7.7,2.7-8.6,2.9c-0.2,0-0.5,0-1,0c-4.6,0-7.5,0-8.7,0c-0.4-0.8-1.1-2.5-1.4-3.1
	c-0.2-0.5-0.3-0.8-0.4-1c-0.2-0.4-0.6-0.9-2.3-2.9c-0.2-0.3-0.5-0.6-0.8-1c2.4-1.3,6.5-4.2,6.9-4.5c0.2-0.3,0.6-1.4,0.9-2.4
	c0.5-0.3,0.8-0.6,1-0.7c0.7-0.4,19.5-6.1,19.5-6.1l12.3-2.6c2.4-2.1,9.5-9.8,9.5-9.8S56,40.3,45,44.9c-4.1,1.7-8.5,3.7-9,4.1
	c-0.4,0.3-15.2,6.4-22.4,8.2c-2.3,0-4.3-0.1-5.7-0.1c0.1-0.4,0.2-0.8,0.4-1c1.5-1,10.7-5.1,19.4-9h3c0-1.5,0.3-3.3,0.6-3.9
	c0.7-0.1,2.3,0.1,3.6,0.4l1.1,0.3l12.7-13.7c0.7-0.1,1.9-0.4,3.9-0.7c1.8,1,5.5,3.3,7.1,5.7c0,0,0.6-4.9-1.1-6.7
	c1.6-0.3,3.5-0.6,5.6-0.9c1.8,1,5.5,3.3,7.1,5.7c0,0,0.6-4.7-1-6.6c1.5-0.2,3.2-0.5,4.9-0.7c0.2,0,0.5-0.1,0.7-0.1
	c1.9,1.2,4.4,3,5.7,4.8c0,0,0.4-3.4-0.4-5.6c8.3-1.2,17.5-2.4,27.4-3.7c0.1,0.1,0.1,0.3,0,0.5c-0.4,1.1-9.5,8.4-11.2,8.8
	c-1.7,0.4-4.9,0.8-6.8,1.7c-2.5,1.2-3.5,3.9-3.5,4.1c0.1-0.2,1.4-3,4.4-3.8c3-0.8,5.8-0.3,8.7-2.1c2.9-1.8,12.1-7.4,13.5-7.5
	c0.6-0.1,0.6,0.9,0.4,2L102,38.1l26.8-6.2c-1.4,3.9-4.2,11.2-7.9,19.2c-3.4,4.9-7.6,10.2-11.6,12.9c-0.9-1.2-1.8-2.3-2.7-3.5
	c-1.2-1.6-2.3-3.2-3.4-4.9c0.2-0.4,0.5-0.8,0.7-1.2c0.5-0.7,0.9-1.5,1.5-2.2c1-1.5,2.1-2.9,3.2-4.3c1.1-1.4,2.3-2.7,3.6-4
	c1.2-1.3,2.5-2.6,3.9-3.8c-1.5,1-3,2-4.5,3.1c-1.5,1.1-2.9,2.2-4.3,3.4c-0.9,0.8-1.8,1.6-2.7,2.5c-1.2,1.1-2.7,2.5-4,4
	c-3,3.4-2.8,5.7-2.8,5.7c3,5.4,6.9,11.4,9.4,15v-0.3h0.8v-0.9h0.6v-0.9h2.2v-0.5h1.9v1.1h-0.1V73h1v4.3h-1.7v3.2h-1v1.1h-3v-0.4
	h-0.4v0.4h-0.7v0.7h-1.2v0.4h-1c-3.5,3.4-7.2,6-10.4,7.9c0.4-0.1,0.7-0.2,1.1-0.3c0.9-0.5,1.8-0.9,2.7-1.3c0.3-0.2,0.9-0.1,1,0.3
	c0.2,0,0.3-0.1,0.5-0.1c0.8-0.2,1.2,0.9,0.5,1.2c-0.2,0.1-0.4,0.3-0.7,0.4c0.1,0.1,0.1,0.2,0.1,0.4c0,1.2-0.2,2.4-0.4,3.6
	c0.1,0.8-0.1,1.6-0.2,2.4c0,0.1,0,0.2,0,0.3c0.1,0.1,0.1,0.2,0.2,0.3c0.5,1.7,0.2,3.4,0,5.1c1.8-0.4,3.7-0.7,5.5-1l0.6-0.1
	c1.5-1,3.1-1.8,4.8-2.4c0.9-0.4,1.9-0.7,2.8-1.1c0.8-0.4,1.7-0.8,2.6-0.7c0.4,0.1,0.7,0.4,0.7,0.7c0.1,0,0.2-0.1,0.3-0.1l-0.2-1.8
	c0.4,0,0.9,0,1.3,0v-0.5c-0.3-0.1-0.5-0.3-0.5-0.6c0-0.5,0-1.1,0.1-1.6c0.1-1,0.2-1.9,0.2-2.9c-0.2-0.1-0.4-0.3-0.4-0.6
	c0-0.5,0-1,0-1.5c-0.3-0.2-0.4-0.5-0.2-0.9c0.1-0.1,0.1-0.3,0.2-0.4c0,0,0-0.1,0.1-0.1c0-0.6,0.1-1.1,0.1-1.7c0,0,0-0.1,0-0.1v0
	c-0.5-0.2-0.7-0.9-0.1-1.2c0.1,0,0.1-0.1,0.2-0.1c0-0.2,0.1-0.3,0.1-0.5c0,0,0-0.1,0-0.1c0-0.2,0.1-0.5,0.1-0.7c0,0-0.1,0-0.1,0
	c-0.6-0.1-0.6-1-0.2-1.2c0.3-0.2,0.5-0.3,0.8-0.4c0,0,0,0,0.1,0c0-0.3,0.2-0.7,0.7-0.7c0.1,0,0.3,0,0.4,0c0.1,0,0.1-0.1,0.2-0.1
	c0.1,0,0.1,0,0.2-0.1c0,0,0-0.1,0-0.1c0.2-0.4,0.6-0.4,0.9-0.3c0.6-0.2,1.2-0.4,1.8-0.5h0c0-0.1,0.1-0.1,0.2-0.2
	c0.3-0.3,0.6-0.5,0.9-0.7c-1.3-1-2.6-2-3.8-3c-0.6-0.7-1.3-1.3-1.9-2l6.5-19.6c5.8-12.6,9.5-23.5,9.5-23.6l1-3.1l-21.5,4.9l5.8-6.2
	C123.4,20.4,129.4,16.3,136,13.6z M48.5,102.3l-0.4,0.3l0,0c-0.3,0.1-0.6,0.2-1,0.3c-1.1,0.3-2.3,0.6-3.5,0.9
	c-0.7-0.8-1.5-1.9-1.9-2.9c-0.5-1-0.9-2.6-1.2-3.9c3.1,1.7,6.7,3.6,9,4.6L48.5,102.3z M31,75.1c0.4,3.5,2,6.9,3.2,9
	c-1.6-0.6-3.7-1.5-5.6-2.9c-1.4-1-3.2-2.8-4.4-4.1C25,77.1,26.4,76.7,31,75.1z"/>
<path d="M87.5,94L87.5,94c-0.3,0.1-0.5,0.2-0.7,0.2C87,94.2,87.2,94.1,87.5,94z"/>
<path d="M45,62.9c-1-0.4-8.4-1-8.4-1s9.2,3,14.1,7.4C50.7,69.3,46,63.3,45,62.9z"/>
<path d="M31.8,58.3c0,0-1.2,2.8-12.9,5.4c0,0,9.8-1.8,12.3-3C33.6,59.4,31.8,58.3,31.8,58.3z"/>
<path d="M31.2,64.1c0,0-1.2,2.6-12.1,5c0,0,9.1-1.7,11.5-2.8C32.9,65.2,31.2,64.1,31.2,64.1z"/>
<path d="M77,40.3l-14.9,0.3l8.1,2.5c-5.8,12.4-19.4,17.6-19.4,17.6C75.1,56,77,40.3,77,40.3z"/>
<path d="M68.1,64.1c0,0,3.2,9.2,2.3,23.1c0,0,4.6-9,5.7-21.2c0,0,8.5-11.3,10.5-24C86.7,42.1,80.6,55.2,68.1,64.1z"/>
<path d="M82.3,70.3c0,0,2.3,6.2,1.9,15.7c0,0,3-6.2,3.6-14.5c0,0,5.6-7.8,6.9-16.4C94.7,55.1,90.7,64.1,82.3,70.3z"/>
<path d="M217.3,1.1L148.1,19l2.8-7.3L217.3,1.1z"/>
<path d="M244.6,8.2L134.1,55.5l6-15.6l2.5-6.5L244.6,8.2z"/>
<path d="M149.4,67.7c0.1,0,0.2-0.1,0.2-0.1c-0.3-0.3-0.3-0.8,0.2-1c1.7-0.8,3.6-1.3,5.4-1.7c-0.1-0.3,0.1-0.7,0.5-0.8
	c1-0.3,2.1-0.7,3.1-1c0.4-0.1,0.8-0.2,1.1-0.4c0-0.2,0.1-0.3,0.2-0.5c0.7-0.9,2-1.2,3-1.3c0.6-0.1,1.2-0.1,1.9-0.1
	c0.6-0.2,1.3-0.5,1.9-0.7c0.4-0.2,0.8-0.4,1.1-0.6c0.2-0.1,0.3-0.1,0.4-0.1c0.1,0,0.1-0.1,0.2-0.1c0.3-0.3,0.6-0.5,0.8-0.7
	c0.7-0.5,1.5-1,2.4-1c0.3,0,0.6,0.1,0.8,0.3l27.8-14.8l-71.2,30l6.3,4.4c0-1.9,0.9-3.8,1.7-5.5c0.1-0.2,0.3-0.3,0.5-0.3
	c0.1-0.2,0.2-0.5,0.5-0.5c2-0.7,4-1.1,6-1.6c0.3-0.1,0.6,0.1,0.7,0.3c0.7-0.3,1.4-0.6,2.1-0.8c0.6-0.2,1.1-0.4,1.7-0.7
	C148.9,68.1,149.1,67.8,149.4,67.7z"/>
<path d="M74.2,115.1c1.4-0.6,2.9-1.2,4.3-1.8c0.4-0.2,0.7-0.6,0.7-1.1c0-0.5,0-1.1,0.1-1.6c0-0.4-0.3-0.7-0.7-0.5
	c-0.5,0.2-0.9,0.4-1.4,0.6c-0.5,0.2-0.9,0.4-1.4,0.6c-0.5,0.2-1.1,0.4-1.6,0.7c-1.5,0.6-3,1.2-4.5,1.9c-0.1,1.1-0.1,2.2-0.2,3.2
	c0.2-0.1,0.5-0.2,0.7-0.3C71.7,116.2,72.9,115.7,74.2,115.1z"/>
<path d="M74.9,126.4c-1.3,0.6-2.7,1.1-4,1.7c-1.1,0.5-2.1,0.9-3.2,1.3c0,1.3-0.1,2.7-0.2,4c1-0.4,2.1-0.9,3.2-1.3
	c1.3-0.6,2.7-1.1,4-1.7c0.3-0.1,0.6-0.5,0.6-0.9c0-0.9,0.1-1.8,0.1-2.7C75.5,126.4,75.3,126.2,74.9,126.4z"/>
<path d="M76.1,106.6c0.5-0.2,0.9-0.4,1.4-0.6c0.5-0.2,0.9-0.4,1.4-0.6c0.4-0.2,0.7-0.7,0.7-1.1c0-0.5,0-1.1,0.1-1.6
	c0-0.4-0.3-0.7-0.7-0.5c-1.4,0.6-2.9,1.2-4.3,1.8c-1.2,0.5-2.5,1.1-3.8,1.6c-0.2,0.1-0.5,0.2-0.7,0.3c-0.1,1.1-0.1,2.2-0.2,3.2
	c1.5-0.6,3-1.2,4.5-1.9C75,107,75.5,106.8,76.1,106.6z"/>
<path d="M149.8,64.9c-0.2,0.1-0.3,0.2-0.5,0.2l-1,0.5v-0.2l-13.9,5.8c0,0,0.5,2.2,0.5,2.8c0,0.6,0.2,13.2,0.2,13.4s-5.4,2.5-5.7,2.7
	c-0.4,0.2-1.5-0.6-1.5-0.6s0.2-15.3,1.3-16.1l-13.8,5.8l-0.1,1.8c-0.1,1.9-0.2,3.7-0.2,5.6l-0.2,5.7c0,0.6-0.1,1.2-0.1,1.8l-0.1,1.9
	L114,96c-0.2,0-0.3,0-0.5,0c-0.5,0-1,0.1-1.4,0.3l-11.3,4.7l0.2-3.6c0-0.6,0.1-1.3,0.1-1.9l0.1-2l0.3-8.3l-13.8,5.8l0,1.2L87,92
	c-0.3,0-0.5-0.1-0.7-0.1c-0.7,0-1.3,0.1-2,0.4l-24.7,10.3l-0.1,1.8c-0.1,2.1-0.2,4.2-0.3,6.3c-0.1,2.1-0.2,4.2-0.3,6.3l-0.4,9l0,0.2
	l0,1l-0.1,2L58,139c0,0.5-0.1,1-0.1,1.5l0,0.8v0.1l0,0.9c0,0.9-0.1,1.8-0.1,2.7l-0.2,4.4l12.4-5.2l0.1-1.8c0-0.5,0-0.9,0.1-1.4
	l0.1-1.5l1.5,1.4c0.7,0.7,1.6,1.1,2.6,1.1c0.6,0,1.1-0.1,1.7-0.3l11.6-4.9l5.8-2.4l19.1-8l22.5-9.4l0.1-1.8c0.1-1.1,0.1-2.2,0.2-3.3
	l0-1.1l1,0.6c1,0.6,2,1.3,2.9,1.9l0.1,0c0.6,0.4,1.4,0.6,2.1,0.6c0.6,0,1.2-0.1,1.8-0.4l7.6-3.2l0-0.9l0.7,0.1c0.1,0,0.3,0,0.4,0
	c0.6,0,1.2-0.1,1.8-0.4l16.7-7c2.2-0.9,3.9-3.4,4-5.9c0-0.5,0-0.9,0.1-1.3l0.1-2.7c0-0.6,0-1.3,0.1-1.9l0.1-1.9l0.1-3.2v0
	c0-0.1,0-0.2,0-0.4l0.1-1.5v-0.1c0-0.2,0-0.4,0-0.6c0-0.2,0-0.4,0-0.7l0.1-4.6h0l0.1-1.6l0.3-6l-2.3,1l0-1c0-0.3,0-0.6,0-0.9v-0.1
	c0-0.5,0-1,0.1-1.5l0.1-1.5l0.3-0.2c1.2-0.8,2.1-2.2,2.2-3.7c0-0.5,0.1-1,0.1-1.5l0-0.3v0l0-0.3c0-0.5,0-0.9,0.1-1.4L176,54
	L149.8,64.9z M61.6,121.1c0.1-1.3,0.1-2.6,0.2-4c0.1-2.1,0.2-4.2,0.3-6.3s0.2-4.2,0.3-6.3c2.7-1.1,5.4-2.3,8.1-3.4
	c1.5-0.6,3-1.2,4.5-1.9c3.5-1.4,6.9-2.9,10.4-4.4c1.5-0.6,2.7,0.2,2.6,1.9c-0.1,1.6-0.1,3.2-0.2,4.8c0,0.9-0.5,2-1.1,2.8
	c0.6,0.3,0.9,1,0.9,1.9c-0.1,1.6-0.1,3.2-0.2,4.8c-0.1,1.7-1.4,3.6-2.9,4.2c-3.5,1.5-7,2.9-10.4,4.4c-1.5,0.6-3,1.2-4.5,1.9
	c-2.7,1.1-5.4,2.3-8.1,3.4C61.5,123.8,61.5,122.4,61.6,121.1z M82.1,125.3c0,1.1-0.1,2.2-0.1,3.3c-0.1,1.4-1.1,3-2.3,3.5
	c-0.5,0.2-1,0.4-1.6,0.7c0.6,0.6,1.2,1.2,1.8,1.8c0.6,0.6,1.2,1.2,1.8,1.8c-2.2,0.9-4.4,1.8-6.5,2.7c-0.1,0-0.2,0.1-0.3,0.1
	c-0.5,0.2-1,0.2-1.3-0.1c-1-1-2.1-2-3.1-3.1c-1,0.4-2,0.8-3,1.2c0,0.5,0,1-0.1,1.5c-0.1,1.2-0.1,2.5-0.2,3.7
	c-2.2,0.9-4.5,1.9-6.7,2.8c0.1-1.2,0.1-2.5,0.2-3.7c0-0.8,0.1-1.6,0.1-2.3c0.1-1.8,0.2-3.6,0.2-5.4c0.1-1.8,0.2-3.6,0.2-5.4
	c2-0.9,4.1-1.7,6.1-2.6c0.2-0.1,0.4-0.2,0.5-0.2c1-0.4,2.1-0.9,3.2-1.3c3-1.2,6-2.5,9-3.8c1.2-0.5,2.2,0.2,2.1,1.6
	C82.2,123.1,82.2,124.2,82.1,125.3z M91,124.2c-0.1,2.8-0.2,5.6-0.4,8.4c-2.2,0.9-4.5,1.9-6.7,2.8c0.1-2.8,0.2-5.6,0.4-8.4
	c0.1-2.8,0.2-5.6,0.4-8.4c2.2-0.9,4.4-1.9,6.7-2.8C91.3,118.5,91.1,121.3,91,124.2z M90.3,112c-0.5-0.4-0.7-1-0.7-1.8
	c0.1-1.6,0.1-3.2,0.2-4.7c0.1-1.6,0.1-3.2,0.2-4.7c0-0.2,0-0.5,0-0.7c0.1-1.2,0.1-2.4,0.2-3.6c0-1.2,0.1-2.4,0.2-3.6
	c2.7-1.1,5.4-2.2,8.1-3.4c-0.1,1.3-0.1,2.6-0.2,4c-0.1,1.3-0.1,2.6-0.2,3.9c-0.1,1.6-0.1,3.1-0.2,4.7c0,0.8-0.1,1.6-0.1,2.4
	c0,0.1,0,0.1,0,0.2c0,0.3,0.3,0.5,0.6,0.3c0.4-0.2,0.8-0.4,1.2-0.5c0.5-0.2,0.9-0.4,1.4-0.6c0.1-0.1,0.3-0.1,0.4-0.2
	c0.1-0.1,0.3-0.1,0.4-0.2c0.5-0.2,1-0.4,1.5-0.6c0.7-0.3,1.3-0.5,2-0.8c0.4-0.2,0.7-0.3,1.1-0.5c0.2-0.1,0.3-0.1,0.4-0.2
	c0.6-0.3,1.2-0.5,1.9-0.8c0.5-0.2,1-0.4,1.5-0.6c0.4-0.2,0.8-0.3,1.1-0.5c0.6-0.2,1.1-0.5,1.7-0.7c0.6-0.2,1,0.1,1,0.7
	c0,0.6-0.1,1.3-0.1,1.9c0,0.5,0,1.1-0.1,1.6c-0.4,0.2-0.8,0.3-1.2,0.5c-0.5,0.2-1.1,0.5-1.6,0.7c-2.7,1.1-5.4,2.2-8,3.4
	c-0.5,0.2-1,0.4-1.5,0.6c-0.7,0.3-1.5,0.6-2.2,0.9c-0.5,0.2-0.9,0.4-1.4,0.6c-0.1,0-0.2,0.1-0.2,0.1c-0.9,0.4-1.7,0.7-2.6,1.1
	c-1.1,0.4-2.1,0.9-3.1,1.3C91.5,112.5,90.8,112.4,90.3,112z M114.5,107.3c0,0.5,0,1.1-0.1,1.6c0,0.5-0.4,1.1-0.9,1.3
	c-0.5,0.2-0.9,0.4-1.4,0.6c-0.2,0.1-0.4,0.2-0.6,0.3c-2.5,1-4.9,2.1-7.4,3.1c0,0-0.1,0-0.1,0c-1,0.4-2,0.8-3,1.3
	c-0.3,0.1-0.6,0.5-0.6,0.9c0,0.5,0,0.9-0.1,1.3c0,0.3,0.2,0.5,0.5,0.4c1-0.4,2-0.9,3.1-1.3c0,0,0.1,0,0.1,0c2.7-1.1,5.3-2.2,8-3.3
	c1.2-0.5,2.2,0.2,2.1,1.6c0,0.9-0.1,1.8-0.1,2.6c0,0.9-0.1,1.8-0.1,2.6c-0.1,1.4-1.1,3-2.3,3.5c-2.7,1.1-5.3,2.2-8,3.4
	c0,0-0.1,0-0.1,0c-2.7,1.1-5.3,2.2-8,3.3c-0.5,0.2-1.1,0.5-1.6,0.7c-0.2,0.1-0.4,0.2-0.6,0.3c0-0.4,0-0.9,0.1-1.3
	c0-0.5,0.1-1.1,0.1-1.6c0-0.5,0.4-1.1,0.9-1.3c0.5-0.2,0.9-0.4,1.4-0.6c0.2-0.1,0.4-0.2,0.6-0.3c2.5-1,4.9-2.1,7.4-3.1
	c0,0,0.1,0,0.1,0c1-0.4,2-0.8,3-1.3c0.3-0.1,0.6-0.5,0.6-0.9c0-0.5,0-0.9,0.1-1.3c0-0.3-0.2-0.5-0.5-0.4c-1,0.4-2,0.9-3.1,1.3
	c0,0-0.1,0-0.1,0c-2.7,1.1-5.3,2.2-8,3.3c-1.2,0.5-2.2-0.2-2.2-1.6c0-0.9,0.1-1.8,0.1-2.6c0-0.9,0.1-1.8,0.1-2.6
	c0.1-1.4,1.1-3,2.4-3.5c2.7-1.1,5.3-2.2,8-3.3c0,0,0,0,0.1,0c2.7-1.1,5.3-2.2,8-3.4c0.5-0.2,1.1-0.5,1.6-0.7
	c0.2-0.1,0.4-0.2,0.6-0.3C114.5,106.5,114.5,106.9,114.5,107.3z M117.4,98.6c0.1-1.4,0.1-2.9,0.2-4.3c0-0.6,0-1.2,0.1-1.8
	c0.1-1.9,0.2-3.8,0.2-5.6c0.1-1.9,0.2-3.8,0.2-5.7c2.7-1.1,5.4-2.3,8.1-3.4c-0.1,1.9-0.2,3.8-0.2,5.7c-0.1,1.9-0.2,3.8-0.2,5.6
	c0,0.6-0.1,1.2-0.1,1.8c0,0.6-0.1,1.3-0.1,1.9c0,0.4,0.3,0.7,0.7,0.5c1-0.4,2-0.9,3.1-1.3c2.2-0.9,4.3-1.8,6.5-2.7
	c0.4-0.2,0.7-0.6,0.7-1.1c0-0.4,0-0.9,0.1-1.3c0-0.8,0.1-1.6,0.1-2.4c0.1-1.9,0.2-3.8,0.2-5.7c0.1-1.9,0.2-3.8,0.2-5.6
	c2.7-1.1,5.4-2.3,8.1-3.4c-0.1,1.9-0.2,3.8-0.2,5.7c-0.1,1.9-0.2,3.8-0.2,5.7c0,0.8-0.1,1.6-0.1,2.4c-0.1,1.2-0.1,2.5-0.2,3.7
	c-0.1,1.7-1.4,3.6-2.9,4.2c-4.2,1.8-8.4,3.5-12.5,5.3c-3.1,1.3-6.1,2.6-9.1,3.8C118.5,101.2,117.3,100.3,117.4,98.6z M123.4,110.6
	c-0.1,2.8-0.2,5.6-0.4,8.4c-2.2,0.9-4.5,1.9-6.7,2.8c0.1-2.8,0.2-5.6,0.4-8.4c0.1-2.8,0.2-5.6,0.4-8.4c2.2-0.9,4.4-1.9,6.7-2.8
	C123.6,105,123.5,107.8,123.4,110.6z M148.3,100.2c-0.1,2.8-0.2,5.6-0.4,8.4c-2,0.8-4,1.7-5.9,2.5c-0.5,0.2-1,0.2-1.4,0
	c-1.3-0.9-2.7-1.7-4-2.6c-1.3-0.9-2.7-1.7-4-2.6c-0.1,1.5-0.1,3.1-0.2,4.6c-0.1,1.5-0.1,3.1-0.2,4.6c-2.2,0.9-4.5,1.9-6.7,2.8
	c0.1-2.8,0.2-5.6,0.4-8.4c0.1-2.8,0.2-5.6,0.4-8.4c2-0.8,3.9-1.6,5.9-2.5c0.5-0.2,1-0.2,1.4,0c1.3,0.9,2.7,1.7,4,2.6
	c1.3,0.9,2.7,1.7,4,2.6c0.1-1.5,0.1-3.1,0.2-4.6c0.1-1.5,0.1-3.1,0.2-4.6c2.2-0.9,4.4-1.9,6.7-2.8
	C148.6,94.6,148.4,97.4,148.3,100.2z M172.1,83.2c0,0.5-0.1,1.1-0.1,1.6c0,0.5-0.4,1.1-0.9,1.3c-0.5,0.2-0.9,0.4-1.4,0.6
	c-1.3,0.5-2.5,1.1-3.7,1.6c-0.4,0.2-0.8,0.4-1.3,0.5c-1,0.4-2.1,0.9-3.1,1.3c0,0-0.1,0-0.1,0c-1.2,0.5-2.3,1-3.4,1.4
	c-0.3,0.1-0.5,0.4-0.6,0.7c0,0.1,0,0.1,0,0.2c-0.1,1.3-0.1,2.6-0.2,3.9c-0.1,1.3-0.1,2.6-0.2,3.9c0,0.1,0,0.1,0,0.1
	c0,0.3,0.3,0.4,0.5,0.3c1.2-0.5,2.3-1,3.4-1.4c1.1-0.5,2.1-0.9,3.2-1.3c0.2-0.1,0.4-0.3,0.5-0.6c0-0.1,0.1-0.2,0.1-0.3
	c0-0.6,0-1.2,0.1-1.8c0-0.1,0-0.1,0-0.2c-1.3,0.5-2.5,1.1-3.8,1.6c-0.3,0.1-0.6,0.2-0.8,0.3c-0.5,0.2-0.8-0.1-0.8-0.6
	c0-1,0.1-1.9,0.1-2.9c0.5-0.2,1.1-0.5,1.7-0.7c2-0.8,4-1.7,6-2.5c1.5-0.6,2.9-1.2,4.4-1.9c0,1.3-0.1,2.6-0.2,3.8c0,0.1,0,0.1,0,0.2
	c0,0.8-0.1,1.6-0.1,2.3c0,0.5,0,0.9-0.1,1.4c-0.1,1.4-1.1,3-2.3,3.5c-0.9,0.4-1.7,0.7-2.6,1.1c-1.9,0.8-3.8,1.6-5.6,2.4
	c-2.8,1.2-5.6,2.4-8.5,3.5c-1.2,0.5-2.2-0.2-2.2-1.6c0-0.5,0-1,0.1-1.4c0.1-1.7,0.1-3.4,0.2-5.2c0.1-1.7,0.2-3.5,0.2-5.2
	c0.1-1.4,1.1-3,2.3-3.5c0.9-0.4,1.7-0.7,2.6-1.1c1.9-0.8,3.9-1.6,5.9-2.5c0,0,0.1,0,0.1,0c1.1-0.5,2.2-0.9,3.3-1.4
	c0.4-0.2,0.7-0.3,1.1-0.5c0.4-0.2,0.8-0.3,1.2-0.5c0.9-0.4,1.7-0.7,2.6-1.1c0.7-0.3,1.5-0.6,2.2-0.9
	C172.2,82.4,172.1,82.8,172.1,83.2z M173,59.8c0,0.6-0.1,1.3-0.1,1.9s-0.5,1.4-1.1,1.6c-0.6,0.2-1.1,0.5-1.7,0.7
	c-0.4,0.2-0.8,0.3-1.2,0.5c-0.5,0.2-1,0.4-1.5,0.6c-0.6,0.3-1.2,0.5-1.9,0.8c-0.2,0.1-0.3,0.1-0.4,0.2c-0.4,0.2-0.7,0.3-1.1,0.5
	c-0.7,0.3-1.3,0.5-2,0.8c-0.7,0.3-1.5,0.6-2.2,0.9c-0.2,0.1-0.3,0.1-0.4,0.2c-0.5,0.2-0.9,0.4-1.4,0.6c-0.4,0.2-0.8,0.4-1.2,0.5
	c-0.3,0.1-0.6,0.5-0.7,0.9c0,0.1,0,0.1,0,0.2c0,0.8-0.1,1.6-0.1,2.4c0.6-0.3,1.2-0.5,1.9-0.8c0.7-0.3,1.4-0.6,2.1-0.9
	c0.7-0.3,1.4-0.6,2-0.9c1-0.4,2-0.8,3-1.2c1.4-0.6,2.9-1.2,4.3-1.8c0.4-0.2,0.8-0.3,1.2-0.5c0,0.5-0.1,1.1-0.1,1.6
	c0,0.6-0.1,1.3-0.1,1.9c0,0.6-0.5,1.4-1.1,1.6c-0.6,0.2-1.2,0.5-1.7,0.7c-0.4,0.2-0.8,0.3-1.2,0.5c-0.5,0.2-1.1,0.4-1.6,0.7
	c-1.7,0.7-3.3,1.4-5,2.1c-0.7,0.3-1.4,0.6-2.1,0.9c-0.3,0.1-0.6,0.3-0.9,0.4c-0.3,0.1-0.6,0.3-1,0.4c0,0.8-0.1,1.6-0.1,2.4
	c0,0.1,0,0.1,0,0.2c0.1,0.3,0.3,0.5,0.7,0.3c0.4-0.2,0.8-0.3,1.2-0.5c0.5-0.2,0.9-0.4,1.4-0.6c1.6-0.7,3.2-1.3,4.8-2
	c0.3-0.1,0.6-0.2,0.9-0.4c1.7-0.7,3.3-1.4,5-2.1c0.5-0.2,1.1-0.4,1.6-0.7c0.4-0.2,0.8-0.3,1.2-0.5c0,0.5-0.1,1.1-0.1,1.6
	c0,0.6-0.1,1.3-0.1,1.9c0,0.6-0.5,1.4-1.1,1.6c-0.6,0.2-1.1,0.5-1.7,0.7c-0.4,0.2-0.8,0.3-1.2,0.5c-0.5,0.2-1,0.4-1.6,0.6
	c-3.1,1.3-6.2,2.6-9.4,3.9c-1.4,0.6-2.8,1.2-4.2,1.8c-1.1,0.4-2.1,0.9-3.1,1.3c-1.5,0.6-2.7-0.2-2.6-1.9c0-0.6,0.1-1.2,0.1-1.7
	c0.1-2.1,0.2-4.2,0.3-6.3c0.1-2.1,0.2-4.2,0.3-6.3c0-0.8,0.4-1.7,0.9-2.5c0.5-0.8,1.2-1.4,2-1.8c1-0.4,2.1-0.9,3.1-1.3
	c0.9-0.4,1.7-0.7,2.6-1.1c0.1,0,0.1-0.1,0.2-0.1c0.5-0.2,0.9-0.4,1.4-0.6c0.7-0.3,1.4-0.6,2.2-0.9c0.6-0.3,1.2-0.5,1.8-0.8
	c2.7-1.1,5.3-2.2,8.1-3.4c0.5-0.2,1.1-0.4,1.6-0.7c0.4-0.2,0.8-0.3,1.2-0.5C173.1,58.8,173,59.3,173,59.8z"/>
<path d="M128.6,89.4l5.3-2.2l0-0.5c0-0.3,0-1.1,0-1.1c0-0.4,0.1-2.2,0.1-2.8l0.5-11.5l-5.2,2.2l-0.5,9.9L128.6,89.4z"/>
<path d="M172.3,59.4l-0.2,0.1l-0.1,0C172.2,59.5,172.3,59.5,172.3,59.4z"/>
<path d="M127.3,77.1c0.3-0.7,0.5-1.2,0.6-1.6c0,0,0.2-0.9,0.6-1.2c0,0,0.2-0.2,0.5-0.5c0,0,0.1-0.1,0.2-0.2c0,0,0,0,0,0c0,0,0,0,0,0
	c0,0,0,0,0,0c0,0,0,0,0,0c0,0,0,0,0.1,0c0.1,0,0.1,0,0.2,0c0.4-0.1,0.9-0.2,1.3-0.2c0.4-0.1,0.9-0.3,1.3-0.4
	c0.4-0.2,0.8-0.4,1.3-0.6c1.3-0.4,2.6-0.8,3.8-1.1c3.2-1.1,6.4-2.1,9.6-3.2c-3.6,1.7-7.3,3.4-11,5.1c-0.1,1.8-0.2,3.6-0.3,5.4
	c0.1,3.3,0.2,6.5,0.3,9.8c-3,1.3-6.1,2.6-9.1,3.9C127,87.1,127.2,82.1,127.3,77.1z"/>
<g>
	<path d="M103.2,84.4c-0.1-0.1-0.1-0.2-0.2-0.2c0,0,0,0.1,0,0.1c0,0.1,0,0.2,0,0.2c-0.1,0.1-0.1,0.1-0.2,0.1
		c-1.1,0.4-2.1,0.9-3.2,1.3c-2,0.9-4.1,1.7-6.1,2.6c-0.1,0-0.1,0-0.2,0.1c-0.2-0.2-0.3-0.3-0.5-0.5c0,0-0.1,0-0.1,0
		c-1,0.4-1.9,0.8-2.9,1.2c-0.1,0-0.1,0.1-0.2,0.2c-0.1,0.2-0.3,0.5-0.4,0.7c-0.1,0.1-0.1,0.1-0.2,0.2c-1.1,0.4-2.1,0.9-3.2,1.3
		c-3.7,1.6-7.5,3.2-11.2,4.7c-1.7,0.7-3.5,1.4-5.2,2.2c-2,0.9-4,1.7-6,2.5c-0.1,0-0.1,0.1-0.2,0.1c0-0.3,0-0.6,0.1-0.9
		c0-0.3,0-0.6,0.1-0.9s0-0.6,0.1-0.9c0-0.3,0-0.6,0.1-0.9c0-0.3,0-0.6,0.1-0.9c0-0.3,0-0.6,0.1-0.9c0-0.3,0-0.6,0.1-0.9
		c-0.1,0-0.1,0-0.1,0c-0.6,0.3-1.3,0.5-1.9,0.8c-0.5,0.2-1,0.4-1.5,0.6c0,0-0.1,0-0.1,0c0,0,0,0,0,0c0.1-1.5,0.2-3,0.3-4.6
		c0-0.1,0.1-0.1,0.2-0.1c1-0.4,2-0.8,3-1.3c3.4-1.4,6.7-2.8,10.1-4.2c3.8-1.6,7.6-3.2,11.4-4.8c0.1,0,0.1,0,0.2-0.1
		c0,1.9,0,3.8,0,5.6c0,0,0.1,0,0.1,0c0-0.1,0.1-0.1,0.1-0.2c1.4-2.4,2.7-4.8,4.1-7.1c0.1-0.1,0.1-0.2,0.2-0.2c0.8-0.3,1.5-0.6,2.3-1
		c0.3-0.1,0.6-0.2,0.9-0.2c0.5,0,0.9,0.2,1.2,0.6c0.1,0.1,0.2,0.3,0.4,0.4c0.2,0.3,0.5,0.5,0.7,0.8c0.7,0.9,1.4,1.7,2.2,2.6
		c0,0,0.1,0.1,0.1,0.1c0,0,0,0,0-0.1c0-0.3,0-0.6,0.1-1c0-0.4,0.1-0.8,0.1-1.3c0-0.2,0-0.4,0-0.6c0-0.6,0.1-1.3,0.1-1.9
		c0-0.4,0.1-0.8,0.1-1.2c0-0.3,0-0.6,0.1-0.8c0,0,0.1,0,0.1-0.1c1.2-0.5,2.3-1,3.5-1.5c0.2-0.1,0.5-0.2,0.8-0.2
		c0.6,0,1.1,0.2,1.4,0.7c0.2,0.3,0.4,0.6,0.7,0.9c0.2,0.3,0.4,0.6,0.6,0.8c0,0,0.1,0.1,0.1,0.1c0.1,0,0.1-0.1,0.1-0.1
		c0.3-0.6,0.6-1.2,0.9-1.7c0.4-0.7,0.8-1.4,1.2-2.2c0.1-0.2,0.3-0.5,0.5-0.7c0.3-0.3,0.6-0.5,1-0.7c1.4-0.6,2.9-1.2,4.3-1.8
		c0.1,0,0.2-0.1,0.3-0.1c0,0,0.1,0,0.1,0c0,0,0,0,0,0c0,0,0,0,0,0c0,0,0,0,0,0c-0.2,3.5-0.5,7.1-0.7,10.6c0,0.1-0.1,0.1-0.2,0.1
		c-0.7,0.3-1.4,0.6-2.1,0.9c-2.3,1-4.6,1.9-7,2.9C103.3,84.4,103.3,84.4,103.2,84.4z M111.4,79.6C111.4,79.6,111.4,79.5,111.4,79.6
		c0-0.3,0-0.5,0.1-0.7c0-0.4,0.1-0.9,0.1-1.3c0-0.4,0.1-0.8,0.1-1.2c0-0.4,0.1-0.8,0.1-1.2c0-0.4,0.1-0.8,0.1-1.2
		c0-0.7,0.1-1.4,0.1-2.1c0,0,0,0,0-0.1c0,0-0.1,0-0.1,0c-0.9,0.4-1.8,0.8-2.8,1.2c-0.2,0.1-0.3,0.2-0.4,0.3
		c-0.1,0.1-0.3,0.3-0.4,0.5c-0.7,1.2-1.3,2.5-2,3.7c-0.3,0.6-0.7,1.3-1,1.9c0,0.1,0,0.1-0.1,0.2c0-0.1-0.1-0.1-0.1-0.1
		c-0.5-0.7-1.1-1.5-1.6-2.2c-0.3-0.4-0.5-0.7-0.8-1.1c-0.1-0.2-0.3-0.2-0.5-0.2c-0.1,0-0.2,0-0.3,0.1c-0.9,0.4-1.8,0.8-2.8,1.2
		c0,0-0.1,0-0.1,0.1c-0.2,2.6-0.3,5.2-0.5,7.8c0,0,0,0,0,0c0.2,0,0.3-0.1,0.5-0.2c0.2-0.1,0.3-0.1,0.5-0.2c0.2-0.1,0.3-0.1,0.5-0.2
		c0.2-0.1,0.3-0.1,0.5-0.2c0.2-0.1,0.3-0.1,0.5-0.2c0.2-0.1,0.3-0.1,0.5-0.2c0.2-0.1,0.3-0.1,0.5-0.2c0,0,0,0,0,0c0,0,0,0,0,0
		c0.1-1,0.1-1.9,0.2-2.9c0,0,0,0,0,0c0,0,0,0,0,0c0,0,0,0,0,0c0,0,0.1,0.1,0.1,0.1c0.5,0.7,1,1.3,1.5,2c0,0,0.1,0.1,0.1,0.1
		c0,0,0.1,0,0.1,0c0.8-0.3,1.5-0.6,2.3-0.9c0.1,0,0.1-0.1,0.2-0.2c0.6-1,1.1-2.1,1.7-3.1c0.1-0.2,0.2-0.3,0.3-0.5c0,0,0-0.1,0.1,0
		c0,0.3,0,0.6-0.1,1c0,0.3,0,0.7-0.1,1c0,0.3-0.1,0.6-0.1,1c0.1,0,0.1,0,0.1-0.1C109.2,80.5,110.3,80,111.4,79.6z M83.7,83.5
		c-0.1,0-0.1,0-0.2,0.1c-3,1.2-5.9,2.5-8.9,3.8c-0.6,0.3-1,0.7-1.2,1.4c0,0.1,0,0.1,0,0.2c0,0.2,0,0.4-0.1,0.6
		c0,0.6-0.1,1.3-0.1,1.9c0,0.7-0.1,1.5-0.1,2.2c0,0.2,0,0.5-0.1,0.7c0,0.1,0,0.3,0,0.4c0,0.4,0.3,0.6,0.7,0.6c0.2,0,0.3-0.1,0.5-0.1
		c2.7-1.1,5.3-2.2,8-3.4c0.2-0.1,0.4-0.2,0.6-0.3c0.3-0.1,0.5-0.4,0.5-0.7c0-0.4,0.1-0.8,0.1-1.2c0,0,0-0.1,0-0.1
		c-0.1,0-0.1,0-0.2,0c-0.3,0.1-0.6,0.2-0.8,0.4c-1.8,0.8-3.7,1.5-5.5,2.3c0,0-0.1,0-0.1,0.1c-0.2,0-0.3,0-0.3-0.2c0,0,0,0,0,0
		c0-0.1,0-0.2,0-0.3c0-0.2,0-0.4,0-0.6c0,0,0.1,0,0.1-0.1c0.6-0.2,1.1-0.5,1.7-0.7c1.2-0.5,2.4-1,3.6-1.5c0.4-0.2,0.6-0.4,0.6-0.8
		c0-0.1,0-0.2,0-0.3c0-0.3,0-0.5,0-0.8c0,0,0-0.1,0-0.1c-0.3,0.1-0.6,0.2-0.9,0.4c-0.3,0.1-0.6,0.2-0.8,0.4
		c-0.3,0.1-0.6,0.2-0.8,0.4c-0.3,0.1-0.6,0.2-0.9,0.4c-0.3,0.1-0.6,0.2-0.8,0.4c-0.3,0.1-0.6,0.2-0.8,0.4c-0.3,0.1-0.6,0.2-0.9,0.4
		c0-0.1,0-0.1,0-0.1c0-0.2,0-0.5,0.1-0.7c0-0.2,0.1-0.4,0.4-0.5c0,0,0.1,0,0.1,0c1.4-0.6,2.9-1.2,4.3-1.8c0.6-0.2,1.1-0.5,1.7-0.7
		c0.1,0,0.2-0.1,0.3-0.2c0.2-0.2,0.3-0.3,0.3-0.6c0-0.3,0-0.6,0.1-0.9C83.7,83.8,83.7,83.7,83.7,83.5z M84.5,90.9
		C84.5,90.9,84.5,90.9,84.5,90.9c1.3-0.5,2.5-1,3.7-1.5c0.1,0,0.1-0.1,0.2-0.1c0.1-0.3,0.3-0.5,0.4-0.8c0-0.1,0.1-0.1,0.2-0.2
		c1.4-0.6,2.8-1.2,4.1-1.7c0,0,0.1,0,0.1,0c0.2,0.2,0.3,0.4,0.4,0.5c0.2-0.1,3.7-1.5,3.8-1.6c0-0.1-0.1-0.1-0.1-0.2
		c-1.2-1.5-2.4-2.9-3.6-4.4c-0.2-0.3-0.5-0.6-0.7-0.9c-0.1-0.1-0.2-0.2-0.4-0.2c-0.1,0-0.2,0-0.4,0.1c-0.6,0.3-1.2,0.5-1.9,0.8
		c-0.1,0-0.2,0.1-0.2,0.2c-1.1,1.8-2.1,3.7-3.2,5.5c-0.8,1.4-1.6,2.8-2.4,4.2C84.5,90.8,84.5,90.8,84.5,90.9z M61.4,94.7
		c0.2-0.1,0.3-0.1,0.5-0.2c0.2-0.1,0.4-0.1,0.5-0.2c0.2-0.1,0.3-0.1,0.5-0.2c0.2-0.1,0.3-0.1,0.5-0.2c0.2-0.1,0.3-0.1,0.5-0.2
		c0.2-0.1,0.4-0.2,0.5-0.2c0.2-0.1,0.3-0.2,0.5-0.2c0,0.1,0,0.2,0,0.2c0,0.4-0.1,0.9-0.1,1.3c0,0.4-0.1,0.8-0.1,1.2
		c0,0.4-0.1,0.9-0.1,1.3c0,0.4-0.1,0.8-0.1,1.2c0,0.2,0,0.5,0,0.7c0,0,0,0.1,0,0.1c0.1,0,0.1,0,0.1,0c1-0.4,2.1-0.9,3.1-1.3
		c0,0,0.1,0,0.1-0.1c0-0.1,0-0.2,0-0.3c0-0.2,0-0.5,0-0.7c0-0.4,0.1-0.9,0.1-1.3c0-0.4,0.1-0.8,0.1-1.1c0-0.4,0.1-0.8,0.1-1.2
		c0-0.4,0.1-0.9,0.1-1.3c0-0.1,0-0.1,0-0.2c0.1,0,0.1-0.1,0.2-0.1c1-0.4,2-0.9,3-1.3c0.1,0,0.2-0.1,0.3-0.1c0.2-0.2,0.3-0.3,0.3-0.6
		c0-0.1,0-0.3,0-0.4c0-0.2,0-0.5,0-0.7c0,0,0-0.1,0-0.1c-0.1,0-10.6,4.4-10.8,4.5C61.4,93.3,61.3,94.5,61.4,94.7z"/>
	<path d="M91.2,84.2c0.1,0.1,0.8,0.9,0.9,1c-0.6,0.3-1.3,0.5-1.9,0.8c0,0,0,0,0,0c0,0,0,0,0,0c0.3-0.6,0.6-1.1,1-1.7
		C91.2,84.2,91.2,84.2,91.2,84.2C91.2,84.2,91.2,84.2,91.2,84.2z"/>
</g>
<path d="M112.2,71.8c0,0.9,0.1,1.8,0,2.8c-0.1,2.1-0.3,3.9-0.7,5.6c-2.3,1-4.6,1.9-7,2.9c-3.7,1.6-7.4,3.2-11.1,4.8
	c-0.3-0.1-0.7-0.2-1-0.3C91.3,88,90.2,88.5,89,89c-0.2,0.3-0.3,0.7-0.5,1c-3.4,1.4-6.9,2.8-10.3,4.2c-0.5,0.5-0.9,1.1-1.4,1.6
	c2.3-0.7,4.7-1.5,7-2.2c1.5,0.1,3,0.3,4.5,0.4c0.4-0.9,0.9-1.8,1.3-2.8c4.7-1.4,9.5-2.7,14.2-4.1c3.3-1.9,6.5-3.7,9.8-5.6
	c0.8-0.6,1.6-1.3,2.4-1.9c-0.2-1.4-0.4-2.8-0.6-4.2c-0.2-1.6-0.5-3.2-0.7-4.7C113.9,71.1,113.1,71.4,112.2,71.8z"/>
</svg>
