<svg xmlns="http://www.w3.org/2000/svg" xml:space="preserve" viewBox="0 0 248 152"><path d="M136 13.6c1.8-.8 3-1.1 3.1-1.1l-28 4.8c-13.6 1.7-25.8 3.4-36.4 5-19.7 2.9-27 4.4-27.3 4.5l-.6.1-12.1 13c-1.4-.3-3.6-.6-5 0-1.2.5-1.9 1.9-2.3 3.4C18 47.4 6.8 52.4 5.7 53.5 4 55.2 3.3 62.8 3.4 63.6c.1.7.5 1.3 4 5.4.7.8 1.6 1.9 1.8 2.2.1.1.2.4.3.7 1.4 3.5 2.1 4.7 3.1 5.1.5.2 1.3.3 8.8.3.6.6 3.8 4 6 5.7 3.9 2.9 8.7 4 8.9 4l2.7.6-1.7-2.2c0-.1-4.1-5.4-4.5-10.9.2-.1.5-.2.8-.3s.7-.2 1-.4c1 .9 3.9 3.4 4.6 4.2.8 1 2.9 2.8 2.9 2.8s.1-1.4.2-3.1c2.1 3 7.2 10.5 9.7 15.6-1.7-1.5-3.8-2.6-3.8-2.6s1 4 1.1 5c.1.5.3 2.5.5 4.1-2.7-1.3-7.5-3.7-10.7-5.7l-2-1.2.5 2.3c0 .2 1 4.5 1.9 6.6.4.9 1 1.8 1.6 2.6l-.9.2c-.4.1-.7.2-1.1.3-.2.1-.4.1-.6.2-.1 0-.2.1-.4.2-.1 0-.1.1-.2.1s-.1 0-.2.1l-.1.1s-.1 0-.2.1-.2.2-.2.3-.1.1-.1.1l-.1.1c-.1.1-.1.2-.1.3-.1.1-.1.2-.1.3-.1.3-.1.4-.1.5v2.2c0 .8.1 1.6.2 2.5 0 .2.1.5.2.9 0 .1.1.2.2.4.1.1.1.2.3.4l.2.2c.1.1.2.1.2.1l.1.1.2.1.1.1.2.1c.4.2.8.3 1.1.5.5.2.9.4 1.4.5l1.9 4.3.2.5.5.3c.7.4 1.3.7 1.9 1s1.3.6 1.9.9c1.3.6 2.6 1.1 4 1.5 1.3.5 2.7.9 4.1 1.2 1.1.2 2.1.4 3.3.5.1-.7.4-1.3.6-2v-.2c.1-.4.2-.8.2-1.1-.2-.1-.3-.3-.2-.6 0-.3.1-.5.1-.8-.2.3-.4.7-.6 1-2.1-.2-4.3-.8-6.4-1.5-1.2-.4-2.5-.9-3.6-1.4-.6-.3-1.2-.5-1.8-.8l-1.2-.6-1.2-2.7c.2-.3.5-.7.7-.9.6-.6 8.2-5.3 8.4-5.4l-10.4 3.9-.6-.2c-.7-.3-1.4-.5-2.1-.8-.1-.2-.3-.4-.4-.6 0-.4-.1-.9-.1-1.3v-1c.3-.1.5-.2.8-.2l2.2-.6c1.5-.4 2.9-.7 4.4-1.2.4-.1.7-.2 1.2-.4.1 0 .2-.1.4-.1l.2-.1.1-.1h.1l.1-.1.1-.1h.1l.5-.3 1.8-1.4 3.6-2.8 7.2-5.5.7-.5v-.9c-.2.1-.4.1-.7.2-.4.1-.8.3-1.1.5-.4.2-.8 0-1-.4-.5-.2-.6-1-.1-1.2h.1c-.5-.3-.3-1.2.4-1.3.7 0 1.3-.3 1.9-.5.1 0 .3-.1.4-.1-.1-1.5-.4-2.9-.8-4.3-.3-1.1-.7-2.2-1.1-3.3s-.8-2.2-1.3-3.2c-.9-2.1-2-4.2-3.1-6.1-1.2-2-2.4-3.9-3.8-5.7.9 2.1 1.6 4.2 2.4 6.3.7 2.1 1.3 4.2 1.9 6.3-6.5-6.5-15.4-13-16.6-13.3-.7-.2-.8-.2-8.8 2.6-3.3 1.1-7.7 2.7-8.6 2.9h-9.7c-.4-.8-1.1-2.5-1.4-3.1-.2-.5-.3-.8-.4-1-.2-.4-.6-.9-2.3-2.9-.2-.3-.5-.6-.8-1 2.4-1.3 6.5-4.2 6.9-4.5.2-.3.6-1.4.9-2.4.5-.3.8-.6 1-.7.7-.4 19.5-6.1 19.5-6.1l12.3-2.6c2.4-2.1 9.5-9.8 9.5-9.8s-3.4.7-14.4 5.3c-4.1 1.7-8.5 3.7-9 4.1-.4.3-15.2 6.4-22.4 8.2-2.3 0-4.3-.1-5.7-.1.1-.4.2-.8.4-1 1.5-1 10.7-5.1 19.4-9h3c0-1.5.3-3.3.6-3.9.7-.1 2.3.1 3.6.4l1.1.3 12.7-13.7c.7-.1 1.9-.4 3.9-.7 1.8 1 5.5 3.3 7.1 5.7 0 0 .6-4.9-1.1-6.7 1.6-.3 3.5-.6 5.6-.9 1.8 1 5.5 3.3 7.1 5.7 0 0 .6-4.7-1-6.6 1.5-.2 3.2-.5 4.9-.7.2 0 .5-.1.7-.1 1.9 1.2 4.4 3 5.7 4.8 0 0 .4-3.4-.4-5.6 8.3-1.2 17.5-2.4 27.4-3.7.1.1.1.3 0 .5-.4 1.1-9.5 8.4-11.2 8.8s-4.9.8-6.8 1.7c-2.5 1.2-3.5 3.9-3.5 4.1.1-.2 1.4-3 4.4-3.8s5.8-.3 8.7-2.1 12.1-7.4 13.5-7.5c.6-.1.6.9.4 2l-12.1 13 26.8-6.2c-1.4 3.9-4.2 11.2-7.9 19.2-3.4 4.9-7.6 10.2-11.6 12.9-.9-1.2-1.8-2.3-2.7-3.5-1.2-1.6-2.3-3.2-3.4-4.9.2-.4.5-.8.7-1.2.5-.7.9-1.5 1.5-2.2 1-1.5 2.1-2.9 3.2-4.3s2.3-2.7 3.6-4c1.2-1.3 2.5-2.6 3.9-3.8-1.5 1-3 2-4.5 3.1s-2.9 2.2-4.3 3.4c-.9.8-1.8 1.6-2.7 2.5-1.2 1.1-2.7 2.5-4 4-3 3.4-2.8 5.7-2.8 5.7 3 5.4 6.9 11.4 9.4 15v-.3h.8v-.9h.6v-.9h2.2v-.5h1.9v1.1h-.1v.7h1v4.3h-1.7v3.2h-1v1.1h-3v-.4h-.4v.4h-.7v.7h-1.2v.4h-1c-3.5 3.4-7.2 6-10.4 7.9.4-.1.7-.2 1.1-.3.9-.5 1.8-.9 2.7-1.3.3-.2.9-.1 1 .3.2 0 .3-.1.5-.1.8-.2 1.2.9.5 1.2-.2.1-.4.3-.7.4.1.1.1.2.1.4 0 1.2-.2 2.4-.4 3.6.1.8-.1 1.6-.2 2.4v.3c.1.1.1.2.2.3.5 1.7.2 3.4 0 5.1 1.8-.4 3.7-.7 5.5-1l.6-.1q2.25-1.5 4.8-2.4c.9-.4 1.9-.7 2.8-1.1.8-.4 1.7-.8 2.6-.7.4.1.7.4.7.7.1 0 .2-.1.3-.1l-.2-1.8h1.3v-.5c-.3-.1-.5-.3-.5-.6 0-.5 0-1.1.1-1.6.1-1 .2-1.9.2-2.9-.2-.1-.4-.3-.4-.6v-1.5c-.3-.2-.4-.5-.2-.9.1-.1.1-.3.2-.4 0 0 0-.1.1-.1 0-.6.1-1.1.1-1.7v-.1c-.5-.2-.7-.9-.1-1.2.1 0 .1-.1.2-.1 0-.2.1-.3.1-.5v-.1c0-.2.1-.5.1-.7h-.1c-.6-.1-.6-1-.2-1.2.3-.2.5-.3.8-.4h.1c0-.3.2-.7.7-.7h.4c.1 0 .1-.1.2-.1s.1 0 .2-.1v-.1c.2-.4.6-.4.9-.3.6-.2 1.2-.4 1.8-.5 0-.1.1-.1.2-.2.3-.3.6-.5.9-.7-1.3-1-2.6-2-3.8-3-.6-.7-1.3-1.3-1.9-2L124 54c5.8-12.6 9.5-23.5 9.5-23.6l1-3.1-21.5 4.9 5.8-6.2c4.6-5.6 10.6-9.7 17.2-12.4m-87.5 88.7-.4.3c-.3.1-.6.2-1 .3-1.1.3-2.3.6-3.5.9-.7-.8-1.5-1.9-1.9-2.9-.5-1-.9-2.6-1.2-3.9 3.1 1.7 6.7 3.6 9 4.6zM31 75.1c.4 3.5 2 6.9 3.2 9-1.6-.6-3.7-1.5-5.6-2.9-1.4-1-3.2-2.8-4.4-4.1.8 0 2.2-.4 6.8-2"/><path d="M87.5 94c-.3.1-.5.2-.7.2.2 0 .4-.1.7-.2M45 62.9c-1-.4-8.4-1-8.4-1s9.2 3 14.1 7.4c0 0-4.7-6-5.7-6.4m-13.2-4.6s-1.2 2.8-12.9 5.4c0 0 9.8-1.8 12.3-3 2.4-1.3.6-2.4.6-2.4m-.6 5.8s-1.2 2.6-12.1 5c0 0 9.1-1.7 11.5-2.8 2.3-1.1.6-2.2.6-2.2M77 40.3l-14.9.3 8.1 2.5c-5.8 12.4-19.4 17.6-19.4 17.6C75.1 56 77 40.3 77 40.3m-8.9 23.8s3.2 9.2 2.3 23.1c0 0 4.6-9 5.7-21.2 0 0 8.5-11.3 10.5-24 .1.1-6 13.2-18.5 22.1m14.2 6.2s2.3 6.2 1.9 15.7c0 0 3-6.2 3.6-14.5 0 0 5.6-7.8 6.9-16.4 0 0-4 9-12.4 15.2m135-69.2L148.1 19l2.8-7.3zm27.3 7.1L134.1 55.5l6-15.6 2.5-6.5zm-95.2 59.5c.1 0 .2-.1.2-.1-.3-.3-.3-.8.2-1 1.7-.8 3.6-1.3 5.4-1.7-.1-.3.1-.7.5-.8 1-.3 2.1-.7 3.1-1 .4-.1.8-.2 1.1-.4 0-.2.1-.3.2-.5.7-.9 2-1.2 3-1.3.6-.1 1.2-.1 1.9-.1.6-.2 1.3-.5 1.9-.7.4-.2.8-.4 1.1-.6.2-.1.3-.1.4-.1s.1-.1.2-.1c.3-.3.6-.5.8-.7.7-.5 1.5-1 2.4-1 .3 0 .6.1.8.3l27.8-14.8-71.2 30 6.3 4.4c0-1.9.9-3.8 1.7-5.5.1-.2.3-.3.5-.3.1-.2.2-.5.5-.5 2-.7 4-1.1 6-1.6.3-.1.6.1.7.3.7-.3 1.4-.6 2.1-.8.6-.2 1.1-.4 1.7-.7.2-.3.4-.6.7-.7m-75.2 47.4c1.4-.6 2.9-1.2 4.3-1.8.4-.2.7-.6.7-1.1s0-1.1.1-1.6c0-.4-.3-.7-.7-.5-.5.2-.9.4-1.4.6s-.9.4-1.4.6-1.1.4-1.6.7c-1.5.6-3 1.2-4.5 1.9-.1 1.1-.1 2.2-.2 3.2.2-.1.5-.2.7-.3 1.5-.6 2.7-1.1 4-1.7m.7 11.3c-1.3.6-2.7 1.1-4 1.7-1.1.5-2.1.9-3.2 1.3 0 1.3-.1 2.7-.2 4 1-.4 2.1-.9 3.2-1.3 1.3-.6 2.7-1.1 4-1.7.3-.1.6-.5.6-.9 0-.9.1-1.8.1-2.7.1-.4-.1-.6-.5-.4m1.2-19.8c.5-.2.9-.4 1.4-.6s.9-.4 1.4-.6c.4-.2.7-.7.7-1.1 0-.5 0-1.1.1-1.6 0-.4-.3-.7-.7-.5-1.4.6-2.9 1.2-4.3 1.8-1.2.5-2.5 1.1-3.8 1.6-.2.1-.5.2-.7.3-.1 1.1-.1 2.2-.2 3.2 1.5-.6 3-1.2 4.5-1.9.5-.2 1-.4 1.6-.6"/><path d="M149.8 64.9c-.2.1-.3.2-.5.2l-1 .5v-.2l-13.9 5.8s.5 2.2.5 2.8.2 13.2.2 13.4-5.4 2.5-5.7 2.7c-.4.2-1.5-.6-1.5-.6s.2-15.3 1.3-16.1l-13.8 5.8-.1 1.8c-.1 1.9-.2 3.7-.2 5.6l-.2 5.7c0 .6-.1 1.2-.1 1.8l-.1 1.9h-1.2c-.5 0-1 .1-1.4.3l-11.3 4.7.2-3.6c0-.6.1-1.3.1-1.9l.1-2 .3-8.3L87.7 91v1.2L87 92c-.3 0-.5-.1-.7-.1-.7 0-1.3.1-2 .4l-24.7 10.3-.1 1.8-.3 6.3-.3 6.3-.4 9v1.2l-.1 2-.4 9.8c0 .5-.1 1-.1 1.5v1.8c0 .9-.1 1.8-.1 2.7l-.2 4.4 12.4-5.2.1-1.8c0-.5 0-.9.1-1.4l.1-1.5 1.5 1.4c.7.7 1.6 1.1 2.6 1.1.6 0 1.1-.1 1.7-.3l11.6-4.9 5.8-2.4 19.1-8 22.5-9.4.1-1.8c.1-1.1.1-2.2.2-3.3v-1.1l1 .6c1 .6 2 1.3 2.9 1.9h.1c.6.4 1.4.6 2.1.6.6 0 1.2-.1 1.8-.4l7.6-3.2v-.9l.7.1h.4c.6 0 1.2-.1 1.8-.4l16.7-7c2.2-.9 3.9-3.4 4-5.9 0-.5 0-.9.1-1.3l.1-2.7c0-.6 0-1.3.1-1.9l.1-1.9.1-3.2v-.4l.1-1.5v-1.4l.1-4.6.1-1.6.3-6-2.3 1v-2c0-.5 0-1 .1-1.5l.1-1.5.3-.2c1.2-.8 2.1-2.2 2.2-3.7 0-.5.1-1 .1-1.5v-.6c0-.5 0-.9.1-1.4L176 54zm-88.2 56.2c.1-1.3.1-2.6.2-4l.3-6.3.3-6.3c2.7-1.1 5.4-2.3 8.1-3.4 1.5-.6 3-1.2 4.5-1.9 3.5-1.4 6.9-2.9 10.4-4.4 1.5-.6 2.7.2 2.6 1.9-.1 1.6-.1 3.2-.2 4.8 0 .9-.5 2-1.1 2.8.6.3.9 1 .9 1.9-.1 1.6-.1 3.2-.2 4.8-.1 1.7-1.4 3.6-2.9 4.2-3.5 1.5-7 2.9-10.4 4.4-1.5.6-3 1.2-4.5 1.9-2.7 1.1-5.4 2.3-8.1 3.4 0-1.1 0-2.5.1-3.8m20.5 4.2c0 1.1-.1 2.2-.1 3.3-.1 1.4-1.1 3-2.3 3.5-.5.2-1 .4-1.6.7l1.8 1.8 1.8 1.8c-2.2.9-4.4 1.8-6.5 2.7-.1 0-.2.1-.3.1-.5.2-1 .2-1.3-.1-1-1-2.1-2-3.1-3.1l-3 1.2c0 .5 0 1-.1 1.5-.1 1.2-.1 2.5-.2 3.7-2.2.9-4.5 1.9-6.7 2.8.1-1.2.1-2.5.2-3.7 0-.8.1-1.6.1-2.3.1-1.8.2-3.6.2-5.4.1-1.8.2-3.6.2-5.4 2-.9 4.1-1.7 6.1-2.6.2-.1.4-.2.5-.2 1-.4 2.1-.9 3.2-1.3 3-1.2 6-2.5 9-3.8 1.2-.5 2.2.2 2.1 1.6.1 1 .1 2.1 0 3.2m8.9-1.1c-.1 2.8-.2 5.6-.4 8.4-2.2.9-4.5 1.9-6.7 2.8.1-2.8.2-5.6.4-8.4.1-2.8.2-5.6.4-8.4 2.2-.9 4.4-1.9 6.7-2.8-.1 2.7-.3 5.5-.4 8.4m-.7-12.2c-.5-.4-.7-1-.7-1.8.1-1.6.1-3.2.2-4.7.1-1.6.1-3.2.2-4.7v-.7c.1-1.2.1-2.4.2-3.6 0-1.2.1-2.4.2-3.6 2.7-1.1 5.4-2.2 8.1-3.4-.1 1.3-.1 2.6-.2 4-.1 1.3-.1 2.6-.2 3.9-.1 1.6-.1 3.1-.2 4.7 0 .8-.1 1.6-.1 2.4v.2c0 .3.3.5.6.3.4-.2.8-.4 1.2-.5.5-.2.9-.4 1.4-.6.1-.1.3-.1.4-.2s.3-.1.4-.2l1.5-.6c.7-.3 1.3-.5 2-.8.4-.2.7-.3 1.1-.5.2-.1.3-.1.4-.2.6-.3 1.2-.5 1.9-.8l1.5-.6c.4-.2.8-.3 1.1-.5.6-.2 1.1-.5 1.7-.7s1 .1 1 .7-.1 1.3-.1 1.9c0 .5 0 1.1-.1 1.6-.4.2-.8.3-1.2.5-.5.2-1.1.5-1.6.7-2.7 1.1-5.4 2.2-8 3.4l-1.5.6c-.7.3-1.5.6-2.2.9-.5.2-.9.4-1.4.6-.1 0-.2.1-.2.1-.9.4-1.7.7-2.6 1.1-1.1.4-2.1.9-3.1 1.3-.5.3-1.2.2-1.7-.2m24.2-4.7c0 .5 0 1.1-.1 1.6 0 .5-.4 1.1-.9 1.3s-.9.4-1.4.6l-.6.3c-2.5 1-4.9 2.1-7.4 3.1h-.1c-1 .4-2 .8-3 1.3-.3.1-.6.5-.6.9 0 .5 0 .9-.1 1.3 0 .3.2.5.5.4 1-.4 2-.9 3.1-1.3h.1c2.7-1.1 5.3-2.2 8-3.3 1.2-.5 2.2.2 2.1 1.6 0 .9-.1 1.8-.1 2.6 0 .9-.1 1.8-.1 2.6-.1 1.4-1.1 3-2.3 3.5-2.7 1.1-5.3 2.2-8 3.4h-.1c-2.7 1.1-5.3 2.2-8 3.3-.5.2-1.1.5-1.6.7l-.6.3c0-.4 0-.9.1-1.3 0-.5.1-1.1.1-1.6s.4-1.1.9-1.3.9-.4 1.4-.6l.6-.3c2.5-1 4.9-2.1 7.4-3.1h.1c1-.4 2-.8 3-1.3.3-.1.6-.5.6-.9 0-.5 0-.9.1-1.3 0-.3-.2-.5-.5-.4-1 .4-2 .9-3.1 1.3h-.1c-2.7 1.1-5.3 2.2-8 3.3-1.2.5-2.2-.2-2.2-1.6 0-.9.1-1.8.1-2.6 0-.9.1-1.8.1-2.6.1-1.4 1.1-3 2.4-3.5 2.7-1.1 5.3-2.2 8-3.3h.1c2.7-1.1 5.3-2.2 8-3.4.5-.2 1.1-.5 1.6-.7l.6-.3c-.1.5-.1.9-.1 1.3m2.9-8.7c.1-1.4.1-2.9.2-4.3 0-.6 0-1.2.1-1.8.1-1.9.2-3.8.2-5.6.1-1.9.2-3.8.2-5.7 2.7-1.1 5.4-2.3 8.1-3.4-.1 1.9-.2 3.8-.2 5.7-.1 1.9-.2 3.8-.2 5.6 0 .6-.1 1.2-.1 1.8s-.1 1.3-.1 1.9c0 .4.3.7.7.5 1-.4 2-.9 3.1-1.3 2.2-.9 4.3-1.8 6.5-2.7.4-.2.7-.6.7-1.1 0-.4 0-.9.1-1.3 0-.8.1-1.6.1-2.4.1-1.9.2-3.8.2-5.7.1-1.9.2-3.8.2-5.6 2.7-1.1 5.4-2.3 8.1-3.4-.1 1.9-.2 3.8-.2 5.7-.1 1.9-.2 3.8-.2 5.7 0 .8-.1 1.6-.1 2.4-.1 1.2-.1 2.5-.2 3.7-.1 1.7-1.4 3.6-2.9 4.2-4.2 1.8-8.4 3.5-12.5 5.3-3.1 1.3-6.1 2.6-9.1 3.8-1.6.6-2.8-.3-2.7-2m6 12c-.1 2.8-.2 5.6-.4 8.4-2.2.9-4.5 1.9-6.7 2.8.1-2.8.2-5.6.4-8.4.1-2.8.2-5.6.4-8.4 2.2-.9 4.4-1.9 6.7-2.8-.2 2.8-.3 5.6-.4 8.4m24.9-10.4c-.1 2.8-.2 5.6-.4 8.4-2 .8-4 1.7-5.9 2.5-.5.2-1 .2-1.4 0-1.3-.9-2.7-1.7-4-2.6s-2.7-1.7-4-2.6c-.1 1.5-.1 3.1-.2 4.6s-.1 3.1-.2 4.6c-2.2.9-4.5 1.9-6.7 2.8.1-2.8.2-5.6.4-8.4.1-2.8.2-5.6.4-8.4 2-.8 3.9-1.6 5.9-2.5.5-.2 1-.2 1.4 0 1.3.9 2.7 1.7 4 2.6s2.7 1.7 4 2.6c.1-1.5.1-3.1.2-4.6s.1-3.1.2-4.6c2.2-.9 4.4-1.9 6.7-2.8-.1 2.8-.3 5.6-.4 8.4m23.8-17c0 .5-.1 1.1-.1 1.6s-.4 1.1-.9 1.3-.9.4-1.4.6c-1.3.5-2.5 1.1-3.7 1.6-.4.2-.8.4-1.3.5-1 .4-2.1.9-3.1 1.3h-.1c-1.2.5-2.3 1-3.4 1.4-.3.1-.5.4-.6.7v.2c-.1 1.3-.1 2.6-.2 3.9s-.1 2.6-.2 3.9v.1c0 .3.3.4.5.3 1.2-.5 2.3-1 3.4-1.4 1.1-.5 2.1-.9 3.2-1.3.2-.1.4-.3.5-.6 0-.1.1-.2.1-.3 0-.6 0-1.2.1-1.8V95c-1.3.5-2.5 1.1-3.8 1.6-.3.1-.6.2-.8.3-.5.2-.8-.1-.8-.6 0-1 .1-1.9.1-2.9.5-.2 1.1-.5 1.7-.7 2-.8 4-1.7 6-2.5 1.5-.6 2.9-1.2 4.4-1.9 0 1.3-.1 2.6-.2 3.8v.2c0 .8-.1 1.6-.1 2.3 0 .5 0 .9-.1 1.4-.1 1.4-1.1 3-2.3 3.5-.9.4-1.7.7-2.6 1.1-1.9.8-3.8 1.6-5.6 2.4-2.8 1.2-5.6 2.4-8.5 3.5-1.2.5-2.2-.2-2.2-1.6 0-.5 0-1 .1-1.4.1-1.7.1-3.4.2-5.2.1-1.7.2-3.5.2-5.2.1-1.4 1.1-3 2.3-3.5.9-.4 1.7-.7 2.6-1.1 1.9-.8 3.9-1.6 5.9-2.5h.1c1.1-.5 2.2-.9 3.3-1.4.4-.2.7-.3 1.1-.5s.8-.3 1.2-.5c.9-.4 1.7-.7 2.6-1.1.7-.3 1.5-.6 2.2-.9.3.8.2 1.2.2 1.6m.9-23.4c0 .6-.1 1.3-.1 1.9s-.5 1.4-1.1 1.6-1.1.5-1.7.7c-.4.2-.8.3-1.2.5l-1.5.6c-.6.3-1.2.5-1.9.8-.2.1-.3.1-.4.2-.4.2-.7.3-1.1.5-.7.3-1.3.5-2 .8s-1.5.6-2.2.9c-.2.1-.3.1-.4.2-.5.2-.9.4-1.4.6-.4.2-.8.4-1.2.5-.3.1-.6.5-.7.9v.2c0 .8-.1 1.6-.1 2.4.6-.3 1.2-.5 1.9-.8l2.1-.9c.7-.3 1.4-.6 2-.9l3-1.2c1.4-.6 2.9-1.2 4.3-1.8.4-.2.8-.3 1.2-.5 0 .5-.1 1.1-.1 1.6 0 .6-.1 1.3-.1 1.9s-.5 1.4-1.1 1.6-1.2.5-1.7.7c-.4.2-.8.3-1.2.5-.5.2-1.1.4-1.6.7-1.7.7-3.3 1.4-5 2.1l-2.1.9c-.3.1-.6.3-.9.4s-.6.3-1 .4c0 .8-.1 1.6-.1 2.4v.2c.1.3.3.5.7.3s.8-.3 1.2-.5c.5-.2.9-.4 1.4-.6 1.6-.7 3.2-1.3 4.8-2 .3-.1.6-.2.9-.4 1.7-.7 3.3-1.4 5-2.1.5-.2 1.1-.4 1.6-.7.4-.2.8-.3 1.2-.5 0 .5-.1 1.1-.1 1.6 0 .6-.1 1.3-.1 1.9s-.5 1.4-1.1 1.6-1.1.5-1.7.7c-.4.2-.8.3-1.2.5-.5.2-1 .4-1.6.6-3.1 1.3-6.2 2.6-9.4 3.9l-4.2 1.8c-1.1.4-2.1.9-3.1 1.3-1.5.6-2.7-.2-2.6-1.9 0-.6.1-1.2.1-1.7l.3-6.3.3-6.3c0-.8.4-1.7.9-2.5s1.2-1.4 2-1.8c1-.4 2.1-.9 3.1-1.3.9-.4 1.7-.7 2.6-1.1.1 0 .1-.1.2-.1.5-.2.9-.4 1.4-.6.7-.3 1.4-.6 2.2-.9.6-.3 1.2-.5 1.8-.8 2.7-1.1 5.3-2.2 8.1-3.4.5-.2 1.1-.4 1.6-.7.4-.2.8-.3 1.2-.5 0 .9-.1 1.4-.1 1.9"/><path d="m128.6 89.4 5.3-2.2v-1.6c0-.4.1-2.2.1-2.8l.5-11.5-5.2 2.2-.5 9.9zm43.7-30-.2.1h-.1c.2 0 .3 0 .3-.1"/><path d="M127.3 77.1c.3-.7.5-1.2.6-1.6 0 0 .2-.9.6-1.2l.5-.5.2-.2h.3c.4-.1.9-.2 1.3-.2.4-.1.9-.3 1.3-.4.4-.2.8-.4 1.3-.6 1.3-.4 2.6-.8 3.8-1.1 3.2-1.1 6.4-2.1 9.6-3.2-3.6 1.7-7.3 3.4-11 5.1l-.3 5.4c.1 3.3.2 6.5.3 9.8-3 1.3-6.1 2.6-9.1 3.9.3-5.2.5-10.2.6-15.2m-24.1 7.3c-.1-.1-.1-.2-.2-.2v.3c-.1.1-.1.1-.2.1-1.1.4-2.1.9-3.2 1.3-2 .9-4.1 1.7-6.1 2.6-.1 0-.1 0-.2.1l-.5-.5h-.1c-1 .4-1.9.8-2.9 1.2-.1 0-.1.1-.2.2-.1.2-.3.5-.4.7l-.2.2c-1.1.4-2.1.9-3.2 1.3-3.7 1.6-7.5 3.2-11.2 4.7-1.7.7-3.5 1.4-5.2 2.2-2 .9-4 1.7-6 2.5-.1 0-.1.1-.2.1 0-.3 0-.6.1-.9 0-.3 0-.6.1-.9s0-.6.1-.9c0-.3 0-.6.1-.9 0-.3 0-.6.1-.9 0-.3 0-.6.1-.9 0-.3 0-.6.1-.9h-.1c-.6.3-1.3.5-1.9.8l-1.5.6h-.1c.1-1.5.2-3 .3-4.6 0-.1.1-.1.2-.1 1-.4 2-.8 3-1.3 3.4-1.4 6.7-2.8 10.1-4.2l11.4-4.8c.1 0 .1 0 .2-.1v5.6h.1c0-.1.1-.1.1-.2 1.4-2.4 2.7-4.8 4.1-7.1.1-.1.1-.2.2-.2.8-.3 1.5-.6 2.3-1 .3-.1.6-.2.9-.2q.75 0 1.2.6c.1.1.2.3.4.4.2.3.5.5.7.8.7.9 1.4 1.7 2.2 2.6l.1.1v-.1c0-.3 0-.6.1-1 0-.4.1-.8.1-1.3v-.6c0-.6.1-1.3.1-1.9 0-.4.1-.8.1-1.2 0-.3 0-.6.1-.8 0 0 .1 0 .1-.1 1.2-.5 2.3-1 3.5-1.5.2-.1.5-.2.8-.2.6 0 1.1.2 1.4.7.2.3.4.6.7.9.2.3.4.6.6.8l.1.1c.1 0 .1-.1.1-.1.3-.6.6-1.2.9-1.7.4-.7.8-1.4 1.2-2.2.1-.2.3-.5.5-.7.3-.3.6-.5 1-.7 1.4-.6 2.9-1.2 4.3-1.8.1 0 .2-.1.3-.1h.1c-.2 3.5-.5 7.1-.7 10.6 0 .1-.1.1-.2.1l-2.1.9c-2.3 1-4.6 1.9-7 2.9-.6.8-.6.8-.7.8m8.2-4.8s0-.1 0 0c0-.3 0-.5.1-.7 0-.4.1-.9.1-1.3s.1-.8.1-1.2.1-.8.1-1.2.1-.8.1-1.2c0-.7.1-1.4.1-2.1v-.1h-.1c-.9.4-1.8.8-2.8 1.2-.2.1-.3.2-.4.3s-.3.3-.4.5c-.7 1.2-1.3 2.5-2 3.7-.3.6-.7 1.3-1 1.9 0 .1 0 .1-.1.2 0-.1-.1-.1-.1-.1-.5-.7-1.1-1.5-1.6-2.2-.3-.4-.5-.7-.8-1.1-.1-.2-.3-.2-.5-.2-.1 0-.2 0-.3.1-.9.4-1.8.8-2.8 1.2 0 0-.1 0-.1.1-.2 2.6-.3 5.2-.5 7.8.2 0 .3-.1.5-.2s.3-.1.5-.2.3-.1.5-.2.3-.1.5-.2.3-.1.5-.2.3-.1.5-.2.3-.1.5-.2c.1-1 .1-1.9.2-2.9l.1.1c.5.7 1 1.3 1.5 2l.1.1h.1c.8-.3 1.5-.6 2.3-.9.1 0 .1-.1.2-.2.6-1 1.1-2.1 1.7-3.1.1-.2.2-.3.3-.5 0 0 0-.1.1 0 0 .3 0 .6-.1 1 0 .3 0 .7-.1 1 0 .3-.1.6-.1 1 .1 0 .1 0 .1-.1.8-.8 1.9-1.3 3-1.7m-27.7 3.9c-.1 0-.1 0-.2.1-3 1.2-5.9 2.5-8.9 3.8-.6.3-1 .7-1.2 1.4v.2c0 .2 0 .4-.1.6 0 .6-.1 1.3-.1 1.9 0 .7-.1 1.5-.1 2.2 0 .2 0 .5-.1.7v.4c0 .4.3.6.7.6.2 0 .3-.1.5-.1 2.7-1.1 5.3-2.2 8-3.4l.6-.3c.3-.1.5-.4.5-.7 0-.4.1-.8.1-1.2v-.1h-.2c-.3.1-.6.2-.8.4-1.8.8-3.7 1.5-5.5 2.3 0 0-.1 0-.1.1-.2 0-.3 0-.3-.2v-.9s.1 0 .1-.1c.6-.2 1.1-.5 1.7-.7l3.6-1.5c.4-.2.6-.4.6-.8V87c-.3.1-.6.2-.9.4-.3.1-.6.2-.8.4-.3.1-.6.2-.8.4-.3.1-.6.2-.9.4-.3.1-.6.2-.8.4-.3.1-.6.2-.8.4-.3.1-.6.2-.9.4v-.1c0-.2 0-.5.1-.7 0-.2.1-.4.4-.5h.1c1.4-.6 2.9-1.2 4.3-1.8.6-.2 1.1-.5 1.7-.7.1 0 .2-.1.3-.2.2-.2.3-.3.3-.6s0-.6.1-.9c-.2-.5-.2-.6-.2-.8m.8 7.4c1.3-.5 2.5-1 3.7-1.5.1 0 .1-.1.2-.1.1-.3.3-.5.4-.8 0-.1.1-.1.2-.2 1.4-.6 2.8-1.2 4.1-1.7h.1c.2.2.3.4.4.5.2-.1 3.7-1.5 3.8-1.6 0-.1-.1-.1-.1-.2-1.2-1.5-2.4-2.9-3.6-4.4-.2-.3-.5-.6-.7-.9-.1-.1-.2-.2-.4-.2-.1 0-.2 0-.4.1-.6.3-1.2.5-1.9.8-.1 0-.2.1-.2.2-1.1 1.8-2.1 3.7-3.2 5.5l-2.4 4.2zm-23.1 3.8c.2-.1.3-.1.5-.2s.4-.1.5-.2c.2-.1.3-.1.5-.2s.3-.1.5-.2.3-.1.5-.2.4-.2.5-.2c.2-.1.3-.2.5-.2v.2c0 .4-.1.9-.1 1.3s-.1.8-.1 1.2-.1.9-.1 1.3-.1.8-.1 1.2v.8h.1c1-.4 2.1-.9 3.1-1.3 0 0 .1 0 .1-.1v-1c0-.4.1-.9.1-1.3s.1-.8.1-1.1c0-.4.1-.8.1-1.2s.1-.9.1-1.3v-.2c.1 0 .1-.1.2-.1 1-.4 2-.9 3-1.3.1 0 .2-.1.3-.1.2-.2.3-.3.3-.6v-1.2c-.1 0-10.6 4.4-10.8 4.5.2.3.1 1.5.2 1.7"/><path d="M91.2 84.2c.1.1.8.9.9 1-.6.3-1.3.5-1.9.8.3-.6.6-1.1 1-1.7z"/><path d="M112.2 71.8c0 .9.1 1.8 0 2.8-.1 2.1-.3 3.9-.7 5.6-2.3 1-4.6 1.9-7 2.9l-11.1 4.8c-.3-.1-.7-.2-1-.3-1.1.4-2.2.9-3.4 1.4-.2.3-.3.7-.5 1-3.4 1.4-6.9 2.8-10.3 4.2-.5.5-.9 1.1-1.4 1.6 2.3-.7 4.7-1.5 7-2.2 1.5.1 3 .3 4.5.4.4-.9.9-1.8 1.3-2.8 4.7-1.4 9.5-2.7 14.2-4.1 3.3-1.9 6.5-3.7 9.8-5.6.8-.6 1.6-1.3 2.4-1.9l-.6-4.2c-.2-1.6-.5-3.2-.7-4.7-.8.4-1.6.7-2.5 1.1"/></svg>