<svg width="630" height="162" viewBox="0 0 630 162" fill="none" xmlns="http://www.w3.org/2000/svg">
<g clip-path="url(#clip0_375_18)">
<path d="M35.0498 159.653C33.6414 159.653 32.7024 158.865 32.2328 157.306L0.0811678 2.35939C-0.238095 0.800535 0.456771 0.0117188 2.18455 0.0117188H35.5569C36.9467 0.0117188 37.8857 0.800535 38.3552 2.35939L51.8583 96.041H52.5719L65.5678 2.35939C66.0372 0.800535 66.9761 0.0117188 68.3845 0.0117188H101.475C103.203 0.0117188 103.823 0.800535 103.353 2.35939L71.2017 157.306C70.7322 158.865 69.8681 159.653 68.6099 159.653H35.0311H35.0498Z" fill="black"/>
<path d="M155.335 2.35939C155.804 0.800535 156.743 0.0117188 158.152 0.0117188H194.529C196.088 0.0117188 197.027 0.800535 197.346 2.35939L231.62 157.306C232.089 158.865 231.47 159.653 229.742 159.653H197.346C195.787 159.653 194.848 158.865 194.529 157.306L190.303 132.177H161.908L157.457 157.306C157.137 158.865 156.293 159.653 154.884 159.653H122.263C120.704 159.653 120.065 158.865 120.385 157.306L155.335 2.35939ZM185.383 104.249L176.707 52.3741H176.237L166.847 104.249H185.383Z" fill="black"/>
<path d="M310.556 162.001C296.151 162.001 284.733 157.926 276.282 149.793C267.831 141.661 263.605 129.528 263.605 113.395V2.35939C263.605 0.800535 264.394 0.0117188 265.953 0.0117188H298.574C300.133 0.0117188 300.922 0.800535 300.922 2.35939V117.64C300.922 125.002 304.133 128.683 310.537 128.683C316.941 128.683 320.152 125.002 320.152 117.64V2.35939C320.152 0.800535 320.941 0.0117188 322.5 0.0117188H355.121C356.68 0.0117188 357.468 0.800535 357.468 2.35939V113.395C357.468 129.509 353.243 141.642 344.792 149.793C336.341 157.926 324.923 162.001 310.518 162.001H310.556Z" fill="black"/>
<path d="M398.355 2.35939C398.355 0.800535 399.143 0.0117188 400.702 0.0117188H434.732C436.462 0.0117188 437.55 0.800535 438.019 2.35939L462.658 91.3456H463.824V2.35939C463.824 0.800535 464.612 0.0117188 466.169 0.0117188H493.871C495.429 0.0117188 496.22 0.800535 496.22 2.35939V157.306C496.22 158.865 495.429 159.653 493.871 159.653H460.535C458.808 159.653 457.72 158.865 457.25 157.306L432.141 68.3198H430.732V157.306C430.732 158.865 429.943 159.653 428.384 159.653H400.684C399.125 159.653 398.336 158.865 398.336 157.306V2.35939H398.355Z" fill="black"/>
<path d="M564.976 159.653C563.419 159.653 562.627 158.865 562.627 157.306V34.7573C562.627 33.8182 562.161 33.3487 561.222 33.3487H534.93C533.368 33.3487 532.58 32.5599 532.58 31.001V2.35939C532.58 0.800535 533.368 0.0117188 534.93 0.0117188H627.646C629.203 0.0117188 629.995 0.800535 629.995 2.35939V31.001C629.995 32.5599 629.203 33.3487 627.646 33.3487H601.354C600.414 33.3487 599.944 33.8182 599.944 34.7573V157.306C599.944 158.865 599.156 159.653 597.599 159.653H564.976Z" fill="black"/>
</g>
<defs>
<clipPath id="clip0_375_18">
<rect width="630" height="162" fill="white"/>
</clipPath>
</defs>
</svg>
