<svg xmlns="http://www.w3.org/2000/svg" width="291" height="35" fill="none" viewBox="0 0 291 35"><path fill="#000" d="M250.973 1V0h.367l.28.238zM291 35l-11.359-2.074 7.475-8.8zm-4.289-3.643-.647.762-2.859-2.428.647-.762.648-.763 2.859 2.429zm-5.718-4.857-.647.762-2.859-2.428.647-.763.648-.762 2.859 2.429zm-5.718-4.857-.647.762-2.859-2.429.647-.762.647-.762 2.86 2.429zm-5.718-4.857-.647.762-2.859-2.429.647-.762.647-.762 2.859 2.429zm-5.718-4.857-.648.762-2.859-2.429.648-.762.647-.762 2.859 2.428zm-5.718-4.858-.648.763-2.859-2.429.648-.762.647-.762 2.859 2.428zm-5.718-4.857-.648.762-1.429-1.214.647-.762.647-.762 1.43 1.214zM250.973 1v1h-2.024V0h2.024zm-6.072 0v1h-4.048V0h4.048zm-8.096 0v1h-4.048V0h4.048zm-8.096 0v1h-4.048V0h4.048zm-8.096 0v1h-4.048V0h4.048zm-8.095 0v1h-4.048V0h4.048zm-8.096 0v1h-4.048V0h4.048zm-8.096 0v1h-4.048V0h4.048zm-8.096 0v1h-4.048V0h4.048zm-8.096 0v1h-4.048V0h4.048zm-8.096 0v1h-4.048V0h4.048zm-8.096 0v1h-4.048V0h4.048zm-8.096 0v1h-4.048V0h4.048zm-8.096 0v1h-4.048V0h4.048zm-8.096 0v1h-4.048V0h4.048zm-8.095 0v1h-4.048V0h4.048zm-8.096 0v1h-4.048V0h4.048zm-8.096 0v1h-4.048V0h4.048zm-8.096 0v1h-4.048V0h4.048zm-8.096 0v1h-4.048V0h4.048zm-8.096 0v1H87.03V0h4.048zm-8.096 0v1h-4.048V0h4.048zm-8.096 0v1H70.84V0h4.048zm-8.096 0v1h-4.048V0h4.048zm-8.096 0v1h-4.048V0h4.048zM50.6 1v1h-4.048V0H50.6zm-8.096 0v1h-4.047V0h4.047zm-8.096 0v1H30.36V0h4.047zm-8.095 0v1h-4.048V0h4.048zm-8.096 0v1h-4.048V0h4.048zM10.12 1v1H6.072V0h4.048zM2.024 1v1H0V0h2.024z"/></svg>