<svg xmlns="http://www.w3.org/2000/svg" width="201" height="29" fill="none" viewBox="0 0 201 29"><path fill="#000" d="M32.838 1V0h-.368l-.28.24zM0 29l11.355-2.095-7.492-8.786zm4.926-4.2.649.76 3.283-2.8L8.21 22l-.65-.76-3.283 2.8zm6.567-5.6.65.76 3.283-2.8-.649-.76-.648-.76-3.284 2.8zm6.568-5.6.649.76 3.284-2.8-.649-.76-.649-.76-3.284 2.8zM24.63 8l.649.76 3.284-2.8-.65-.76-.648-.76-3.284 2.8zm6.567-5.6.65.76 1.641-1.4-.649-.76-.648-.76-1.642 1.4zM32.839 1v1h2.002V0h-2.002zm6.006 0v1h4.004V0h-4.004zm8.008 0v1h4.004V0h-4.004zm8.008 0v1h4.003V0H54.86zm8.007 0v1h4.004V0h-4.004zm8.008 0v1h4.004V0h-4.004zm8.008 0v1h4.004V0h-4.004zm8.007 0v1h4.004V0H86.89zm8.008 0v1h4.004V0h-4.004zm8.008 0v1h4.004V0h-4.004zm8.007 0v1h4.004V0h-4.004zm8.008 0v1h4.004V0h-4.004zm8.008 0v1h4.004V0h-4.004zm8.007 0v1h4.004V0h-4.004zm8.008 0v1h4.004V0h-4.004zm8.008 0v1h4.004V0h-4.004zm8.008 0v1h4.003V0h-4.003zm8.007 0v1h4.004V0h-4.004zm8.008 0v1h4.004V0h-4.004zm8.008 0v1h4.003V0h-4.003zm8.007 0v1h4.004V0h-4.004zm8.008 0v1H201V0h-2.002z"/></svg>