<svg xmlns="http://www.w3.org/2000/svg" width="117" height="38" fill="none" viewBox="0 0 117 38"><g fill="#fff" clip-path="url(#a)"><path d="M50.7 37.452h-9.478L47.15.667h9.477zM85.058 1.566C83.188.822 80.223 0 76.557 0c-9.36 0-15.95 5.009-15.991 12.17-.078 5.283 4.719 8.218 8.306 9.98 3.667 1.8 4.914 2.974 4.914 4.579-.038 2.464-2.963 3.6-5.692 3.6-3.784 0-5.812-.585-8.893-1.956l-1.248-.588-1.326 8.257c2.223 1.017 6.318 1.919 10.57 1.958 9.945 0 16.42-4.931 16.496-12.562.038-4.188-2.495-7.397-7.955-10.018-3.315-1.684-5.346-2.818-5.346-4.54.04-1.566 1.718-3.17 5.46-3.17 3.08-.078 5.345.665 7.06 1.409l.857.39zM97.655 24.42c.78-2.113 3.784-10.292 3.784-10.292-.039.079.779-2.152 1.247-3.521l.662 3.17s1.795 8.804 2.185 10.643zM109.354.667h-7.331c-2.26 0-3.978.665-4.954 3.052L82.991 37.452h9.945l1.99-5.518h12.168c.272 1.291 1.131 5.518 1.131 5.518H117zm-76.048 0-9.282 25.084-1.014-5.088c-1.716-5.87-7.098-12.247-13.104-15.418l8.502 32.168h10.023L43.328.667z"/><path d="M15.405.667H.156L0 1.41c11.895 3.053 19.773 10.411 23.01 19.255L19.695 3.76c-.546-2.35-2.223-3.015-4.29-3.092"/></g><defs><clipPath id="a"><path fill="#fff" d="M0 0h117v38H0z"/></clipPath></defs></svg>