<svg width="41" height="35" viewBox="0 0 41 35" fill="none" xmlns="http://www.w3.org/2000/svg">
<path d="M28 18C28.5523 18 29 17.5523 29 17C29 16.4477 28.5523 16 28 16V18ZM11.2929 16.2929C10.9024 16.6834 10.9024 17.3166 11.2929 17.7071L17.6569 24.0711C18.0474 24.4616 18.6805 24.4616 19.0711 24.0711C19.4616 23.6805 19.4616 23.0474 19.0711 22.6569L13.4142 17L19.0711 11.3431C19.4616 10.9526 19.4616 10.3195 19.0711 9.92893C18.6805 9.53841 18.0474 9.53841 17.6569 9.92893L11.2929 16.2929ZM28 16L12 16V18L28 18V16Z" fill="white"/>
<rect x="0.5" y="0.5" width="40" height="34" rx="1.5" stroke="white"/>
</svg>
