<svg width="135" height="30" viewBox="0 0 135 30" fill="none" xmlns="http://www.w3.org/2000/svg">
<path d="M85.3387 8.19336V11.8747H79.4481V21.6781H74.5158V11.8747H68.6445L69.4077 8.19336H85.3368H85.3387Z" fill="white"/>
<path d="M107.297 8.19336V21.6781H102.365V14.4835L98.7829 20.4587H95.6705L92.0886 14.4835V21.6781H87.1562V8.19336H92.8111L97.2141 15.7879L101.636 8.19336H107.291H107.297Z" fill="white"/>
<path d="M127.57 17.703C127.57 20.7543 125.456 21.68 123.167 21.68H114.224C111.934 21.68 109.996 19.85 109.703 17.388H114.732C115.006 18.0199 115.613 18.418 116.258 18.418C117.021 18.418 121.19 18.4393 121.19 18.4393C121.542 18.4393 122.502 18.3136 122.502 17.388C122.502 16.4624 121.523 16.3367 121.19 16.3367H114.007C111.699 16.3367 109.585 15.243 109.585 12.1704C109.585 9.09775 111.699 8.19336 113.988 8.19336H122.873C125.162 8.19336 127.1 10.0234 127.394 12.4641L122.365 12.4854C122.091 11.8534 121.484 11.4341 120.839 11.4341H115.966C115.595 11.4341 114.654 11.5597 114.654 12.4854C114.654 13.411 115.632 13.5154 115.966 13.5154H123.149C125.458 13.5154 127.572 14.6304 127.572 17.703H127.57Z" fill="white"/>
<path d="M124.189 0.748047H10.8011C4.86412 0.748047 0.0341797 5.5792 0.0341797 11.5176V18.3605C0.0341797 24.2989 4.86412 29.1301 10.8011 29.1301H124.189C130.124 29.1301 134.954 24.2989 134.954 18.3605V11.5176C134.954 5.5792 130.124 0.748047 124.189 0.748047ZM133.795 18.3605C133.795 23.6593 129.486 27.9706 124.189 27.9706H60.364L63.8242 14.9381L67.2824 1.90752H124.189C129.486 1.90752 133.795 6.21884 133.795 11.5176V18.3605Z" fill="url(#paint0_linear_4449_14398)"/>
<path d="M58.7445 18.1165L48.6461 18.1049C48.5707 18.1049 48.4973 18.0739 48.4432 18.0198C48.3891 17.9657 48.3582 17.8923 48.3582 17.815V8.65899C48.3582 8.62034 48.3505 8.58362 48.337 8.54691C48.3235 8.51212 48.3022 8.47927 48.2752 8.45222C48.2481 8.42516 48.2172 8.4039 48.1824 8.38844C48.1476 8.37299 48.109 8.36719 48.0723 8.36719H44.6141C44.5754 8.36719 44.5387 8.37492 44.5039 8.38844C44.4692 8.4039 44.4363 8.42516 44.4112 8.45222C44.3842 8.47927 44.3629 8.51212 44.3494 8.54691C44.3359 8.58169 44.3281 8.62034 44.3281 8.65899V21.1833C44.3281 21.2606 44.359 21.334 44.4131 21.3881C44.4672 21.4422 44.5406 21.4731 44.616 21.4731H57.9331C57.9872 21.4731 58.0413 21.4557 58.0838 21.4229C58.1282 21.39 58.1592 21.3437 58.1727 21.2896L58.9899 18.4392C58.9996 18.4005 59.0015 18.3619 58.9957 18.3232C58.988 18.2846 58.9725 18.2479 58.9493 18.2169C58.9261 18.186 58.8952 18.1609 58.8605 18.1435C58.8257 18.1261 58.787 18.1165 58.7484 18.1165H58.7445Z" fill="#0E0F15"/>
<path d="M42.1564 15.7435C41.8975 15.413 41.5671 15.1425 41.202 14.9434C41.1672 14.9318 41.1305 14.8971 41.1073 14.8603C41.0841 14.814 41.0726 14.7773 41.0726 14.7309C41.0726 14.6845 41.0841 14.6362 41.1073 14.6014C41.1305 14.5666 41.1653 14.5299 41.202 14.5067C41.2484 14.4835 41.3083 14.4352 41.3546 14.4004C41.5787 14.2478 41.7661 14.0584 41.9207 13.8342C42.2974 13.3047 42.4984 12.6689 42.4732 12.008C42.4848 11.4669 42.367 10.9239 42.1197 10.4408C41.8724 9.98088 41.5188 9.59246 41.0841 9.31032C40.6012 8.97987 40.0486 8.75764 39.4709 8.62816C38.789 8.4755 38.0819 8.3924 37.3632 8.404H26.801C26.6368 8.404 26.4707 8.46197 26.3296 8.55666C26.2002 8.66295 26.1055 8.81561 26.0592 8.97987L24.9869 12.9491C24.7976 13.6796 24.6218 14.327 24.4691 14.9048C24.3861 15.2101 24.3165 15.5174 24.245 15.8111C24.2334 15.8691 24.2103 15.9058 24.1736 15.9406C24.1272 15.9754 24.0789 15.9986 24.0325 16.0121C23.9726 16.0121 23.9263 16.0005 23.8799 15.9773C23.8335 15.9541 23.7968 15.9058 23.7736 15.8594C23.6674 15.6353 23.5379 15.3763 23.3969 15.0942C23.2559 14.812 23.0916 14.5048 22.9139 14.1647C22.7246 13.8226 22.514 13.411 22.2667 12.9627L20.5356 9.66589C20.4062 9.38375 20.2304 9.1248 20.0179 8.88904C19.8652 8.71319 19.6759 8.55859 19.4769 8.44071C19.3011 8.34602 19.1002 8.27645 18.8877 8.25327C18.6636 8.21848 18.4394 8.19336 18.2057 8.19336C17.9719 8.19336 17.771 8.21655 17.5469 8.25327C17.3344 8.27645 17.1354 8.34796 16.9576 8.44071C16.7567 8.55859 16.5693 8.71126 16.4167 8.88904C16.2273 9.1248 16.0515 9.38375 15.9221 9.6543L14.1678 12.9279C13.7196 13.7762 13.3564 14.4816 13.0724 15.0362C12.9198 15.3183 12.7903 15.6024 12.6609 15.8614C12.6377 15.9077 12.6029 15.9445 12.5546 15.9676C12.5083 16.0024 12.46 16.014 12.402 16.0024C12.3557 15.9908 12.3074 15.9792 12.2726 15.9309C12.2262 15.8961 12.2011 15.8478 12.1895 15.8015C12.1296 15.5077 12.0601 15.2121 11.9886 14.9067C11.8591 14.3405 11.6949 13.6931 11.4824 12.9511L10.2942 8.59338C10.2826 8.5354 10.2595 8.48709 10.2112 8.45231C10.1648 8.41752 10.1049 8.39434 10.0585 8.39434H6.56165C6.52688 8.39434 6.47858 8.40593 6.4438 8.41752C6.40902 8.44071 6.38584 8.4639 6.34913 8.50062C6.32595 8.5354 6.31436 8.57212 6.31436 8.60691C6.30277 8.65328 6.30277 8.69 6.31436 8.72479L9.52917 19.877C9.65861 20.4181 9.97739 20.8896 10.4121 21.2317C10.812 21.5254 11.2834 21.68 11.778 21.6665C12.2494 21.6897 12.7208 21.5602 13.1091 21.2896C13.4743 21.0307 13.7795 20.6886 14.0036 20.2886L16.0766 16.5783C16.3587 16.072 16.606 15.6237 16.8185 15.2468C17.0194 14.87 17.2068 14.528 17.3711 14.2226C17.5353 13.9173 17.6763 13.6448 17.7942 13.3975C17.8405 13.3144 17.8772 13.2332 17.9236 13.1501C17.9352 13.1037 17.97 13.067 18.0067 13.0438C18.053 13.0206 18.1013 13.009 18.1477 13.009C18.1941 13.009 18.2424 13.0206 18.2772 13.0438C18.3119 13.067 18.3486 13.1037 18.3718 13.1501C18.4066 13.2332 18.4549 13.3144 18.5013 13.3975C18.6191 13.6448 18.7602 13.927 18.936 14.2342C19.1002 14.5396 19.2895 14.8932 19.4885 15.27C19.701 15.6469 19.9483 16.0952 20.2304 16.6015L22.3034 20.2886C22.5275 20.7002 22.8444 21.0423 23.2095 21.3128C23.5978 21.5602 24.0576 21.6897 24.529 21.6781C25.012 21.6781 25.495 21.5254 25.8949 21.2433C26.3296 20.9012 26.6484 20.4181 26.7779 19.8886L27.767 16.4971C27.7786 16.4372 27.8134 16.4024 27.8501 16.3677C27.8965 16.3329 27.9564 16.3097 28.0027 16.3097H37.823C38.0587 16.3097 38.2828 16.416 38.447 16.5802C38.6112 16.7445 38.7059 16.9687 38.7059 17.216C38.7059 17.4634 38.6112 17.6759 38.447 17.8518C38.2828 18.0161 38.0587 18.1107 37.823 18.1107H29.4053C29.3474 18.1107 29.2991 18.1223 29.2527 18.1571C29.2064 18.1919 29.1812 18.2402 29.1581 18.2866L28.3466 21.137C28.335 21.1834 28.335 21.2201 28.3466 21.2549C28.3466 21.3012 28.3698 21.338 28.393 21.3611C28.4162 21.3959 28.4394 21.4191 28.4761 21.4442C28.5108 21.4558 28.5476 21.4674 28.5939 21.4674H37.4598C38.3311 21.4906 39.1908 21.3843 40.0274 21.1737C40.6166 21.0326 41.1692 20.7621 41.6521 20.3852C42.0405 20.0664 42.3341 19.6548 42.5003 19.1949C42.6761 18.7117 42.7592 18.1938 42.7592 17.6759C42.7939 16.9803 42.5718 16.2981 42.1583 15.7454L42.1564 15.7435ZM38.6943 12.9994C38.6479 13.1057 38.5764 13.2004 38.4934 13.2815C38.4103 13.3646 38.3176 13.4226 38.1997 13.4574C38.0934 13.5038 37.9756 13.5154 37.8693 13.5154H28.9687C28.9339 13.5154 28.8972 13.5038 28.8625 13.4922C28.8277 13.469 28.791 13.4458 28.7678 13.4091C28.7446 13.3859 28.733 13.3376 28.7214 13.3028C28.7214 13.268 28.7214 13.2313 28.733 13.1849L29.0866 11.9829C29.0982 11.9249 29.1329 11.8766 29.1812 11.8418C29.216 11.8187 29.2759 11.7955 29.3339 11.7955H37.8693C37.9756 11.7955 38.0934 11.8071 38.1997 11.8554C38.3176 11.8902 38.4122 11.9501 38.4934 12.0312C38.5764 12.1143 38.646 12.2071 38.6943 12.3134C38.7407 12.4196 38.7658 12.5375 38.7658 12.6554C38.7658 12.7733 38.7426 12.8912 38.6943 12.9975V12.9994Z" fill="#0E0F15"/>
<defs>
<linearGradient id="paint0_linear_4449_14398" x1="0.0341797" y1="14.9381" x2="134.954" y2="14.9381" gradientUnits="userSpaceOnUse">
<stop stop-color="#EBAE2F"/>
<stop offset="0.26" stop-color="#F6DB53"/>
<stop offset="0.5" stop-color="#F6DB53"/>
<stop offset="0.7" stop-color="#FDEE65"/>
<stop offset="1" stop-color="#F0A326"/>
</linearGradient>
</defs>
</svg>
