<svg width="125" height="32" viewBox="0 0 125 32" fill="none" xmlns="http://www.w3.org/2000/svg">
<g clip-path="url(#clip0_11311_3286)">
<path d="M1.97656 1.86133V2.86481L38.1562 2.86127H88.0857L75.9968 28.9873H38.1544L2.00682 28.9979V29.9907H76.6465L89.6612 1.86133H1.97656Z" fill="white"/>
<path d="M100.545 1.85547H92.8739L80.3809 30.1159H89.7889L91.6207 25.309H101.794L103.598 30.1159H113.034L100.545 1.85547ZM94.0666 18.9218L96.6941 11.9098L99.3501 18.9218H94.0684H94.0666Z" fill="white"/>
<path d="M115.445 1.85547V30.1159H123.137V1.85547H115.445Z" fill="white"/>
<path d="M121.014 0.391129H124.966V0H121.014V0.391129Z" fill="white"/>
<path d="M124.97 3.92368V0H124.576V3.92368H124.97Z" fill="white"/>
<path d="M124.605 28.0762V31.9998H124.999V28.0762H124.605Z" fill="white"/>
<path d="M121.047 32.0005H124.999V31.6094H121.047V32.0005Z" fill="white"/>
<path d="M3.98495 31.6074H0.03125V31.9986H3.98317V31.6074H3.98495Z" fill="white"/>
<path d="M0.03125 28.0723V31.9959H0.424662V28.0723H0.03125Z" fill="white"/>
<path d="M0.397318 3.92368V0H0.00390625V3.92368H0.397318Z" fill="white"/>
<path d="M3.95192 0H0V0.391129H3.95192V0Z" fill="white"/>
<path d="M2.86485 1.86133H1.97656V29.9925H2.86485V1.86133Z" fill="white"/>
<path d="M20.9264 12.2017V12.9804C20.9264 14.7874 20.1271 15.5661 18.3256 15.5661H4.79297V4.66406H18.0141C19.8156 4.66406 20.6149 5.44278 20.6149 7.24976V7.90459C20.6149 9.01072 20.2233 9.71157 19.456 10.0071C20.4422 10.2248 20.9282 10.9575 20.9282 12.2035L20.9264 12.2017ZM9.17747 7.62319V8.901H15.7248C16.1165 8.901 16.2268 8.79127 16.2268 8.40191V8.12228C16.2268 7.73292 16.1165 7.62319 15.7248 7.62319H9.17747ZM16.5401 11.7044C16.5401 11.315 16.4298 11.2053 16.0381 11.2053H9.17747V12.607H16.0381C16.4298 12.607 16.5401 12.4973 16.5401 12.1079V11.7026V11.7044Z" fill="white"/>
<path d="M25.1881 15.5642C22.9487 15.5642 21.8984 14.5359 21.8984 12.2935V7.93273C21.8984 5.69037 22.9487 4.66211 25.1881 4.66211H35.3706C37.61 4.66211 38.6603 5.69037 38.6603 7.93273V12.2935C38.6603 14.5359 37.61 15.5642 35.3706 15.5642H25.1881ZM33.553 12.1378C34.1013 12.1378 34.274 11.9661 34.274 11.421V8.80524C34.274 8.26014 34.1013 8.08847 33.553 8.08847H27.0057C26.4574 8.08847 26.2847 8.26014 26.2847 8.80524V11.421C26.2847 11.9661 26.4574 12.1378 27.0057 12.1378H33.553Z" fill="white"/>
<path d="M58.2719 4.66406H62.9714L57.6292 15.5661H53.9319L50.6742 9.36823L47.4165 15.5661H43.7192L38.377 4.66406H43.2955L46.0369 10.8938L49.1379 4.66406H52.3653L55.5304 10.9097L58.2719 4.66406Z" fill="white"/>
<path d="M67.8296 11.984H77.5421V15.5661H63.4434V4.66406H67.8296V11.984Z" fill="white"/>
<path d="M15.8785 17.2754H19.9159V27.3102H15.8785V23.7989H8.95729V27.3102H4.91992V17.2754H8.95729V20.5H15.8785V17.2754Z" fill="white"/>
<path d="M32.8071 27.3102L31.9562 25.8201H25.7274L24.8765 27.3102H20.3496L26.6638 17.2754H31.2192L37.5351 27.3102H32.8053H32.8071ZM27.2121 23.2397H30.4858L28.8427 20.3726L27.2138 23.2397H27.2121Z" fill="white"/>
<path d="M52.5311 17.2754H56.8569L51.9401 27.3102H48.5382L45.5387 21.6044L42.5391 27.3102H39.1355L34.2188 17.2754H38.7457L41.2681 23.0096L44.1235 17.2754H47.0928L50.0051 23.0237L52.5275 17.2754H52.5311Z" fill="white"/>
<path d="M72.7767 27.3102H66.7509L61.3303 22.6662V27.3102H57.293V17.2754H61.3303V21.7052L66.6939 17.2754H72.7215L66.2044 22.0911L72.7784 27.3085L72.7767 27.3102Z" fill="white"/>
</g>
<defs>
<clipPath id="clip0_11311_3286">
<rect width="125" height="32" fill="white"/>
</clipPath>
</defs>
</svg>
