<svg width="82" height="82" viewBox="0 0 82 82" fill="none" xmlns="http://www.w3.org/2000/svg">
<rect width="82" height="82" rx="13.6667" fill="url(#paint0_linear_9481_5685)"/>
<rect width="82" height="82" rx="13.6667" fill="white"/>
<path d="M35.954 27.2383C36.4772 28.352 37.409 29.2215 38.5562 29.6666C38.6729 29.7198 38.7712 29.8067 38.8384 29.916C38.9056 30.0254 38.9388 30.1523 38.9336 30.2805V32.189C38.5328 32.3307 38.1857 32.5927 37.9395 32.9393C37.6934 33.2858 37.5604 33.6999 37.5586 34.125V34.8125C37.5586 34.9948 37.631 35.1697 37.76 35.2986C37.8889 35.4276 38.0638 35.5 38.2461 35.5H43.7461C43.9284 35.5 44.1033 35.4276 44.2322 35.2986C44.3612 35.1697 44.4336 34.9948 44.4336 34.8125V34.125C44.4318 33.6999 44.2988 33.2858 44.0527 32.9393C43.8065 32.5927 43.4593 32.3307 43.0586 32.189V30.2805C43.0534 30.1523 43.0866 30.0254 43.1538 29.916C43.221 29.8067 43.3193 29.7198 43.436 29.6666C44.5832 29.2215 45.515 28.352 46.0382 27.2383C47.2723 27.1794 48.4365 26.648 49.2896 25.7543C50.1428 24.8606 50.6195 23.673 50.6211 22.4375C50.6211 21.8905 50.4038 21.3659 50.017 20.9791C49.6302 20.5923 49.1056 20.375 48.5586 20.375H46.4961V19.6875C46.4961 19.5052 46.4237 19.3303 46.2947 19.2014C46.1658 19.0724 45.9909 19 45.8086 19H36.1836C36.0013 19 35.8264 19.0724 35.6975 19.2014C35.5685 19.3303 35.4961 19.5052 35.4961 19.6875V20.375H33.4336C32.8866 20.375 32.362 20.5923 31.9752 20.9791C31.5884 21.3659 31.3711 21.8905 31.3711 22.4375C31.3727 23.673 31.8494 24.8606 32.7025 25.7543C33.5557 26.648 34.7198 27.1794 35.954 27.2383ZM38.9336 34.125C38.9336 33.9427 39.006 33.7678 39.135 33.6389C39.2639 33.5099 39.4388 33.4375 39.6211 33.4375H42.3711C42.5534 33.4375 42.7283 33.5099 42.8572 33.6389C42.9862 33.7678 43.0586 33.9427 43.0586 34.125H38.9336ZM48.5586 21.75C48.7409 21.75 48.9158 21.8224 49.0447 21.9514C49.1737 22.0803 49.2461 22.2552 49.2461 22.4375C49.2451 23.2373 48.9652 24.0116 48.4547 24.6273C47.9443 25.2429 47.2351 25.6613 46.4493 25.8104C46.4781 25.604 46.4937 25.3959 46.4961 25.1875V21.75H48.5586ZM36.8711 20.375H45.1211V25.1875C45.1235 25.8792 44.9157 26.5553 44.5253 27.1263C44.1349 27.6973 43.5803 28.1363 42.9348 28.3851C42.5611 28.5402 42.2422 28.8036 42.0193 29.1414C41.7963 29.4791 41.6794 29.8758 41.6836 30.2805V32.0625H40.3086V30.2805C40.3128 29.8758 40.1959 29.4791 39.9729 29.1414C39.75 28.8036 39.4311 28.5402 39.0573 28.3851C38.4119 28.1363 37.8573 27.6973 37.4669 27.1263C37.0764 26.5553 36.8687 25.8792 36.8711 25.1875V20.375ZM33.4336 21.75H35.4961V25.1875C35.4984 25.3959 35.5141 25.604 35.5428 25.8104C34.7571 25.6613 34.0479 25.2429 33.5374 24.6273C33.027 24.0116 32.7471 23.2373 32.7461 22.4375C32.7461 22.2552 32.8185 22.0803 32.9475 21.9514C33.0764 21.8224 33.2513 21.75 33.4336 21.75Z" fill="url(#paint1_linear_9481_5685)"/>
<path d="M59.5586 57.5H58.1836V54.0625C58.1836 53.8802 58.1112 53.7053 57.9822 53.5764C57.8533 53.4474 57.6784 53.375 57.4961 53.375H52.6836V50.625H54.0586C54.6056 50.625 55.1302 50.4077 55.517 50.0209C55.9038 49.6341 56.1211 49.1095 56.1211 48.5625V47.1875C56.1211 46.6405 55.9038 46.1159 55.517 45.7291C55.1302 45.3423 54.6056 45.125 54.0586 45.125H52.6836V41.6875C52.6836 41.5052 52.6112 41.3303 52.4822 41.2014C52.3533 41.0724 52.1784 41 51.9961 41H41.6836V37.5625C41.6836 37.3802 41.6112 37.2053 41.4822 37.0764C41.3533 36.9474 41.1784 36.875 40.9961 36.875C40.8138 36.875 40.6389 36.9474 40.51 37.0764C40.381 37.2053 40.3086 37.3802 40.3086 37.5625V41H29.9961C29.8138 41 29.6389 41.0724 29.51 41.2014C29.381 41.3303 29.3086 41.5052 29.3086 41.6875V45.125H27.9336C27.3866 45.125 26.862 45.3423 26.4752 45.7291C26.0884 46.1159 25.8711 46.6405 25.8711 47.1875V48.5625C25.8711 49.1095 26.0884 49.6341 26.4752 50.0209C26.862 50.4077 27.3866 50.625 27.9336 50.625H29.3086V53.375H24.4961C24.3138 53.375 24.1389 53.4474 24.01 53.5764C23.881 53.7053 23.8086 53.8802 23.8086 54.0625V57.5H22.4336C21.8866 57.5 21.362 57.7173 20.9752 58.1041C20.5884 58.4909 20.3711 59.0155 20.3711 59.5625V60.9375C20.3711 61.4845 20.5884 62.0091 20.9752 62.3959C21.362 62.7827 21.8866 63 22.4336 63H26.5586C27.1056 63 27.6302 62.7827 28.017 62.3959C28.4038 62.0091 28.6211 61.4845 28.6211 60.9375V59.5625C28.6211 59.0155 28.4038 58.4909 28.017 58.1041C27.6302 57.7173 27.1056 57.5 26.5586 57.5H25.1836V54.75H34.8086V57.5H33.4336C32.8866 57.5 32.362 57.7173 31.9752 58.1041C31.5884 58.4909 31.3711 59.0155 31.3711 59.5625V60.9375C31.3711 61.4845 31.5884 62.0091 31.9752 62.3959C32.362 62.7827 32.8866 63 33.4336 63H37.5586C38.1056 63 38.6302 62.7827 39.017 62.3959C39.4038 62.0091 39.6211 61.4845 39.6211 60.9375V59.5625C39.6211 59.0155 39.4038 58.4909 39.017 58.1041C38.6302 57.7173 38.1056 57.5 37.5586 57.5H36.1836V54.0625C36.1836 53.8802 36.1112 53.7053 35.9822 53.5764C35.8533 53.4474 35.6784 53.375 35.4961 53.375H30.6836V50.625H32.0586C32.6056 50.625 33.1302 50.4077 33.517 50.0209C33.9038 49.6341 34.1211 49.1095 34.1211 48.5625V47.1875C34.1211 46.6405 33.9038 46.1159 33.517 45.7291C33.1302 45.3423 32.6056 45.125 32.0586 45.125H30.6836V42.375H51.3086V45.125H49.9336C49.3866 45.125 48.862 45.3423 48.4752 45.7291C48.0884 46.1159 47.8711 46.6405 47.8711 47.1875V48.5625C47.8711 49.1095 48.0884 49.6341 48.4752 50.0209C48.862 50.4077 49.3866 50.625 49.9336 50.625H51.3086V53.375H46.4961C46.3138 53.375 46.1389 53.4474 46.01 53.5764C45.881 53.7053 45.8086 53.8802 45.8086 54.0625V57.5H44.4336C43.8866 57.5 43.362 57.7173 42.9752 58.1041C42.5884 58.4909 42.3711 59.0155 42.3711 59.5625V60.9375C42.3711 61.4845 42.5884 62.0091 42.9752 62.3959C43.362 62.7827 43.8866 63 44.4336 63H48.5586C49.1056 63 49.6302 62.7827 50.017 62.3959C50.4038 62.0091 50.6211 61.4845 50.6211 60.9375V59.5625C50.6211 59.0155 50.4038 58.4909 50.017 58.1041C49.6302 57.7173 49.1056 57.5 48.5586 57.5H47.1836V54.75H56.8086V57.5H55.4336C54.8866 57.5 54.362 57.7173 53.9752 58.1041C53.5884 58.4909 53.3711 59.0155 53.3711 59.5625V60.9375C53.3711 61.4845 53.5884 62.0091 53.9752 62.3959C54.362 62.7827 54.8866 63 55.4336 63H59.5586C60.1056 63 60.6302 62.7827 61.017 62.3959C61.4038 62.0091 61.6211 61.4845 61.6211 60.9375V59.5625C61.6211 59.0155 61.4038 58.4909 61.017 58.1041C60.6302 57.7173 60.1056 57.5 59.5586 57.5ZM27.2461 59.5625V60.9375C27.2461 61.1198 27.1737 61.2947 27.0447 61.4236C26.9158 61.5526 26.7409 61.625 26.5586 61.625H22.4336C22.2513 61.625 22.0764 61.5526 21.9475 61.4236C21.8185 61.2947 21.7461 61.1198 21.7461 60.9375V59.5625C21.7461 59.3802 21.8185 59.2053 21.9475 59.0764C22.0764 58.9474 22.2513 58.875 22.4336 58.875H26.5586C26.7409 58.875 26.9158 58.9474 27.0447 59.0764C27.1737 59.2053 27.2461 59.3802 27.2461 59.5625ZM38.2461 59.5625V60.9375C38.2461 61.1198 38.1737 61.2947 38.0447 61.4236C37.9158 61.5526 37.7409 61.625 37.5586 61.625H33.4336C33.2513 61.625 33.0764 61.5526 32.9475 61.4236C32.8185 61.2947 32.7461 61.1198 32.7461 60.9375V59.5625C32.7461 59.3802 32.8185 59.2053 32.9475 59.0764C33.0764 58.9474 33.2513 58.875 33.4336 58.875H37.5586C37.7409 58.875 37.9158 58.9474 38.0447 59.0764C38.1737 59.2053 38.2461 59.3802 38.2461 59.5625ZM32.7461 47.1875V48.5625C32.7461 48.7448 32.6737 48.9197 32.5447 49.0486C32.4158 49.1776 32.2409 49.25 32.0586 49.25H27.9336C27.7513 49.25 27.5764 49.1776 27.4475 49.0486C27.3185 48.9197 27.2461 48.7448 27.2461 48.5625V47.1875C27.2461 47.0052 27.3185 46.8303 27.4475 46.7014C27.5764 46.5724 27.7513 46.5 27.9336 46.5H32.0586C32.2409 46.5 32.4158 46.5724 32.5447 46.7014C32.6737 46.8303 32.7461 47.0052 32.7461 47.1875ZM49.2461 48.5625V47.1875C49.2461 47.0052 49.3185 46.8303 49.4475 46.7014C49.5764 46.5724 49.7513 46.5 49.9336 46.5H54.0586C54.2409 46.5 54.4158 46.5724 54.5447 46.7014C54.6737 46.8303 54.7461 47.0052 54.7461 47.1875V48.5625C54.7461 48.7448 54.6737 48.9197 54.5447 49.0486C54.4158 49.1776 54.2409 49.25 54.0586 49.25H49.9336C49.7513 49.25 49.5764 49.1776 49.4475 49.0486C49.3185 48.9197 49.2461 48.7448 49.2461 48.5625ZM49.2461 59.5625V60.9375C49.2461 61.1198 49.1737 61.2947 49.0447 61.4236C48.9158 61.5526 48.7409 61.625 48.5586 61.625H44.4336C44.2513 61.625 44.0764 61.5526 43.9475 61.4236C43.8185 61.2947 43.7461 61.1198 43.7461 60.9375V59.5625C43.7461 59.3802 43.8185 59.2053 43.9475 59.0764C44.0764 58.9474 44.2513 58.875 44.4336 58.875H48.5586C48.7409 58.875 48.9158 58.9474 49.0447 59.0764C49.1737 59.2053 49.2461 59.3802 49.2461 59.5625ZM60.2461 60.9375C60.2461 61.1198 60.1737 61.2947 60.0447 61.4236C59.9158 61.5526 59.7409 61.625 59.5586 61.625H55.4336C55.2513 61.625 55.0764 61.5526 54.9475 61.4236C54.8185 61.2947 54.7461 61.1198 54.7461 60.9375V59.5625C54.7461 59.3802 54.8185 59.2053 54.9475 59.0764C55.0764 58.9474 55.2513 58.875 55.4336 58.875H59.5586C59.7409 58.875 59.9158 58.9474 60.0447 59.0764C60.1737 59.2053 60.2461 59.3802 60.2461 59.5625V60.9375Z" fill="url(#paint2_linear_9481_5685)"/>
<defs>
<linearGradient id="paint0_linear_9481_5685" x1="41" y1="0" x2="41" y2="82" gradientUnits="userSpaceOnUse">
<stop stop-color="#FFA300"/>
<stop offset="1" stop-color="#EA6F00"/>
</linearGradient>
<linearGradient id="paint1_linear_9481_5685" x1="40.9961" y1="19" x2="40.9961" y2="35.5" gradientUnits="userSpaceOnUse">
<stop stop-color="#FFA300"/>
<stop offset="1" stop-color="#EA6F00"/>
</linearGradient>
<linearGradient id="paint2_linear_9481_5685" x1="40.9961" y1="36.875" x2="40.9961" y2="63" gradientUnits="userSpaceOnUse">
<stop stop-color="#FFA300"/>
<stop offset="1" stop-color="#EA6F00"/>
</linearGradient>
</defs>
</svg>
