<svg width="82" height="82" viewBox="0 0 82 82" fill="none" xmlns="http://www.w3.org/2000/svg">
<rect width="82" height="82" rx="13.6667" fill="url(#paint0_linear_9481_5687)"/>
<rect width="82" height="82" rx="13.6667" fill="white"/>
<path d="M21.0525 52.1594C20.9999 52.1594 20.9461 52.1561 20.8912 52.1482C18.3309 51.7785 15.8749 50.9751 13.5936 49.7594C13.0479 49.4681 12.8406 48.7891 13.132 48.2423C13.4244 47.6977 14.1 47.4905 14.6491 47.7807C16.6995 48.8754 18.908 49.5969 21.2105 49.9286C21.8234 50.0171 22.2481 50.5852 22.1607 51.1981C22.08 51.7572 21.6004 52.1594 21.0525 52.1594Z" fill="url(#paint1_linear_9481_5687)"/>
<path d="M60.9789 52.1598C60.431 52.1598 59.9514 51.7575 59.8708 51.1995C59.7834 50.5866 60.208 50.0186 60.8209 49.9301C63.1246 49.5984 65.3319 48.8768 67.3824 47.7821C67.9325 47.4919 68.607 47.6992 68.8995 48.2438C69.1908 48.7894 68.9835 49.4695 68.4378 49.7609C66.1566 50.9766 63.7005 51.7799 61.1403 52.1497C61.0854 52.1564 61.0316 52.1598 60.9789 52.1598Z" fill="url(#paint2_linear_9481_5687)"/>
<path d="M49.2528 42.1013C49.0421 42.1013 48.8303 42.042 48.6421 41.9198C48.1233 41.5814 47.9766 40.8879 48.3149 40.3691C49.9026 37.9343 52.585 36.48 55.4915 36.48C56.1111 36.48 56.612 36.9808 56.612 37.6004C56.612 38.2201 56.1111 38.7209 55.4915 38.7209C53.3447 38.7209 51.3637 39.7943 50.1928 41.5927C49.9788 41.9221 49.6203 42.1013 49.2528 42.1013Z" fill="url(#paint3_linear_9481_5687)"/>
<path d="M57.9752 38.7208C54.0031 38.7208 50.6484 35.3661 50.6484 31.3952C50.6484 27.4242 54.0031 24.0696 57.9752 24.0696C61.9461 24.0696 65.3007 27.4242 65.3007 31.3952C65.3007 35.3661 61.9461 38.7208 57.9752 38.7208ZM57.9752 26.3105C55.2188 26.3105 52.8894 28.6388 52.8894 31.3952C52.8894 34.1515 55.2188 36.4798 57.9752 36.4798C60.7315 36.4798 63.0598 34.1515 63.0598 31.3952C63.0598 28.6388 60.7315 26.3105 57.9752 26.3105Z" fill="url(#paint4_linear_9481_5687)"/>
<path d="M67.9108 46.1685C67.2912 46.1685 66.7904 45.6676 66.7904 45.048C66.7904 41.56 63.9522 38.7219 60.4642 38.7219C59.8446 38.7219 59.3438 38.221 59.3438 37.6014C59.3438 36.9818 59.8446 36.481 60.4642 36.481C65.1881 36.481 69.0313 40.3253 69.0313 45.048C69.0313 45.6665 68.5304 46.1685 67.9108 46.1685Z" fill="url(#paint5_linear_9481_5687)"/>
<path d="M60.4524 38.7209H55.4877C54.868 38.7209 54.3672 38.2201 54.3672 37.6004C54.3672 36.9808 54.868 36.48 55.4877 36.48H60.4524C61.072 36.48 61.5729 36.9808 61.5729 37.6004C61.5729 38.2201 61.0709 38.7209 60.4524 38.7209Z" fill="url(#paint6_linear_9481_5687)"/>
<path d="M67.9134 49.8915C67.2938 49.8915 66.793 49.3906 66.793 48.771V45.0477C66.793 44.4281 67.2938 43.9272 67.9134 43.9272C68.533 43.9272 69.0339 44.4281 69.0339 45.0477V48.771C69.0339 49.3906 68.533 49.8915 67.9134 49.8915Z" fill="url(#paint7_linear_9481_5687)"/>
<path d="M27.7767 50.7187C27.1571 50.7187 26.6562 50.2178 26.6562 49.5982C26.6562 43.5051 31.6132 38.5493 37.7051 38.5493C38.3248 38.5493 38.8256 39.0502 38.8256 39.6698C38.8256 40.2894 38.3248 40.7902 37.7051 40.7902C32.8479 40.7902 28.8972 44.741 28.8972 49.5982C28.8972 50.2178 28.3952 50.7187 27.7767 50.7187Z" fill="url(#paint8_linear_9481_5687)"/>
<path d="M44.33 40.7902H37.7103C37.0907 40.7902 36.5898 40.2894 36.5898 39.6698C36.5898 39.0502 37.0907 38.5493 37.7103 38.5493H44.33C44.9496 38.5493 45.4505 39.0502 45.4505 39.6698C45.4505 40.2894 44.9496 40.7902 44.33 40.7902Z" fill="url(#paint9_linear_9481_5687)"/>
<path d="M32.7772 42.1013C32.4108 42.1013 32.0522 41.9221 31.8371 41.5927C30.6651 39.7954 28.6852 38.7209 26.5384 38.7209C25.9188 38.7209 25.418 38.2201 25.418 37.6004C25.418 36.9808 25.9188 36.48 26.5384 36.48C29.446 36.48 32.1273 37.9343 33.715 40.3691C34.0534 40.8879 33.9066 41.5814 33.3878 41.9198C33.1985 42.042 32.9867 42.1013 32.7772 42.1013Z" fill="url(#paint10_linear_9481_5687)"/>
<path d="M27.7767 55.6832C27.1571 55.6832 26.6562 55.1824 26.6562 54.5628V49.598C26.6562 48.9784 27.1571 48.4775 27.7767 48.4775C28.3963 48.4775 28.8972 48.9784 28.8972 49.598V54.5628C28.8972 55.1824 28.3952 55.6832 27.7767 55.6832Z" fill="url(#paint11_linear_9481_5687)"/>
<path d="M41.0162 40.7902C35.9237 40.7902 31.6211 36.4876 31.6211 31.3951C31.6211 26.3026 35.9237 22 41.0162 22C46.1087 22 50.4113 26.3026 50.4113 31.3951C50.4113 36.4876 46.1087 40.7902 41.0162 40.7902ZM41.0162 24.2409C37.1383 24.2409 33.862 27.5172 33.862 31.3951C33.862 35.273 37.1383 38.5492 41.0162 38.5492C44.8941 38.5492 48.1703 35.273 48.1703 31.3951C48.1703 27.5172 44.8941 24.2409 41.0162 24.2409Z" fill="url(#paint12_linear_9481_5687)"/>
<path d="M54.2559 50.7187C53.6363 50.7187 53.1355 50.2178 53.1355 49.5982C53.1355 44.741 49.1847 40.7902 44.3275 40.7902C43.7079 40.7902 43.207 40.2894 43.207 39.6698C43.207 39.0502 43.7079 38.5493 44.3275 38.5493C50.4206 38.5493 55.3764 43.5062 55.3764 49.5982C55.3764 50.2178 54.8755 50.7187 54.2559 50.7187Z" fill="url(#paint13_linear_9481_5687)"/>
<path d="M54.2572 55.6832C53.6376 55.6832 53.1367 55.1824 53.1367 54.5628V49.598C53.1367 48.9784 53.6376 48.4775 54.2572 48.4775C54.8768 48.4775 55.3776 48.9784 55.3776 49.598V54.5628C55.3776 55.1824 54.8768 55.6832 54.2572 55.6832Z" fill="url(#paint14_linear_9481_5687)"/>
<path d="M41.0159 59C36.2875 59 31.5603 57.8504 27.2498 55.5524C26.7042 55.2599 26.4969 54.5821 26.7882 54.0353C27.0807 53.4907 27.7552 53.2834 28.3053 53.5736C36.2651 57.8191 45.7689 57.8191 53.7275 53.5736C54.2766 53.2834 54.9533 53.4907 55.2446 54.0353C55.536 54.5809 55.3287 55.2599 54.783 55.5524C50.4715 57.8493 45.7442 59 41.0159 59Z" fill="url(#paint15_linear_9481_5687)"/>
<path d="M24.0522 38.7205C20.0812 38.7205 16.7266 35.3659 16.7266 31.3949C16.7266 27.424 20.0812 24.0693 24.0522 24.0693C28.0231 24.0693 31.3777 27.424 31.3777 31.3949C31.3777 35.3659 28.0231 38.7205 24.0522 38.7205ZM24.0522 26.3103C21.2958 26.3103 18.9675 28.6386 18.9675 31.3949C18.9675 34.1513 21.2958 36.4796 24.0522 36.4796C26.8085 36.4796 29.1368 34.1513 29.1368 31.3949C29.1368 28.6386 26.8085 26.3103 24.0522 26.3103Z" fill="url(#paint16_linear_9481_5687)"/>
<path d="M14.1205 46.1685C13.5008 46.1685 13 45.6676 13 45.048C13 40.3241 16.8443 36.481 21.5671 36.481C22.1867 36.481 22.6875 36.9818 22.6875 37.6014C22.6875 38.221 22.1867 38.7219 21.5671 38.7219C18.0791 38.7208 15.2409 41.5589 15.2409 45.048C15.2409 45.6665 14.7401 46.1685 14.1205 46.1685Z" fill="url(#paint17_linear_9481_5687)"/>
<path d="M26.5306 38.7207H21.5658C20.9462 38.7207 20.4453 38.2198 20.4453 37.6002C20.4453 36.9806 20.9462 36.4797 21.5658 36.4797H26.5306C27.1502 36.4797 27.651 36.9806 27.651 37.6002C27.651 38.2198 27.1502 38.7207 26.5306 38.7207Z" fill="url(#paint18_linear_9481_5687)"/>
<path d="M14.1205 49.8915C13.5008 49.8915 13 49.3906 13 48.771V45.0477C13 44.4281 13.5008 43.9272 14.1205 43.9272C14.7401 43.9272 15.2409 44.4281 15.2409 45.0477V48.771C15.2409 49.3906 14.7401 49.8915 14.1205 49.8915Z" fill="url(#paint19_linear_9481_5687)"/>
<defs>
<linearGradient id="paint0_linear_9481_5687" x1="41" y1="0" x2="41" y2="82" gradientUnits="userSpaceOnUse">
<stop stop-color="#FFA300"/>
<stop offset="1" stop-color="#EA6F00"/>
</linearGradient>
<linearGradient id="paint1_linear_9481_5687" x1="17.586" y1="47.6494" x2="17.586" y2="52.1594" gradientUnits="userSpaceOnUse">
<stop stop-color="#FFA300"/>
<stop offset="1" stop-color="#EA6F00"/>
</linearGradient>
<linearGradient id="paint2_linear_9481_5687" x1="64.4454" y1="47.6509" x2="64.4454" y2="52.1598" gradientUnits="userSpaceOnUse">
<stop stop-color="#FFA300"/>
<stop offset="1" stop-color="#EA6F00"/>
</linearGradient>
<linearGradient id="paint3_linear_9481_5687" x1="52.3724" y1="36.48" x2="52.3724" y2="42.1013" gradientUnits="userSpaceOnUse">
<stop stop-color="#FFA300"/>
<stop offset="1" stop-color="#EA6F00"/>
</linearGradient>
<linearGradient id="paint4_linear_9481_5687" x1="57.9746" y1="24.0696" x2="57.9746" y2="38.7208" gradientUnits="userSpaceOnUse">
<stop stop-color="#FFA300"/>
<stop offset="1" stop-color="#EA6F00"/>
</linearGradient>
<linearGradient id="paint5_linear_9481_5687" x1="64.1875" y1="36.481" x2="64.1875" y2="46.1685" gradientUnits="userSpaceOnUse">
<stop stop-color="#FFA300"/>
<stop offset="1" stop-color="#EA6F00"/>
</linearGradient>
<linearGradient id="paint6_linear_9481_5687" x1="57.97" y1="36.48" x2="57.97" y2="38.7209" gradientUnits="userSpaceOnUse">
<stop stop-color="#FFA300"/>
<stop offset="1" stop-color="#EA6F00"/>
</linearGradient>
<linearGradient id="paint7_linear_9481_5687" x1="67.9134" y1="43.9272" x2="67.9134" y2="49.8915" gradientUnits="userSpaceOnUse">
<stop stop-color="#FFA300"/>
<stop offset="1" stop-color="#EA6F00"/>
</linearGradient>
<linearGradient id="paint8_linear_9481_5687" x1="32.7409" y1="38.5493" x2="32.7409" y2="50.7187" gradientUnits="userSpaceOnUse">
<stop stop-color="#FFA300"/>
<stop offset="1" stop-color="#EA6F00"/>
</linearGradient>
<linearGradient id="paint9_linear_9481_5687" x1="41.0202" y1="38.5493" x2="41.0202" y2="40.7902" gradientUnits="userSpaceOnUse">
<stop stop-color="#FFA300"/>
<stop offset="1" stop-color="#EA6F00"/>
</linearGradient>
<linearGradient id="paint10_linear_9481_5687" x1="29.6575" y1="36.48" x2="29.6575" y2="42.1013" gradientUnits="userSpaceOnUse">
<stop stop-color="#FFA300"/>
<stop offset="1" stop-color="#EA6F00"/>
</linearGradient>
<linearGradient id="paint11_linear_9481_5687" x1="27.7767" y1="48.4775" x2="27.7767" y2="55.6832" gradientUnits="userSpaceOnUse">
<stop stop-color="#FFA300"/>
<stop offset="1" stop-color="#EA6F00"/>
</linearGradient>
<linearGradient id="paint12_linear_9481_5687" x1="41.0162" y1="22" x2="41.0162" y2="40.7902" gradientUnits="userSpaceOnUse">
<stop stop-color="#FFA300"/>
<stop offset="1" stop-color="#EA6F00"/>
</linearGradient>
<linearGradient id="paint13_linear_9481_5687" x1="49.2917" y1="38.5493" x2="49.2917" y2="50.7187" gradientUnits="userSpaceOnUse">
<stop stop-color="#FFA300"/>
<stop offset="1" stop-color="#EA6F00"/>
</linearGradient>
<linearGradient id="paint14_linear_9481_5687" x1="54.2572" y1="48.4775" x2="54.2572" y2="55.6832" gradientUnits="userSpaceOnUse">
<stop stop-color="#FFA300"/>
<stop offset="1" stop-color="#EA6F00"/>
</linearGradient>
<linearGradient id="paint15_linear_9481_5687" x1="41.0164" y1="53.4424" x2="41.0164" y2="59" gradientUnits="userSpaceOnUse">
<stop stop-color="#FFA300"/>
<stop offset="1" stop-color="#EA6F00"/>
</linearGradient>
<linearGradient id="paint16_linear_9481_5687" x1="24.0522" y1="24.0693" x2="24.0522" y2="38.7205" gradientUnits="userSpaceOnUse">
<stop stop-color="#FFA300"/>
<stop offset="1" stop-color="#EA6F00"/>
</linearGradient>
<linearGradient id="paint17_linear_9481_5687" x1="17.8438" y1="36.481" x2="17.8438" y2="46.1685" gradientUnits="userSpaceOnUse">
<stop stop-color="#FFA300"/>
<stop offset="1" stop-color="#EA6F00"/>
</linearGradient>
<linearGradient id="paint18_linear_9481_5687" x1="24.0482" y1="36.4797" x2="24.0482" y2="38.7207" gradientUnits="userSpaceOnUse">
<stop stop-color="#FFA300"/>
<stop offset="1" stop-color="#EA6F00"/>
</linearGradient>
<linearGradient id="paint19_linear_9481_5687" x1="14.1205" y1="43.9272" x2="14.1205" y2="49.8915" gradientUnits="userSpaceOnUse">
<stop stop-color="#FFA300"/>
<stop offset="1" stop-color="#EA6F00"/>
</linearGradient>
</defs>
</svg>
