<svg width="38" height="38" viewBox="0 0 38 38" fill="none" xmlns="http://www.w3.org/2000/svg">
<circle cx="19" cy="19" r="18.5" stroke="white"/>
<path d="M23.9078 9.14843V12.3211H22.1069C21.8681 12.2891 21.6257 12.3113 21.3959 12.3862C21.1661 12.4611 20.9544 12.5869 20.7751 12.7552L20.7767 12.7535C20.5189 13.1324 20.3973 13.5945 20.4332 14.0582V14.0515V16.3227H23.7957L23.3504 19.8803H20.4379V29H16.926V19.8795H14V16.3227H16.926V13.7025C16.8879 13.0696 16.9743 12.4353 17.1797 11.8388C17.3852 11.2423 17.7053 10.6964 18.1202 10.2349L18.1178 10.2374C18.5414 9.81684 19.042 9.49085 19.5894 9.27917C20.1368 9.06749 20.7195 8.97455 21.3022 9.00596H21.2919C22.1969 8.99032 23.1019 9.04183 24 9.1601L23.907 9.1501L23.9078 9.14843Z" fill="white"/>
</svg>
