<svg width="26" height="26" viewBox="0 0 26 26" fill="none" xmlns="http://www.w3.org/2000/svg">
<circle cx="13" cy="13" r="13" fill="white"/>
<g clip-path="url(#clip0_2786_1935)">
<path d="M20.2979 9.98729C20.2636 9.21021 20.138 8.67597 19.958 8.21305C19.7722 7.72166 19.4865 7.28173 19.1122 6.91601C18.7465 6.5446 18.3037 6.256 17.818 6.0732C17.3524 5.89318 16.8209 5.76752 16.0439 5.73326C15.261 5.69609 15.0124 5.6875 13.0268 5.6875C11.0412 5.6875 10.7927 5.69609 10.0127 5.73036C9.2356 5.76462 8.70136 5.89039 8.23855 6.07029C7.74705 6.256 7.30712 6.5417 6.9414 6.91601C6.56999 7.28173 6.2815 7.72457 6.09859 8.21026C5.91857 8.67597 5.79291 9.20731 5.75865 9.98439C5.72148 10.7673 5.71289 11.0158 5.71289 13.0014C5.71289 14.987 5.72148 15.2356 5.75575 16.0156C5.79001 16.7926 5.91578 17.3269 6.0958 17.7898C6.2815 18.2812 6.56999 18.7211 6.9414 19.0868C7.30712 19.4583 7.74996 19.7469 8.23565 19.9297C8.70136 20.1097 9.2327 20.2353 10.0099 20.2696C10.7898 20.304 11.0384 20.3125 13.024 20.3125C15.0096 20.3125 15.2582 20.304 16.0382 20.2696C16.8153 20.2353 17.3495 20.1097 17.8123 19.9297C18.7952 19.5497 19.5723 18.7726 19.9523 17.7898C20.1322 17.3241 20.2579 16.7926 20.2922 16.0156C20.3265 15.2356 20.3351 14.987 20.3351 13.0014C20.3351 11.0158 20.3322 10.7673 20.2979 9.98729ZM18.9809 15.9584C18.9494 16.6727 18.8294 17.0584 18.7294 17.3155C18.4837 17.9526 17.978 18.4583 17.3409 18.7041C17.0838 18.804 16.6953 18.924 15.9838 18.9554C15.2124 18.9898 14.9811 18.9982 13.0297 18.9982C11.0784 18.9982 10.8441 18.9898 10.0755 18.9554C9.36126 18.924 8.97557 18.804 8.71844 18.7041C8.40138 18.5869 8.11277 18.4012 7.87852 18.1583C7.63568 17.9212 7.44997 17.6355 7.33279 17.3184C7.23279 17.0613 7.11282 16.6727 7.08146 15.9613C7.04709 15.1899 7.03861 14.9585 7.03861 13.0071C7.03861 11.0558 7.04709 10.8215 7.08146 10.053C7.11282 9.33877 7.23279 8.95308 7.33279 8.69595C7.44997 8.37877 7.63568 8.09028 7.88142 7.85592C8.11847 7.61308 8.40417 7.42737 8.72134 7.3103C8.97847 7.21031 9.36706 7.09033 10.0784 7.05886C10.8498 7.0246 11.0813 7.01601 13.0325 7.01601C14.9868 7.01601 15.2181 7.0246 15.9867 7.05886C16.701 7.09033 17.0867 7.21031 17.3438 7.3103C17.6609 7.42737 17.9495 7.61308 18.1837 7.85592C18.4266 8.09307 18.6123 8.37877 18.7294 8.69595C18.8294 8.95308 18.9494 9.34156 18.9809 10.053C19.0151 10.8244 19.0237 11.0558 19.0237 13.0071C19.0237 14.9585 19.0151 15.187 18.9809 15.9584Z" fill="#1A1E23"/>
<path d="M13.0265 9.24219C10.9524 9.24219 9.26953 10.9249 9.26953 12.9991C9.26953 15.0734 10.9524 16.7561 13.0265 16.7561C15.1007 16.7561 16.7835 15.0734 16.7835 12.9991C16.7835 10.9249 15.1007 9.24219 13.0265 9.24219ZM13.0265 15.4362C11.6809 15.4362 10.5894 14.3448 10.5894 12.9991C10.5894 11.6535 11.6809 10.5621 13.0265 10.5621C14.3722 10.5621 15.4635 11.6535 15.4635 12.9991C15.4635 14.3448 14.3722 15.4362 13.0265 15.4362Z" fill="#1A1E23"/>
<path d="M17.8099 9.09583C17.8099 9.58018 17.4172 9.97291 16.9327 9.97291C16.4484 9.97291 16.0557 9.58018 16.0557 9.09583C16.0557 8.61136 16.4484 8.21875 16.9327 8.21875C17.4172 8.21875 17.8099 8.61136 17.8099 9.09583Z" fill="#1A1E23"/>
</g>
<defs>
<clipPath id="clip0_2786_1935">
<rect width="14.625" height="14.625" fill="white" transform="translate(5.6875 5.6875)"/>
</clipPath>
</defs>
</svg>
