<svg width="26" height="26" viewBox="0 0 26 26" fill="none" xmlns="http://www.w3.org/2000/svg">
<circle cx="13" cy="13" r="13" fill="white"/>
<path d="M19.5001 18.5019V14.1069C19.5001 11.9469 19.0351 10.2969 16.5151 10.2969C15.3001 10.2969 14.4901 10.9569 14.1601 11.5869H14.1301V10.4919H11.7451V18.5019H14.2351V14.5269C14.2351 13.4769 14.4301 12.4719 15.7201 12.4719C16.9951 12.4719 17.0101 13.6569 17.0101 14.5869V18.4869H19.5001V18.5019Z" fill="#1A1E23"/>
<path d="M7.69531 10.4922H10.1853V18.5022H7.69531V10.4922Z" fill="#1A1E23"/>
<path d="M8.94 6.5C8.145 6.5 7.5 7.145 7.5 7.94C7.5 8.735 8.145 9.395 8.94 9.395C9.735 9.395 10.38 8.735 10.38 7.94C10.38 7.145 9.735 6.5 8.94 6.5Z" fill="#1A1E23"/>
</svg>
