<svg width="15" height="19" viewBox="0 0 15 19" fill="none" xmlns="http://www.w3.org/2000/svg">
<path d="M7.78722 0C5.93609 0.00246171 4.16148 0.74075 2.85254 2.05297C1.54359 3.36519 0.807143 5.14424 0.804688 7C0.804688 12.0254 7.31008 18.3196 7.58647 18.585C7.64023 18.6374 7.71225 18.6667 7.78722 18.6667C7.86219 18.6667 7.9342 18.6374 7.98796 18.585C8.26436 18.3196 14.7697 12.0254 14.7697 7C14.7673 5.14424 14.0308 3.36519 12.7219 2.05297C11.413 0.74075 9.63834 0.00246171 7.78722 0ZM7.78722 10.2083C7.15425 10.2083 6.5355 10.0202 6.00921 9.66763C5.48292 9.31509 5.07273 8.81402 4.8305 8.22778C4.58828 7.64153 4.5249 6.99644 4.64838 6.37408C4.77187 5.75173 5.07667 5.18006 5.52424 4.73137C5.97182 4.28267 6.54206 3.97711 7.16286 3.85331C7.78367 3.72952 8.42715 3.79306 9.01193 4.03589C9.59671 4.27872 10.0965 4.68994 10.4482 5.21755C10.7998 5.74515 10.9875 6.36545 10.9875 7C10.987 7.85075 10.6497 8.6665 10.0496 9.26807C9.44956 9.86964 8.63584 10.2078 7.78722 10.2083Z" fill="url(#paint0_linear_9273_6944)"/>
<defs>
<linearGradient id="paint0_linear_9273_6944" x1="7.78722" y1="0" x2="7.78722" y2="18.6667" gradientUnits="userSpaceOnUse">
<stop stop-color="#FFA300"/>
<stop offset="1" stop-color="#EA6F00"/>
</linearGradient>
</defs>
</svg>
