<svg width="17" height="17" viewBox="0 0 17 17" fill="none" xmlns="http://www.w3.org/2000/svg">
<path d="M8.84793 0.330078C4.35455 0.330078 0.699219 3.99456 0.699219 8.49918C0.699219 13.0038 4.35455 16.6683 8.84793 16.6683C13.3413 16.6683 16.9966 13.0038 16.9966 8.49918C16.9966 3.99456 13.3413 0.330078 8.84793 0.330078ZM12.7233 12.7246C12.5909 12.8573 12.4171 12.9241 12.2433 12.9241C12.0694 12.9241 11.8955 12.8573 11.7632 12.7246L8.36785 9.32087C8.24016 9.19361 8.16891 9.02059 8.16891 8.8396V4.41463C8.16891 4.03818 8.47305 3.73391 8.84793 3.73391C9.22281 3.73391 9.52695 4.03818 9.52695 4.41463V8.55776L12.7233 11.762C12.9888 12.0283 12.9888 12.4585 12.7233 12.7246Z" fill="url(#paint0_linear_9273_6963)"/>
<defs>
<linearGradient id="paint0_linear_9273_6963" x1="8.84793" y1="0.330078" x2="8.84793" y2="16.6683" gradientUnits="userSpaceOnUse">
<stop stop-color="#FFA300"/>
<stop offset="1" stop-color="#EA6F00"/>
</linearGradient>
</defs>
</svg>
