<svg width="15" height="15" viewBox="0 0 15 15" fill="none" xmlns="http://www.w3.org/2000/svg">
<path d="M3.20313 1.95833C3.20293 2.37826 3.0447 2.7809 2.76326 3.07769C2.48181 3.37447 2.1002 3.54108 1.70238 3.54087C1.30455 3.54066 0.923099 3.37365 0.641935 3.07657C0.360771 2.77948 0.202926 2.37667 0.203125 1.95675C0.203324 1.53682 0.36155 1.13418 0.642995 0.837394C0.924441 0.54061 1.30605 0.373997 1.70388 0.374207C2.1017 0.374417 2.48315 0.541433 2.76432 0.838514C3.04548 1.1356 3.20332 1.53841 3.20313 1.95833ZM3.24813 4.71333H0.248125V14.625H3.24813V4.71333ZM7.98812 4.71333H5.00313V14.625H7.95813V9.42375C7.95813 6.52625 11.5356 6.25708 11.5356 9.42375V14.625H14.4981V8.34708C14.4981 3.4625 9.20312 3.64458 7.95813 6.04333L7.98812 4.71333Z" fill="white"/>
</svg>
