<svg width="168" height="52" viewBox="0 0 168 52" fill="none" xmlns="http://www.w3.org/2000/svg">
<mask id="mask0_715_1380" style="mask-type:luminance" maskUnits="userSpaceOnUse" x="0" y="8" width="117" height="36">
<path d="M116.308 8H9.53674e-07V44H116.308V8Z" fill="white"/>
</mask>
<g mask="url(#mask0_715_1380)">
<mask id="mask1_715_1380" style="mask-type:luminance" maskUnits="userSpaceOnUse" x="0" y="8" width="117" height="36">
<path d="M116.308 8H9.53674e-07V44H116.308V8Z" fill="white"/>
</mask>
<g mask="url(#mask1_715_1380)">
<path d="M18.0355 8H9.01759V16.922H18.0355V8Z" fill="white"/>
<path d="M27.0544 8H18.0365V16.922H27.0544V8Z" fill="white"/>
<path d="M9.018 16.9209H1.90735e-06V25.8429H9.018V16.9209Z" fill="white"/>
<path d="M9.018 8H9.53674e-07V16.922H9.018V8Z" fill="white"/>
<path d="M18.0355 25.8447H9.01759V34.7668H18.0355V25.8447Z" fill="white"/>
<path d="M9.018 34.7656H1.90735e-06V43.6877H9.018V34.7656Z" fill="white"/>
<path d="M35.0455 11.9297H34.4207V39.4521H35.0455V11.9297Z" fill="white"/>
<path d="M52.1356 35.0349C49.6839 35.0349 47.8156 34.3924 46.5307 33.1075C45.2605 31.8226 44.6255 29.8435 44.6255 27.1703C44.6255 25.4275 44.9208 23.9727 45.5116 22.806C46.1024 21.6392 46.9738 20.7678 48.1258 20.1918C49.2778 19.601 50.6808 19.3057 52.335 19.3057C53.3688 19.3057 54.3067 19.4164 55.1485 19.638C55.9904 19.8595 56.7141 20.1992 57.3196 20.657C57.9399 21.1001 58.4125 21.6613 58.7375 22.3407C59.0771 23.0201 59.247 23.825 59.247 24.7555H57.0981C57.0981 24.1056 56.9799 23.5518 56.7436 23.094C56.5073 22.6213 56.1676 22.2373 55.7245 21.942C55.2962 21.6466 54.7941 21.4398 54.2181 21.3217C53.6421 21.1887 53.0291 21.1223 52.3793 21.1223C51.4932 21.1223 50.703 21.233 50.0088 21.4546C49.3147 21.6761 48.7313 22.0232 48.2587 22.4958C47.7861 22.9684 47.4242 23.5739 47.1732 24.3124C46.9221 25.0508 46.7965 25.9297 46.7965 26.9487V27.414C46.7965 28.7875 47.0033 29.9025 47.4168 30.7592C47.8451 31.6158 48.4581 32.2435 49.2556 32.6423C50.0532 33.0262 51.0131 33.2183 52.1356 33.2183C53.2728 33.2183 54.2107 33.0632 54.9492 32.753C55.6876 32.4281 56.2341 31.9407 56.5885 31.2909C56.9577 30.641 57.1424 29.8213 57.1424 28.8318V28.566H51.7812V26.7715H59.2692V34.769H57.6741L57.4525 32.8417C57.0538 33.3585 56.5811 33.7795 56.0347 34.1044C55.4882 34.4293 54.8827 34.6656 54.2181 34.8134C53.5682 34.961 52.874 35.0349 52.1356 35.0349ZM65.47 35.0349C65.0417 35.0349 64.6134 34.9832 64.1851 34.8798C63.7568 34.7764 63.358 34.6066 62.9888 34.3703C62.6196 34.1339 62.3242 33.809 62.1026 33.3955C61.8811 32.9672 61.7703 32.4355 61.7703 31.8004C61.7703 31.0029 61.9623 30.3456 62.3463 29.8287C62.7303 29.3118 63.262 28.913 63.9414 28.6324C64.6355 28.337 65.4553 28.1376 66.4005 28.0343C67.3457 27.9161 68.3722 27.857 69.48 27.857V26.5278C69.48 26.0995 69.4059 25.7303 69.2585 25.4201C69.1107 25.11 68.8448 24.8736 68.4608 24.7112C68.0916 24.534 67.5598 24.4454 66.8657 24.4454C66.2011 24.4454 65.6694 24.534 65.2706 24.7112C64.8866 24.8736 64.6134 25.0878 64.4509 25.3537C64.3033 25.6195 64.2294 25.9148 64.2294 26.2398V26.5721H62.3463C62.3316 26.4983 62.3242 26.4244 62.3242 26.3506C62.3242 26.2767 62.3242 26.1881 62.3242 26.0847C62.3242 25.3758 62.5161 24.785 62.9002 24.3124C63.2989 23.825 63.8528 23.4632 64.5617 23.2269C65.2706 22.9758 66.0829 22.8503 66.9986 22.8503C67.9734 22.8503 68.7857 22.9905 69.4357 23.2712C70.1003 23.5518 70.5946 23.9506 70.92 24.4675C71.2592 24.9844 71.4295 25.6047 71.4295 26.3284V32.6423C71.4295 32.9229 71.496 33.1223 71.6289 33.2404C71.7618 33.3438 71.9238 33.3955 72.1163 33.3955H72.9803V34.6804C72.7733 34.769 72.5442 34.8428 72.2935 34.902C72.0422 34.9758 71.7542 35.0127 71.4295 35.0127C71.0453 35.0127 70.7275 34.9315 70.4769 34.769C70.2256 34.6213 70.0338 34.4146 69.9009 34.1487C69.768 33.8681 69.6794 33.5579 69.6351 33.2183H69.48C69.214 33.5875 68.8743 33.9124 68.4608 34.193C68.062 34.4589 67.6115 34.6656 67.1094 34.8134C66.6072 34.961 66.0608 35.0349 65.47 35.0349ZM65.9574 33.3955C66.43 33.3955 66.8731 33.3216 67.2866 33.174C67.715 33.0262 68.0916 32.8195 68.4165 32.5537C68.7414 32.273 68.9999 31.9407 69.1919 31.5567C69.3838 31.1727 69.48 30.7518 69.48 30.294V29.3192C68.2836 29.3192 67.2645 29.3857 66.4226 29.5186C65.5808 29.6515 64.9309 29.8878 64.4731 30.2275C64.03 30.5672 63.8085 31.0472 63.8085 31.6675C63.8085 32.0663 63.8971 32.3912 64.0743 32.6423C64.2516 32.8933 64.5026 33.0854 64.8276 33.2183C65.1525 33.3364 65.5291 33.3955 65.9574 33.3955ZM74.6176 34.769V23.1161H76.1905L76.3678 24.8663H76.5228C76.8185 24.3936 77.1508 24.0096 77.5198 23.7143C77.8895 23.4189 78.2952 23.2047 78.7382 23.0718C79.1813 22.9241 79.6618 22.8503 80.1782 22.8503C80.9315 22.8503 81.5815 23.0054 82.1278 23.3155C82.6747 23.6108 83.0804 24.1278 83.3462 24.8663H83.4792C83.7602 24.3936 84.0849 24.017 84.4539 23.7364C84.8236 23.441 85.2369 23.2195 85.6945 23.0718C86.1528 22.9241 86.6402 22.8503 87.1567 22.8503C87.8656 22.8503 88.4859 22.9758 89.0176 23.2269C89.5493 23.4632 89.9633 23.8619 90.2582 24.4232C90.5684 24.9696 90.7235 25.7081 90.7235 26.6386V34.769H88.7739V26.9487C88.7739 26.4761 88.7151 26.0847 88.5967 25.7746C88.4935 25.4644 88.3385 25.2281 88.1315 25.0657C87.9252 24.8884 87.6815 24.7628 87.4004 24.689C87.1345 24.6152 86.8465 24.5783 86.5364 24.5783C86.0199 24.5783 85.5395 24.7112 85.0964 24.977C84.6685 25.2429 84.321 25.6268 84.0552 26.129C83.7893 26.6312 83.6564 27.2293 83.6564 27.9235V34.769H81.7068V26.9487C81.7068 26.4761 81.648 26.0847 81.5296 25.7746C81.4119 25.4644 81.2568 25.2281 81.0644 25.0657C80.8726 24.8884 80.6365 24.7628 80.3555 24.689C80.0896 24.6152 79.8092 24.5783 79.5136 24.5783C78.9819 24.5783 78.4876 24.7112 78.0293 24.977C77.5862 25.2429 77.2318 25.6268 76.9659 26.129C76.7001 26.6312 76.5672 27.2293 76.5672 27.9235V34.769H74.6176ZM98.3298 35.0349C97.1778 35.0349 96.2031 34.8207 95.4055 34.3924C94.6232 33.9494 94.0251 33.2773 93.6111 32.3764C93.2123 31.4755 93.0129 30.3309 93.0129 28.9426C93.0129 27.5395 93.2123 26.3949 93.6111 25.5087C94.0251 24.6078 94.6301 23.9432 95.4277 23.5149C96.2252 23.0718 97.2222 22.8503 98.4185 22.8503C99.5116 22.8503 100.428 23.0644 101.166 23.4927C101.904 23.9063 102.458 24.534 102.827 25.3758C103.211 26.2028 103.403 27.2441 103.403 28.4995V29.43H95.0289C95.0587 30.3604 95.1916 31.1284 95.4277 31.734C95.679 32.3247 96.048 32.7604 96.5354 33.041C97.0228 33.3069 97.6361 33.4398 98.3741 33.4398C98.8768 33.4398 99.3122 33.3807 99.6812 33.2626C100.065 33.1297 100.383 32.945 100.634 32.7087C100.9 32.4724 101.099 32.1918 101.232 31.8669C101.365 31.5419 101.439 31.1875 101.454 30.8035H103.359C103.344 31.4238 103.226 31.9998 103.004 32.5315C102.783 33.0484 102.458 33.4915 102.03 33.8607C101.602 34.2299 101.077 34.5179 100.457 34.7247C99.8363 34.9315 99.1274 35.0349 98.3298 35.0349ZM95.0732 27.9678H101.387C101.387 27.3179 101.314 26.7715 101.166 26.3284C101.018 25.8854 100.804 25.5235 100.523 25.2429C100.257 24.9622 99.9402 24.7628 99.5705 24.6447C99.216 24.5118 98.8103 24.4454 98.352 24.4454C97.6728 24.4454 97.0968 24.5709 96.624 24.822C96.1518 25.073 95.7898 25.457 95.5385 25.974C95.2878 26.4908 95.1328 27.1555 95.0732 27.9678ZM109.891 35.0349C109.094 35.0349 108.393 34.9536 107.787 34.7912C107.182 34.6287 106.679 34.3924 106.28 34.0823C105.882 33.7721 105.579 33.4028 105.372 32.9746C105.166 32.5463 105.062 32.0589 105.062 31.5124C105.062 31.4386 105.062 31.3721 105.062 31.313C105.062 31.2392 105.069 31.1801 105.084 31.1358H107.011C106.997 31.1949 106.989 31.2466 106.989 31.2909C106.989 31.3352 106.989 31.3795 106.989 31.4238C107.004 31.9407 107.137 32.3469 107.388 32.6423C107.654 32.9376 108.016 33.1444 108.474 33.2626C108.932 33.3807 109.441 33.4398 110.002 33.4398C110.49 33.4398 110.94 33.3807 111.354 33.2626C111.768 33.1297 112.092 32.9376 112.328 32.6866C112.58 32.4207 112.705 32.0884 112.705 31.6897C112.705 31.2023 112.543 30.833 112.218 30.582C111.907 30.3161 111.494 30.1093 110.977 29.9617C110.46 29.8139 109.921 29.6588 109.36 29.4964C108.888 29.3635 108.415 29.2158 107.942 29.0534C107.47 28.8909 107.041 28.6915 106.657 28.4552C106.288 28.2188 105.985 27.9161 105.749 27.5469C105.527 27.1629 105.416 26.6829 105.416 26.1069C105.416 25.5899 105.52 25.1321 105.726 24.7334C105.948 24.3346 106.258 23.9949 106.657 23.7143C107.056 23.4336 107.536 23.2269 108.097 23.094C108.673 22.9462 109.308 22.8724 110.002 22.8724C110.741 22.8724 111.383 22.9536 111.93 23.1161C112.491 23.2785 112.956 23.5075 113.325 23.8029C113.695 24.0982 113.968 24.4379 114.145 24.822C114.322 25.1912 114.411 25.5899 114.411 26.0183C114.411 26.1069 114.411 26.1955 114.411 26.2841C114.411 26.3579 114.404 26.417 114.389 26.4614H112.483V26.2177C112.483 25.9223 112.402 25.6417 112.24 25.3758C112.092 25.0952 111.826 24.8736 111.442 24.7112C111.073 24.534 110.556 24.4454 109.891 24.4454C109.464 24.4454 109.094 24.4823 108.784 24.5561C108.474 24.6152 108.215 24.7185 108.008 24.8663C107.802 24.9992 107.647 25.1616 107.543 25.3537C107.44 25.5309 107.388 25.7376 107.388 25.974C107.388 26.3579 107.514 26.6533 107.765 26.8601C108.016 27.0668 108.348 27.2367 108.762 27.3697C109.19 27.5026 109.648 27.6503 110.135 27.8127C110.652 27.9604 111.176 28.1155 111.708 28.278C112.255 28.4256 112.749 28.6176 113.192 28.854C113.651 29.0903 114.012 29.4152 114.278 29.8287C114.559 30.2275 114.699 30.7592 114.699 31.4238C114.699 32.0441 114.581 32.5832 114.344 33.041C114.108 33.4989 113.768 33.8755 113.325 34.1709C112.897 34.4662 112.388 34.6804 111.797 34.8134C111.221 34.961 110.586 35.0349 109.891 35.0349Z" fill="white"/>
</g>
</g>
</svg>
