<svg width="64" height="64" viewBox="0 0 64 64" fill="none" xmlns="http://www.w3.org/2000/svg">
<circle cx="32" cy="32" r="32" fill="#F8F8F8"/>
<path d="M25.2422 17.7461C22.4895 17.7461 20.2422 19.9934 20.2422 22.7461V40.7461C20.2422 43.4988 22.4895 45.7461 25.2422 45.7461H43.2422C43.7944 45.746 44.2421 45.2984 44.2422 44.7461V22.7461C44.2421 22.1938 43.7944 21.7462 43.2422 21.7461H40.2422V18.7461C40.2421 18.1938 39.7944 17.7462 39.2422 17.7461H25.2422ZM40.2422 23.7461H42.2422V43.7461H25.2422C23.5629 43.7461 22.2422 42.4254 22.2422 40.7461C22.2422 39.0668 23.5629 37.7461 25.2422 37.7461H39.2422C39.7944 37.746 40.2421 37.2984 40.2422 36.7461V23.7461Z" fill="black"/>
<path d="M39.2128 39.7462H25.2408C23.8885 39.7271 23.8885 41.7654 25.2408 41.7462H39.2128C39.7766 41.7542 40.2353 41.2944 40.2266 40.7367C40.2176 40.1791 39.7643 39.7387 39.2128 39.7462Z" fill="black"/>
<path d="M39.2128 39.7462H25.2408C23.8885 39.7271 23.8885 41.7654 25.2408 41.7462H39.2128C39.7766 41.7542 40.2353 41.2944 40.2266 40.7367C40.2176 40.1791 39.7643 39.7387 39.2128 39.7462Z" fill="url(#paint0_linear_6286_4535)"/>
<defs>
<linearGradient id="paint0_linear_6286_4535" x1="23.6193" y1="39.812" x2="24.0202" y2="43.5054" gradientUnits="userSpaceOnUse">
<stop stop-color="#FFBB00"/>
<stop offset="1" stop-color="#FD7702"/>
</linearGradient>
</defs>
</svg>
