<svg width="8" height="11" viewBox="0 0 8 11" fill="none" xmlns="http://www.w3.org/2000/svg">
<path d="M1.41329 0.250181C1.2581 0.246768 1.10571 0.291754 0.977293 0.378956C0.848877 0.466158 0.750821 0.591264 0.696758 0.73677C0.642696 0.882276 0.635312 1.04099 0.675634 1.19089C0.715956 1.34078 0.80198 1.47433 0.921746 1.57308L5.49151 5.48793L0.921746 9.4014C0.838898 9.46229 0.769514 9.53959 0.717941 9.62854C0.666367 9.71749 0.633715 9.81615 0.622028 9.91831C0.610341 10.0205 0.619872 10.1239 0.650023 10.2222C0.680175 10.3205 0.730297 10.4115 0.797252 10.4896C0.864206 10.5676 0.946551 10.6309 1.03913 10.6756C1.13171 10.7204 1.23252 10.7455 1.33527 10.7494C1.43801 10.7534 1.54046 10.7362 1.63621 10.6987C1.73196 10.6612 1.81894 10.6044 1.89171 10.5318L7.12367 6.05531C7.20583 5.9852 7.27181 5.89817 7.31705 5.80009C7.36229 5.702 7.38572 5.59525 7.38572 5.48724C7.38572 5.37922 7.36229 5.27247 7.31705 5.17439C7.27181 5.0763 7.20583 4.98919 7.12367 4.91908L1.89171 0.438304C1.75954 0.32091 1.59002 0.25434 1.41329 0.250181Z" fill="black"/>
</svg>
