<?xml version="1.0" encoding="UTF-8"?>
<svg id="Layer_2" data-name="Layer 2" xmlns="http://www.w3.org/2000/svg" viewBox="0 0 702.19 180.81">
  <defs>
    <style>
      .cls-1 {
        fill: #fff;
        stroke-width: 0px;
      }
    </style>
  </defs>
  <g id="Layer_1-2" data-name="Layer 1">
    <g>
      <path class="cls-1" d="m11.1,10.52v5.67l203.24-.02h280.48l-67.91,147.62h-212.58l-203.06.06v5.61h419.29L503.67,10.52H11.1Z"/>
      <path class="cls-1" d="m564.81,10.48h-43.09l-70.18,159.68h52.85l10.29-27.16h57.15l10.13,27.16h53.01L564.81,10.48Zm-36.39,96.43l14.76-39.62,14.92,39.62h-29.67Z"/>
      <path class="cls-1" d="m648.52,10.48v159.68h43.21V10.48h-43.21Z"/>
      <path class="cls-1" d="m679.8,2.21h22.2V0h-22.2v2.21Z"/>
      <path class="cls-1" d="m702.02,22.17V0h-2.21v22.17h2.21Z"/>
      <path class="cls-1" d="m699.97,158.64v22.17h2.21v-22.17h-2.21Z"/>
      <path class="cls-1" d="m679.98,180.81h22.2v-2.21h-22.2v2.21Z"/>
      <path class="cls-1" d="m22.39,178.59H.18v2.21h22.2v-2.21Z"/>
      <path class="cls-1" d="m.18,158.62v22.17h2.21v-22.17H.18Z"/>
      <path class="cls-1" d="m2.23,22.17V0H.02v22.17h2.21Z"/>
      <path class="cls-1" d="m22.2,0H0v2.21h22.2V0Z"/>
      <path class="cls-1" d="m16.09,10.52h-4.99v158.95h4.99V10.52Z"/>
      <g>
        <path class="cls-1" d="m117.56,68.94v4.4c0,10.21-4.49,14.61-14.61,14.61H26.93V26.35h74.27c10.12,0,14.61,4.4,14.61,14.61v3.7c0,6.25-2.2,10.21-6.51,11.88,5.54,1.23,8.27,5.37,8.27,12.41Zm-66-25.87v7.22h36.78c2.2,0,2.82-.62,2.82-2.82v-1.58c0-2.2-.62-2.82-2.82-2.82h-36.78Zm41.36,23.06c0-2.2-.62-2.82-2.82-2.82h-38.54v7.92h38.54c2.2,0,2.82-.62,2.82-2.82v-2.29Z"/>
        <path class="cls-1" d="m141.5,87.94c-12.58,0-18.48-5.81-18.48-18.48v-24.64c0-12.67,5.9-18.48,18.48-18.48h57.2c12.58,0,18.48,5.81,18.48,18.48v24.64c0,12.67-5.9,18.48-18.48,18.48h-57.2Zm46.99-19.36c3.08,0,4.05-.97,4.05-4.05v-14.78c0-3.08-.97-4.05-4.05-4.05h-36.78c-3.08,0-4.05.97-4.05,4.05v14.78c0,3.08.97,4.05,4.05,4.05h36.78Z"/>
        <path class="cls-1" d="m327.35,26.35h26.4l-30.01,61.6h-20.77l-18.3-35.02-18.3,35.02h-20.77l-30.01-61.6h27.63l15.4,35.2,17.42-35.2h18.13l17.78,35.29,15.4-35.29Z"/>
        <path class="cls-1" d="m381.04,67.71h54.56v20.24h-79.2V26.35h24.64v41.36Z"/>
      </g>
      <g>
        <path class="cls-1" d="m89.2,97.61h22.68v56.7h-22.68v-19.84h-38.88v19.84h-22.68v-56.7h22.68v18.22h38.88v-18.22Z"/>
        <path class="cls-1" d="m184.3,154.31l-4.78-8.42h-34.99l-4.78,8.42h-25.43l35.47-56.7h25.59l35.48,56.7h-26.57Zm-31.43-23h18.39l-9.23-16.2-9.15,16.2Z"/>
        <path class="cls-1" d="m295.1,97.61h24.3l-27.62,56.7h-19.11l-16.85-32.24-16.85,32.24h-19.12l-27.62-56.7h25.43l14.17,32.4,16.04-32.4h16.68l16.36,32.48,14.17-32.48Z"/>
        <path class="cls-1" d="m408.83,154.31h-33.85l-30.45-26.24v26.24h-22.68v-56.7h22.68v25.03l30.13-25.03h33.86l-36.61,27.21,36.93,29.48Z"/>
      </g>
    </g>
  </g>
</svg>