<svg width="82" height="82" viewBox="0 0 82 82" fill="none" xmlns="http://www.w3.org/2000/svg">
<rect width="82" height="82" rx="13.6667" fill="url(#paint0_linear_9481_5689)"/>
<rect width="82" height="82" rx="13.6667" fill="white"/>
<path d="M61.2981 29.0426C61.7658 29.0426 62.0775 28.7308 62.0775 28.2632V23.8205C62.0775 23.4308 61.6878 23.0411 61.2981 23.0411C61.1422 23.0411 56.7775 23.0411 56.8555 23.0411C56.3878 23.0411 56.0761 23.3529 56.0761 23.8205C56.0761 24.2882 56.3878 24.6 56.8555 24.6H59.2716L47.1908 35.3558C46.7231 34.9661 46.0996 34.7323 45.4761 34.7323C44.8525 34.7323 44.3069 34.9661 43.8393 35.2779L38.8511 31.3029C38.929 31.0691 38.929 30.8353 38.929 30.6014C38.929 29.1205 37.7599 27.9514 36.279 27.9514C34.7981 27.9514 33.629 29.1205 33.629 30.6014C33.629 30.9911 33.7069 31.3808 33.8628 31.6926L27.4716 38.0838C27.1599 37.9279 26.7702 37.85 26.3805 37.85C24.8996 37.85 23.7305 39.0191 23.7305 40.5C23.7305 41.9808 24.8996 43.15 26.3805 43.15C27.8614 43.15 29.0305 41.9808 29.0305 40.5C29.0305 39.9544 28.8746 39.4867 28.6408 39.097L34.954 32.8617C35.3437 33.0955 35.8114 33.2514 36.3569 33.2514C36.9805 33.2514 37.604 33.0176 38.0716 32.6279L42.9819 36.6029C42.904 36.8367 42.8261 37.1485 42.8261 37.3823C42.8261 38.8632 43.9952 40.0323 45.4761 40.0323C46.9569 40.0323 48.1261 38.8632 48.1261 37.3823C48.1261 37.1485 48.0481 36.9147 48.0481 36.6808L60.5187 25.5353V28.1853C60.5187 28.6529 60.9084 29.0426 61.2981 29.0426ZM26.3025 41.5911C25.679 41.5911 25.2114 41.1235 25.2114 40.5C25.2114 39.8764 25.679 39.4088 26.3025 39.4088C26.9261 39.4088 27.4716 39.8764 27.4716 40.5C27.4716 41.1235 26.9261 41.5911 26.3025 41.5911ZM36.279 31.6926C35.6555 31.6926 35.1878 31.225 35.1878 30.6014C35.1878 29.9779 35.6555 29.5103 36.279 29.5103C36.9025 29.5103 37.3702 29.9779 37.3702 30.6014C37.3702 31.147 36.9025 31.6926 36.279 31.6926ZM45.4761 38.4735C44.8525 38.4735 44.3849 38.0058 44.3849 37.3823C44.3849 36.7588 44.8525 36.2911 45.4761 36.2911C46.0996 36.2911 46.5672 36.7588 46.5672 37.3823C46.5672 38.0058 46.0996 38.4735 45.4761 38.4735Z" fill="url(#paint1_linear_9481_5689)"/>
<path d="M58.2592 53.9058C62.7798 53.9058 66.443 50.2426 66.443 45.722C66.443 41.5132 63.1695 37.8499 58.8048 37.5382C59.1945 35.9014 59.1165 34.1867 58.493 32.5499C58.3371 32.1602 57.8695 31.9264 57.4798 32.0823C57.0901 32.2382 56.8562 32.7058 57.0121 33.0955C57.6357 34.6544 57.6357 36.447 57.0121 38.0058C56.9342 38.2396 56.9342 38.5514 57.0901 38.7852C57.2459 39.0191 57.4798 39.097 57.7915 39.097C61.7665 38.7852 64.8842 41.9808 64.8842 45.722C64.8842 49.3852 61.9224 52.347 58.2592 52.347H55.6092V41.0455C55.6092 40.5779 55.2974 40.2661 54.8298 40.2661H50.6209C50.1533 40.2661 49.8415 40.5779 49.8415 41.0455V58.8161H47.5033V45.6441C47.5033 45.1764 47.1915 44.8646 46.7239 44.8646H42.5151C42.0474 44.8646 41.7357 45.1764 41.7357 45.6441V58.8161H39.3974V40.8117C39.3974 40.3441 39.0857 40.0323 38.618 40.0323H34.4871C34.0195 40.0323 33.7077 40.3441 33.7077 40.8117V58.8161H31.3695V48.2941C31.3695 47.8264 31.0577 47.5146 30.5901 47.5146H26.3812C25.9136 47.5146 25.6018 47.8264 25.6018 48.2941V51.8793H24.5107C21.1592 51.8793 18.3533 49.3852 18.1195 46.1896C17.9636 44.0852 18.743 42.1367 20.3018 40.7338C20.4577 40.5779 20.6136 40.3441 20.5357 40.1102C20.146 36.6029 22.8739 33.0955 26.771 32.9396C27.2386 32.9396 27.5504 32.5499 27.4724 32.0823C27.0048 26.8602 31.0577 22.1838 36.5136 22.1838C40.9562 22.1838 44.7754 25.3794 45.4768 29.7441C45.5548 30.2896 46.2562 30.6014 46.7239 30.2117C47.893 29.3544 49.218 28.8867 50.6989 28.8867C51.1665 28.8867 51.4783 28.5749 51.4783 28.1073C51.4783 27.6396 51.1665 27.3279 50.6989 27.3279C49.2959 27.3279 47.9709 27.6396 46.8018 28.3411C45.5548 23.7426 41.346 20.547 36.5136 20.547C30.5121 20.547 25.7577 25.4573 25.8357 31.3808C21.5489 32.0043 18.5871 35.8235 18.821 39.8764C17.1062 41.5911 16.2489 43.9293 16.4048 46.3455C16.7165 50.3205 20.2239 53.4382 24.3548 53.4382H25.446V58.8941H24.043C23.5754 58.8941 23.2636 59.2058 23.2636 59.6735C23.2636 60.1411 23.5754 60.4529 24.043 60.4529C26.4592 60.4529 58.493 60.4529 56.8562 60.4529C57.3239 60.4529 57.6357 60.1411 57.6357 59.6735C57.6357 59.2058 57.3239 58.8941 56.8562 58.8941H55.4533V53.9058H58.2592ZM27.1607 58.8941V49.0735H29.8107V58.8161H27.1607V58.8941ZM35.2665 58.8941V41.5911H37.9165V58.8161H35.2665V58.8941ZM43.2945 58.8941V46.4235H45.9445V58.8161H43.2945V58.8941ZM51.4004 58.8941V41.8249H54.0504V58.8161H51.4004V58.8941Z" fill="url(#paint2_linear_9481_5689)"/>
<defs>
<linearGradient id="paint0_linear_9481_5689" x1="41" y1="0" x2="41" y2="82" gradientUnits="userSpaceOnUse">
<stop stop-color="#FFA300"/>
<stop offset="1" stop-color="#EA6F00"/>
</linearGradient>
<linearGradient id="paint1_linear_9481_5689" x1="42.904" y1="23.0411" x2="42.904" y2="43.15" gradientUnits="userSpaceOnUse">
<stop stop-color="#FFA300"/>
<stop offset="1" stop-color="#EA6F00"/>
</linearGradient>
<linearGradient id="paint2_linear_9481_5689" x1="41.4149" y1="20.547" x2="41.4149" y2="60.4529" gradientUnits="userSpaceOnUse">
<stop stop-color="#FFA300"/>
<stop offset="1" stop-color="#EA6F00"/>
</linearGradient>
</defs>
</svg>
