<svg width="82" height="82" viewBox="0 0 82 82" fill="none" xmlns="http://www.w3.org/2000/svg">
<rect width="82" height="82" rx="13.6667" fill="url(#paint0_linear_9481_5686)"/>
<rect width="82" height="82" rx="13.6667" fill="white"/>
<g clip-path="url(#clip0_9481_5686)">
<path d="M60.7687 38.0553C60.5926 33.0377 58.5607 28.3457 54.9928 24.7779C51.2532 21.0375 46.283 18.9783 40.9988 18.9783C30.3261 18.9783 21.6055 27.4732 21.2296 38.0553C19.6009 38.7791 18.4609 40.4092 18.4609 42.3039V47.5234C18.4609 50.0865 20.546 52.1723 23.1098 52.1723C24.7687 52.1723 26.1178 50.8232 26.1178 49.1643V40.6622C26.1178 39.1047 24.9232 37.8347 23.4045 37.6837C23.9651 28.4643 31.6399 21.1345 40.9988 21.1345C45.708 21.1345 50.1362 22.9702 53.4691 26.3031C56.5295 29.3635 58.3207 33.3526 58.5902 37.6845C57.0729 37.8368 55.8805 39.1061 55.8805 40.6622V49.1636C55.8805 50.7341 57.0938 52.012 58.6304 52.145V54.2933C58.6304 56.7126 56.6618 58.6806 54.2425 58.6806H50.993C50.8334 58.2249 50.5833 57.8037 50.2326 57.4544C49.618 56.837 48.7987 56.497 47.9261 56.497H44.5767C44.0959 56.497 43.6344 56.5991 43.2118 56.796C42.0589 57.3257 41.3143 58.4887 41.3143 59.7587C41.3143 60.6313 41.6543 61.4506 42.2703 62.0637C42.8862 62.6811 43.7056 63.0211 44.5767 63.0211H47.9261C49.3147 63.0211 50.5388 62.1234 50.9952 60.8368H54.2425C57.8513 60.8368 60.7867 57.9015 60.7867 54.2933V51.7612C62.4053 51.0331 63.5366 49.4087 63.5366 47.522V42.3024C63.5366 40.4092 62.3967 38.7791 60.7687 38.0553ZM23.9608 40.6622V49.1636C23.9608 49.633 23.5792 50.0153 23.1091 50.0153C21.7348 50.0153 20.6165 48.897 20.6165 47.5227V42.3031C20.6165 40.9282 21.7348 39.8105 23.1091 39.8105C23.5792 39.8105 23.9608 40.1929 23.9608 40.6622ZM49.0078 59.9901C48.9007 60.4976 48.445 60.8663 47.9254 60.8663H44.576C44.2813 60.8663 44.0046 60.7513 43.7933 60.54C43.5848 60.3323 43.4698 60.0548 43.4698 59.7601C43.4698 59.3296 43.7221 58.9365 44.1174 58.7546C44.2583 58.6885 44.4128 58.6547 44.576 58.6547H47.9254C48.2201 58.6547 48.4968 58.769 48.7074 58.9803C48.9158 59.188 49.0308 59.4655 49.0308 59.7601C49.0315 59.8392 49.0229 59.9183 49.0078 59.9901ZM61.3804 47.5227C61.3804 48.897 60.262 50.0153 58.8878 50.0153C58.4184 50.0153 58.036 49.6337 58.036 49.1636V40.6622C58.036 40.1929 58.4177 39.8105 58.8878 39.8105C60.262 39.8105 61.3804 40.9289 61.3804 42.3031V47.5227Z" fill="white"/>
<path d="M60.7687 38.0553C60.5926 33.0377 58.5607 28.3457 54.9928 24.7779C51.2532 21.0375 46.283 18.9783 40.9988 18.9783C30.3261 18.9783 21.6055 27.4732 21.2296 38.0553C19.6009 38.7791 18.4609 40.4092 18.4609 42.3039V47.5234C18.4609 50.0865 20.546 52.1723 23.1098 52.1723C24.7687 52.1723 26.1178 50.8232 26.1178 49.1643V40.6622C26.1178 39.1047 24.9232 37.8347 23.4045 37.6837C23.9651 28.4643 31.6399 21.1345 40.9988 21.1345C45.708 21.1345 50.1362 22.9702 53.4691 26.3031C56.5295 29.3635 58.3207 33.3526 58.5902 37.6845C57.0729 37.8368 55.8805 39.1061 55.8805 40.6622V49.1636C55.8805 50.7341 57.0938 52.012 58.6304 52.145V54.2933C58.6304 56.7126 56.6618 58.6806 54.2425 58.6806H50.993C50.8334 58.2249 50.5833 57.8037 50.2326 57.4544C49.618 56.837 48.7987 56.497 47.9261 56.497H44.5767C44.0959 56.497 43.6344 56.5991 43.2118 56.796C42.0589 57.3257 41.3143 58.4887 41.3143 59.7587C41.3143 60.6313 41.6543 61.4506 42.2703 62.0637C42.8862 62.6811 43.7056 63.0211 44.5767 63.0211H47.9261C49.3147 63.0211 50.5388 62.1234 50.9952 60.8368H54.2425C57.8513 60.8368 60.7867 57.9015 60.7867 54.2933V51.7612C62.4053 51.0331 63.5366 49.4087 63.5366 47.522V42.3024C63.5366 40.4092 62.3967 38.7791 60.7687 38.0553ZM23.9608 40.6622V49.1636C23.9608 49.633 23.5792 50.0153 23.1091 50.0153C21.7348 50.0153 20.6165 48.897 20.6165 47.5227V42.3031C20.6165 40.9282 21.7348 39.8105 23.1091 39.8105C23.5792 39.8105 23.9608 40.1929 23.9608 40.6622ZM49.0078 59.9901C48.9007 60.4976 48.445 60.8663 47.9254 60.8663H44.576C44.2813 60.8663 44.0046 60.7513 43.7933 60.54C43.5848 60.3323 43.4698 60.0548 43.4698 59.7601C43.4698 59.3296 43.7221 58.9365 44.1174 58.7546C44.2583 58.6885 44.4128 58.6547 44.576 58.6547H47.9254C48.2201 58.6547 48.4968 58.769 48.7074 58.9803C48.9158 59.188 49.0308 59.4655 49.0308 59.7601C49.0315 59.8392 49.0229 59.9183 49.0078 59.9901ZM61.3804 47.5227C61.3804 48.897 60.262 50.0153 58.8878 50.0153C58.4184 50.0153 58.036 49.6337 58.036 49.1636V40.6622C58.036 40.1929 58.4177 39.8105 58.8878 39.8105C60.262 39.8105 61.3804 40.9289 61.3804 42.3031V47.5227Z" fill="url(#paint1_linear_9481_5686)"/>
<path d="M47.98 47.8945C50.4993 47.8945 52.5484 45.8446 52.5484 43.3261V34.0176C52.5484 32.8 52.0726 31.6529 51.2087 30.789C50.3447 29.925 49.1983 29.4492 47.98 29.4492H34.0176C31.4984 29.4492 29.4492 31.4984 29.4492 34.0176V43.3261C29.4492 45.8453 31.4984 47.8945 34.0176 47.8945H34.1031V50.3066C34.1031 51.2266 34.6515 52.0431 35.4997 52.3874C35.7735 52.4974 36.0581 52.552 36.3399 52.552C36.9271 52.552 37.4992 52.3191 37.9183 51.8857L41.931 47.8945H47.98ZM40.7271 46.0516L36.3844 50.3706C36.365 50.3907 36.3507 50.4058 36.3097 50.3878C36.2601 50.3677 36.2601 50.3354 36.2601 50.3066V46.8164C36.2601 46.2213 35.7778 45.7383 35.182 45.7383H34.0183C32.6879 45.7383 31.6062 44.6558 31.6062 43.3261V34.0176C31.6062 32.6872 32.6879 31.6055 34.0183 31.6055H47.9808C48.6233 31.6055 49.2278 31.857 49.6849 32.3134C50.142 32.7706 50.3929 33.3758 50.3929 34.0176V43.3261C50.3929 44.6565 49.3104 45.7383 47.9808 45.7383H41.4876C41.2022 45.7383 40.9291 45.8511 40.7271 46.0516Z" fill="white"/>
<path d="M47.98 47.8945C50.4993 47.8945 52.5484 45.8446 52.5484 43.3261V34.0176C52.5484 32.8 52.0726 31.6529 51.2087 30.789C50.3447 29.925 49.1983 29.4492 47.98 29.4492H34.0176C31.4984 29.4492 29.4492 31.4984 29.4492 34.0176V43.3261C29.4492 45.8453 31.4984 47.8945 34.0176 47.8945H34.1031V50.3066C34.1031 51.2266 34.6515 52.0431 35.4997 52.3874C35.7735 52.4974 36.0581 52.552 36.3399 52.552C36.9271 52.552 37.4992 52.3191 37.9183 51.8857L41.931 47.8945H47.98ZM40.7271 46.0516L36.3844 50.3706C36.365 50.3907 36.3507 50.4058 36.3097 50.3878C36.2601 50.3677 36.2601 50.3354 36.2601 50.3066V46.8164C36.2601 46.2213 35.7778 45.7383 35.182 45.7383H34.0183C32.6879 45.7383 31.6062 44.6558 31.6062 43.3261V34.0176C31.6062 32.6872 32.6879 31.6055 34.0183 31.6055H47.9808C48.6233 31.6055 49.2278 31.857 49.6849 32.3134C50.142 32.7706 50.3929 33.3758 50.3929 34.0176V43.3261C50.3929 44.6565 49.3104 45.7383 47.9808 45.7383H41.4876C41.2022 45.7383 40.9291 45.8511 40.7271 46.0516Z" fill="url(#paint2_linear_9481_5686)"/>
<path d="M35.7625 37.2532C34.8856 37.2532 34.1719 37.9676 34.1719 38.8438C34.1719 39.7199 34.8863 40.4344 35.7625 40.4344C36.6401 40.4344 37.3545 39.7199 37.3545 38.8438C37.3545 37.9676 36.6408 37.2532 35.7625 37.2532Z" fill="white"/>
<path d="M35.7625 37.2532C34.8856 37.2532 34.1719 37.9676 34.1719 38.8438C34.1719 39.7199 34.8863 40.4344 35.7625 40.4344C36.6401 40.4344 37.3545 39.7199 37.3545 38.8438C37.3545 37.9676 36.6408 37.2532 35.7625 37.2532Z" fill="url(#paint3_linear_9481_5686)"/>
<path d="M40.9968 37.2532C40.12 37.2532 39.4062 37.9676 39.4062 38.8438C39.4062 39.7199 40.1207 40.4344 40.9968 40.4344C41.8752 40.4344 42.5889 39.7199 42.5889 38.8438C42.5889 37.9676 41.8752 37.2532 40.9968 37.2532Z" fill="white"/>
<path d="M40.9968 37.2532C40.12 37.2532 39.4062 37.9676 39.4062 38.8438C39.4062 39.7199 40.1207 40.4344 40.9968 40.4344C41.8752 40.4344 42.5889 39.7199 42.5889 38.8438C42.5889 37.9676 41.8752 37.2532 40.9968 37.2532Z" fill="url(#paint4_linear_9481_5686)"/>
<path d="M46.2351 37.2532C45.3583 37.2532 44.6445 37.9676 44.6445 38.8438C44.6445 39.7199 45.359 40.4344 46.2351 40.4344C47.1127 40.4344 47.8272 39.7199 47.8272 38.8438C47.8272 37.9676 47.1127 37.2532 46.2351 37.2532Z" fill="white"/>
<path d="M46.2351 37.2532C45.3583 37.2532 44.6445 37.9676 44.6445 38.8438C44.6445 39.7199 45.359 40.4344 46.2351 40.4344C47.1127 40.4344 47.8272 39.7199 47.8272 38.8438C47.8272 37.9676 47.1127 37.2532 46.2351 37.2532Z" fill="url(#paint5_linear_9481_5686)"/>
</g>
<defs>
<linearGradient id="paint0_linear_9481_5686" x1="41" y1="0" x2="41" y2="82" gradientUnits="userSpaceOnUse">
<stop stop-color="#FFA300"/>
<stop offset="1" stop-color="#EA6F00"/>
</linearGradient>
<linearGradient id="paint1_linear_9481_5686" x1="40.9988" y1="18.9783" x2="40.9988" y2="63.0211" gradientUnits="userSpaceOnUse">
<stop stop-color="#FFA300"/>
<stop offset="1" stop-color="#EA6F00"/>
</linearGradient>
<linearGradient id="paint2_linear_9481_5686" x1="40.9988" y1="29.4492" x2="40.9988" y2="52.552" gradientUnits="userSpaceOnUse">
<stop stop-color="#FFA300"/>
<stop offset="1" stop-color="#EA6F00"/>
</linearGradient>
<linearGradient id="paint3_linear_9481_5686" x1="35.7632" y1="37.2532" x2="35.7632" y2="40.4344" gradientUnits="userSpaceOnUse">
<stop stop-color="#FFA300"/>
<stop offset="1" stop-color="#EA6F00"/>
</linearGradient>
<linearGradient id="paint4_linear_9481_5686" x1="40.9976" y1="37.2532" x2="40.9976" y2="40.4344" gradientUnits="userSpaceOnUse">
<stop stop-color="#FFA300"/>
<stop offset="1" stop-color="#EA6F00"/>
</linearGradient>
<linearGradient id="paint5_linear_9481_5686" x1="46.2358" y1="37.2532" x2="46.2358" y2="40.4344" gradientUnits="userSpaceOnUse">
<stop stop-color="#FFA300"/>
<stop offset="1" stop-color="#EA6F00"/>
</linearGradient>
<clipPath id="clip0_9481_5686">
<rect width="46" height="46" fill="white" transform="translate(18 18)"/>
</clipPath>
</defs>
</svg>
