<svg width="82" height="82" viewBox="0 0 82 82" fill="none" xmlns="http://www.w3.org/2000/svg">
<rect width="82" height="82" rx="13.6667" fill="url(#paint0_linear_9481_5690)"/>
<rect width="82" height="82" rx="13.6667" fill="white"/>
<path d="M32.7648 46.274C32.9589 46.355 33.1772 46.3555 33.3716 46.2755C33.5661 46.1955 33.7209 46.0415 33.8018 45.8475L34.9197 43.1637H39.1487L40.2666 45.8475C40.4352 46.2517 40.8995 46.4426 41.3036 46.274C41.7078 46.1055 41.8988 45.6412 41.7302 45.237L37.7661 35.723C37.6429 35.4276 37.3543 35.2352 37.0343 35.2352C36.7143 35.2352 36.4257 35.4276 36.3025 35.723L32.3384 45.237C32.2574 45.4311 32.2568 45.6494 32.3368 45.8439C32.4168 46.0383 32.5707 46.1931 32.7648 46.274ZM37.0342 38.0895L38.4875 41.578H35.5809L37.0342 38.0895Z" fill="white"/>
<path d="M32.7648 46.274C32.9589 46.355 33.1772 46.3555 33.3716 46.2755C33.5661 46.1955 33.7209 46.0415 33.8018 45.8475L34.9197 43.1637H39.1487L40.2666 45.8475C40.4352 46.2517 40.8995 46.4426 41.3036 46.274C41.7078 46.1055 41.8988 45.6412 41.7302 45.237L37.7661 35.723C37.6429 35.4276 37.3543 35.2352 37.0343 35.2352C36.7143 35.2352 36.4257 35.4276 36.3025 35.723L32.3384 45.237C32.2574 45.4311 32.2568 45.6494 32.3368 45.8439C32.4168 46.0383 32.5707 46.1931 32.7648 46.274ZM37.0342 38.0895L38.4875 41.578H35.5809L37.0342 38.0895Z" fill="url(#paint1_linear_9481_5690)"/>
<path fill-rule="evenodd" clip-rule="evenodd" d="M43.3788 44.7493C42.9409 44.7493 42.5859 45.1042 42.5859 45.5421C42.5859 45.98 42.9409 46.335 43.3788 46.335H48.1358C48.5737 46.335 48.9287 45.98 48.9287 45.5421C48.9287 45.1042 48.5737 44.7493 48.1358 44.7493H46.5501V36.8209H48.1358C48.5737 36.8209 48.9287 36.466 48.9287 36.0281C48.9287 35.5902 48.5737 35.2352 48.1358 35.2352H43.3788C42.9409 35.2352 42.5859 35.5902 42.5859 36.0281C42.5859 36.466 42.9409 36.8209 43.3788 36.8209H44.9645V44.7493H43.3788Z" fill="white"/>
<path fill-rule="evenodd" clip-rule="evenodd" d="M43.3788 44.7493C42.9409 44.7493 42.5859 45.1042 42.5859 45.5421C42.5859 45.98 42.9409 46.335 43.3788 46.335H48.1358C48.5737 46.335 48.9287 45.98 48.9287 45.5421C48.9287 45.1042 48.5737 44.7493 48.1358 44.7493H46.5501V36.8209H48.1358C48.5737 36.8209 48.9287 36.466 48.9287 36.0281C48.9287 35.5902 48.5737 35.2352 48.1358 35.2352H43.3788C42.9409 35.2352 42.5859 35.5902 42.5859 36.0281C42.5859 36.466 42.9409 36.8209 43.3788 36.8209H44.9645V44.7493H43.3788Z" fill="url(#paint2_linear_9481_5690)"/>
<path d="M18.0057 51.8848C18.0057 53.6363 19.4256 55.0561 21.1771 55.0561C21.5743 55.0547 21.9676 54.9777 22.3362 54.8294C24.2104 56.2644 26.8554 57.0129 30.106 57.0129C30.5959 57.0129 31.105 56.9899 31.6211 56.9566C33.9235 61.6613 37.2455 64.5702 40.9979 64.5702C44.7504 64.5702 48.0724 61.6613 50.3756 56.959C50.8925 56.9923 51.4007 57.0152 51.8907 57.0152C55.1413 57.0152 57.7862 56.2668 59.6605 54.8317C60.0289 54.9791 60.422 55.0553 60.8188 55.0561C62.2186 55.0522 63.4502 54.131 63.8494 52.7892C64.2486 51.4476 63.721 50.0029 62.5511 49.2343C62.6621 46.6814 61.675 43.7843 59.666 40.7851C61.675 37.7866 62.6622 34.8895 62.5511 32.3358C63.9218 31.4513 64.3954 29.6696 63.6448 28.2212C62.8942 26.7729 61.1655 26.1325 59.6525 26.7423C57.4984 25.094 54.3175 24.3638 50.3763 24.6207C48.0757 19.9121 44.7521 17 40.998 17C37.2439 17 33.9203 19.9121 31.6172 24.6208C27.6776 24.3655 24.4983 25.0964 22.3409 26.7424C20.8289 26.1375 19.1046 26.7788 18.3553 28.2248C17.606 29.6707 18.0763 31.4493 19.4423 32.3359C19.3329 34.888 20.3208 37.785 22.3298 40.7851C20.3208 43.7844 19.3329 46.6815 19.4447 49.2344C18.548 49.818 18.0067 50.815 18.0057 51.8848ZM19.5914 51.8848C19.5914 51.0091 20.3013 50.2991 21.1771 50.2991C22.0529 50.2991 22.7628 51.009 22.7628 51.8848C22.7628 52.7606 22.0529 53.4705 21.1771 53.4705C20.7566 53.4705 20.3532 53.3035 20.0559 53.0061C19.7585 52.7087 19.5914 52.3054 19.5914 51.8848ZM32.6011 26.2921C34.7118 26.5448 36.7912 27.0116 38.8074 27.6851C37.3883 28.3185 36.0025 29.0239 34.6554 29.7988C33.3035 30.579 31.994 31.4304 30.7324 32.3494C31.148 30.2721 31.7742 28.2425 32.6011 26.2921ZM51.2629 32.3494C50.0016 31.4303 48.6924 30.5789 47.3407 29.7988C45.9955 29.0249 44.6121 28.3194 43.1957 27.6851C45.2099 27.0119 47.2871 26.5452 49.3957 26.2921C50.2221 28.2426 50.8477 30.2721 51.2629 32.3494ZM49.3949 55.2782C47.2843 55.0255 45.2048 54.5587 43.1886 53.8852C44.6077 53.2518 45.9936 52.5463 47.3407 51.7714C48.6925 50.9912 50.002 50.1399 51.2636 49.2209C50.848 51.2982 50.2219 53.3277 49.3949 55.2782ZM46.5479 31.1728C48.3358 32.2017 50.0451 33.3616 51.6617 34.643C51.9533 36.6774 52.0989 38.73 52.0977 40.7851C52.0992 42.8403 51.9537 44.8929 51.6625 46.9273C50.0455 48.2086 48.336 49.3685 46.5479 50.3975C44.7655 51.4284 42.9107 52.3288 40.998 53.0915C39.0853 52.3284 37.2305 51.4275 35.4481 50.3959C33.6602 49.3669 31.951 48.207 30.3344 46.9256C29.754 42.8514 29.754 38.7156 30.3344 34.6414C31.951 33.3606 33.6603 32.2013 35.4481 31.1727C37.232 30.141 39.0885 29.2401 41.0028 28.477C42.9139 29.2405 44.7671 30.1414 46.5479 31.1728ZM53.4456 36.1415C55.0269 37.5414 56.4631 39.0971 57.7325 40.7851C56.4649 42.4728 55.0305 44.0286 53.4512 45.4288C53.6068 43.8859 53.6844 42.336 53.6835 40.7851C53.6839 39.2343 53.6058 37.6844 53.4496 36.1415H53.4456ZM28.5505 45.4288C26.9687 44.0293 25.5325 42.4734 24.2636 40.7851C25.5311 39.0975 26.9655 37.5417 28.5448 36.1415C28.233 39.2294 28.233 42.3409 28.5448 45.4288H28.5505ZM34.66 51.7714C36.0052 52.5454 37.3886 53.2509 38.805 53.8852C36.7909 54.5584 34.7136 55.0251 32.605 55.2782C31.7784 53.3277 31.1525 51.2982 30.7371 49.2209C31.9971 50.1399 33.305 50.9912 34.6553 51.7714H34.66ZM40.998 62.9846C38.0201 62.9846 35.3142 60.6227 33.3186 56.7917C35.9462 56.4192 38.5227 55.7478 40.998 54.7906C43.4743 55.7483 46.0519 56.4196 48.6806 56.7917C46.6811 60.6227 43.9759 62.9846 40.998 62.9846ZM60.819 53.4705C59.9433 53.4705 59.2333 52.7606 59.2333 51.8848C59.2333 51.009 59.9432 50.2991 60.819 50.2991C61.6948 50.2991 62.4047 51.009 62.4047 51.8848C62.4047 52.7606 61.6947 53.4705 60.819 53.4705ZM60.9854 48.7301C60.9292 48.7301 60.876 48.7135 60.8189 48.7135C59.0674 48.7135 57.6476 50.1334 57.6476 51.8848C57.6505 52.5938 57.8934 53.2809 58.3366 53.8344C56.6098 54.9737 54.0893 55.5152 51.0702 55.4018C52.0532 52.9461 52.7499 50.3852 53.1466 47.77C55.1973 46.1187 57.0532 44.2392 58.6783 42.1678C60.0169 44.1114 60.8134 46.3765 60.9854 48.7301ZM62.4046 29.6854C62.4046 30.5611 61.6947 31.2711 60.8189 31.2711C59.9431 31.2711 59.2332 30.5612 59.2332 29.6854C59.2332 28.8096 59.9431 28.0997 60.8189 28.0997C61.6947 28.0997 62.4046 28.8097 62.4046 29.6854ZM58.3366 27.7358C57.8934 28.2893 57.6506 28.9764 57.6476 29.6854C57.6476 31.4369 59.0675 32.8567 60.8189 32.8567C60.876 32.8567 60.9291 32.8432 60.9854 32.8401C60.8135 35.1938 60.0172 37.459 58.6783 39.4024C57.0528 37.331 55.1968 35.4514 53.1459 33.8002C52.7486 31.1849 52.051 28.624 51.067 26.1684C54.0886 26.0542 56.6106 26.5933 58.3366 27.7358ZM40.998 18.5857C43.9759 18.5857 46.6819 20.9476 48.6775 24.7785C46.0512 25.1514 43.476 25.8227 41.002 26.7797C38.5257 25.822 35.9481 25.1507 33.3194 24.7785C35.3149 20.9476 38.0201 18.5857 40.998 18.5857ZM21.1771 28.0998C22.0528 28.0998 22.7628 28.8097 22.7628 29.6855C22.7628 30.5613 22.0528 31.2712 21.1771 31.2712C20.3013 31.2712 19.5913 30.5613 19.5913 29.6855C19.5913 28.8097 20.3013 28.0998 21.1771 28.0998ZM21.0106 32.8401C21.0669 32.8401 21.12 32.8567 21.1771 32.8567C22.9286 32.8567 24.3485 31.4368 24.3485 29.6854C24.3455 28.9764 24.1027 28.2892 23.6595 27.7358C25.3855 26.5965 27.9059 26.0558 30.9258 26.1684C29.9429 28.6241 29.2461 31.185 28.8494 33.8002C26.799 35.4514 24.9431 37.3306 23.3178 39.4016C21.9786 37.4586 21.1822 35.1936 21.0106 32.8401ZM23.3178 42.1686C24.9439 44.2394 26.8002 46.1186 28.851 47.77C29.2481 50.3856 29.9454 52.9467 30.929 55.4026C27.9115 55.5168 25.3894 54.9737 23.6627 53.8344C24.1047 53.2805 24.3463 52.5934 24.3485 51.8848C24.3485 50.1333 22.9286 48.7135 21.1771 48.7135C21.12 48.7135 21.067 48.7278 21.0106 48.7301C21.1825 46.3767 21.9789 44.1117 23.3178 42.1686Z" fill="white"/>
<path d="M18.0057 51.8848C18.0057 53.6363 19.4256 55.0561 21.1771 55.0561C21.5743 55.0547 21.9676 54.9777 22.3362 54.8294C24.2104 56.2644 26.8554 57.0129 30.106 57.0129C30.5959 57.0129 31.105 56.9899 31.6211 56.9566C33.9235 61.6613 37.2455 64.5702 40.9979 64.5702C44.7504 64.5702 48.0724 61.6613 50.3756 56.959C50.8925 56.9923 51.4007 57.0152 51.8907 57.0152C55.1413 57.0152 57.7862 56.2668 59.6605 54.8317C60.0289 54.9791 60.422 55.0553 60.8188 55.0561C62.2186 55.0522 63.4502 54.131 63.8494 52.7892C64.2486 51.4476 63.721 50.0029 62.5511 49.2343C62.6621 46.6814 61.675 43.7843 59.666 40.7851C61.675 37.7866 62.6622 34.8895 62.5511 32.3358C63.9218 31.4513 64.3954 29.6696 63.6448 28.2212C62.8942 26.7729 61.1655 26.1325 59.6525 26.7423C57.4984 25.094 54.3175 24.3638 50.3763 24.6207C48.0757 19.9121 44.7521 17 40.998 17C37.2439 17 33.9203 19.9121 31.6172 24.6208C27.6776 24.3655 24.4983 25.0964 22.3409 26.7424C20.8289 26.1375 19.1046 26.7788 18.3553 28.2248C17.606 29.6707 18.0763 31.4493 19.4423 32.3359C19.3329 34.888 20.3208 37.785 22.3298 40.7851C20.3208 43.7844 19.3329 46.6815 19.4447 49.2344C18.548 49.818 18.0067 50.815 18.0057 51.8848ZM19.5914 51.8848C19.5914 51.0091 20.3013 50.2991 21.1771 50.2991C22.0529 50.2991 22.7628 51.009 22.7628 51.8848C22.7628 52.7606 22.0529 53.4705 21.1771 53.4705C20.7566 53.4705 20.3532 53.3035 20.0559 53.0061C19.7585 52.7087 19.5914 52.3054 19.5914 51.8848ZM32.6011 26.2921C34.7118 26.5448 36.7912 27.0116 38.8074 27.6851C37.3883 28.3185 36.0025 29.0239 34.6554 29.7988C33.3035 30.579 31.994 31.4304 30.7324 32.3494C31.148 30.2721 31.7742 28.2425 32.6011 26.2921ZM51.2629 32.3494C50.0016 31.4303 48.6924 30.5789 47.3407 29.7988C45.9955 29.0249 44.6121 28.3194 43.1957 27.6851C45.2099 27.0119 47.2871 26.5452 49.3957 26.2921C50.2221 28.2426 50.8477 30.2721 51.2629 32.3494ZM49.3949 55.2782C47.2843 55.0255 45.2048 54.5587 43.1886 53.8852C44.6077 53.2518 45.9936 52.5463 47.3407 51.7714C48.6925 50.9912 50.002 50.1399 51.2636 49.2209C50.848 51.2982 50.2219 53.3277 49.3949 55.2782ZM46.5479 31.1728C48.3358 32.2017 50.0451 33.3616 51.6617 34.643C51.9533 36.6774 52.0989 38.73 52.0977 40.7851C52.0992 42.8403 51.9537 44.8929 51.6625 46.9273C50.0455 48.2086 48.336 49.3685 46.5479 50.3975C44.7655 51.4284 42.9107 52.3288 40.998 53.0915C39.0853 52.3284 37.2305 51.4275 35.4481 50.3959C33.6602 49.3669 31.951 48.207 30.3344 46.9256C29.754 42.8514 29.754 38.7156 30.3344 34.6414C31.951 33.3606 33.6603 32.2013 35.4481 31.1727C37.232 30.141 39.0885 29.2401 41.0028 28.477C42.9139 29.2405 44.7671 30.1414 46.5479 31.1728ZM53.4456 36.1415C55.0269 37.5414 56.4631 39.0971 57.7325 40.7851C56.4649 42.4728 55.0305 44.0286 53.4512 45.4288C53.6068 43.8859 53.6844 42.336 53.6835 40.7851C53.6839 39.2343 53.6058 37.6844 53.4496 36.1415H53.4456ZM28.5505 45.4288C26.9687 44.0293 25.5325 42.4734 24.2636 40.7851C25.5311 39.0975 26.9655 37.5417 28.5448 36.1415C28.233 39.2294 28.233 42.3409 28.5448 45.4288H28.5505ZM34.66 51.7714C36.0052 52.5454 37.3886 53.2509 38.805 53.8852C36.7909 54.5584 34.7136 55.0251 32.605 55.2782C31.7784 53.3277 31.1525 51.2982 30.7371 49.2209C31.9971 50.1399 33.305 50.9912 34.6553 51.7714H34.66ZM40.998 62.9846C38.0201 62.9846 35.3142 60.6227 33.3186 56.7917C35.9462 56.4192 38.5227 55.7478 40.998 54.7906C43.4743 55.7483 46.0519 56.4196 48.6806 56.7917C46.6811 60.6227 43.9759 62.9846 40.998 62.9846ZM60.819 53.4705C59.9433 53.4705 59.2333 52.7606 59.2333 51.8848C59.2333 51.009 59.9432 50.2991 60.819 50.2991C61.6948 50.2991 62.4047 51.009 62.4047 51.8848C62.4047 52.7606 61.6947 53.4705 60.819 53.4705ZM60.9854 48.7301C60.9292 48.7301 60.876 48.7135 60.8189 48.7135C59.0674 48.7135 57.6476 50.1334 57.6476 51.8848C57.6505 52.5938 57.8934 53.2809 58.3366 53.8344C56.6098 54.9737 54.0893 55.5152 51.0702 55.4018C52.0532 52.9461 52.7499 50.3852 53.1466 47.77C55.1973 46.1187 57.0532 44.2392 58.6783 42.1678C60.0169 44.1114 60.8134 46.3765 60.9854 48.7301ZM62.4046 29.6854C62.4046 30.5611 61.6947 31.2711 60.8189 31.2711C59.9431 31.2711 59.2332 30.5612 59.2332 29.6854C59.2332 28.8096 59.9431 28.0997 60.8189 28.0997C61.6947 28.0997 62.4046 28.8097 62.4046 29.6854ZM58.3366 27.7358C57.8934 28.2893 57.6506 28.9764 57.6476 29.6854C57.6476 31.4369 59.0675 32.8567 60.8189 32.8567C60.876 32.8567 60.9291 32.8432 60.9854 32.8401C60.8135 35.1938 60.0172 37.459 58.6783 39.4024C57.0528 37.331 55.1968 35.4514 53.1459 33.8002C52.7486 31.1849 52.051 28.624 51.067 26.1684C54.0886 26.0542 56.6106 26.5933 58.3366 27.7358ZM40.998 18.5857C43.9759 18.5857 46.6819 20.9476 48.6775 24.7785C46.0512 25.1514 43.476 25.8227 41.002 26.7797C38.5257 25.822 35.9481 25.1507 33.3194 24.7785C35.3149 20.9476 38.0201 18.5857 40.998 18.5857ZM21.1771 28.0998C22.0528 28.0998 22.7628 28.8097 22.7628 29.6855C22.7628 30.5613 22.0528 31.2712 21.1771 31.2712C20.3013 31.2712 19.5913 30.5613 19.5913 29.6855C19.5913 28.8097 20.3013 28.0998 21.1771 28.0998ZM21.0106 32.8401C21.0669 32.8401 21.12 32.8567 21.1771 32.8567C22.9286 32.8567 24.3485 31.4368 24.3485 29.6854C24.3455 28.9764 24.1027 28.2892 23.6595 27.7358C25.3855 26.5965 27.9059 26.0558 30.9258 26.1684C29.9429 28.6241 29.2461 31.185 28.8494 33.8002C26.799 35.4514 24.9431 37.3306 23.3178 39.4016C21.9786 37.4586 21.1822 35.1936 21.0106 32.8401ZM23.3178 42.1686C24.9439 44.2394 26.8002 46.1186 28.851 47.77C29.2481 50.3856 29.9454 52.9467 30.929 55.4026C27.9115 55.5168 25.3894 54.9737 23.6627 53.8344C24.1047 53.2805 24.3463 52.5934 24.3485 51.8848C24.3485 50.1333 22.9286 48.7135 21.1771 48.7135C21.12 48.7135 21.067 48.7278 21.0106 48.7301C21.1825 46.3767 21.9789 44.1117 23.3178 42.1686Z" fill="url(#paint3_linear_9481_5690)"/>
<defs>
<linearGradient id="paint0_linear_9481_5690" x1="41" y1="0" x2="41" y2="82" gradientUnits="userSpaceOnUse">
<stop stop-color="#FFA300"/>
<stop offset="1" stop-color="#EA6F00"/>
</linearGradient>
<linearGradient id="paint1_linear_9481_5690" x1="37.0344" y1="35.2352" x2="37.0344" y2="46.3353" gradientUnits="userSpaceOnUse">
<stop stop-color="#FFA300"/>
<stop offset="1" stop-color="#EA6F00"/>
</linearGradient>
<linearGradient id="paint2_linear_9481_5690" x1="45.7573" y1="35.2352" x2="45.7573" y2="46.335" gradientUnits="userSpaceOnUse">
<stop stop-color="#FFA300"/>
<stop offset="1" stop-color="#EA6F00"/>
</linearGradient>
<linearGradient id="paint3_linear_9481_5690" x1="41" y1="17" x2="41" y2="64.5702" gradientUnits="userSpaceOnUse">
<stop stop-color="#FFA300"/>
<stop offset="1" stop-color="#EA6F00"/>
</linearGradient>
</defs>
</svg>
