<svg width="64" height="64" viewBox="0 0 64 64" fill="none" xmlns="http://www.w3.org/2000/svg">
<rect width="64" height="64" fill="black"/>
<path d="M40.3397 32.9821C40.1004 32.6782 39.7997 32.4282 39.4573 32.2483C39.4215 32.228 39.3916 32.1985 39.3709 32.1629C39.3501 32.1273 39.3392 32.0868 39.3392 32.0456C39.3392 32.0044 39.3501 31.9639 39.3709 31.9283C39.3916 31.8927 39.4215 31.8632 39.4573 31.8429C39.5068 31.8135 39.5564 31.7805 39.6041 31.7475C39.8079 31.6042 39.9854 31.4267 40.1287 31.2228C40.477 30.7293 40.6577 30.1371 40.6442 29.5333C40.6555 29.0288 40.5407 28.5294 40.3103 28.0804C40.0808 27.6583 39.7522 27.2982 39.3528 27.0311C38.8954 26.7306 38.3868 26.5167 37.8522 26.4C37.2095 26.254 36.552 26.1839 35.893 26.1909H26.0639C25.9064 26.1911 25.7534 26.2431 25.6284 26.3389C25.5034 26.4347 25.4134 26.569 25.3723 26.7211L24.3762 30.401C24.1964 31.0761 24.0368 31.6784 23.8974 32.2079C23.8222 32.4959 23.7525 32.7784 23.6901 33.0536C23.6787 33.1008 23.653 33.1433 23.6165 33.1752C23.58 33.2072 23.5344 33.2271 23.4862 33.2321C23.4379 33.2371 23.3893 33.2271 23.3469 33.2033C23.3046 33.1796 23.2707 33.1433 23.2498 33.0995C23.1471 32.883 23.0297 32.6464 22.8976 32.3859C22.7655 32.1254 22.6133 31.8355 22.4445 31.52C22.2757 31.2045 22.0776 30.8302 21.8483 30.4083L20.2413 27.3558C20.1144 27.0954 19.9527 26.8535 19.7607 26.6367C19.6139 26.4756 19.4431 26.3382 19.2544 26.2294C19.0831 26.1365 18.8968 26.0744 18.704 26.046C18.4946 26.0138 18.283 25.9985 18.0711 26.0001C17.8654 25.999 17.6599 26.0143 17.4566 26.046C17.2638 26.0744 17.0775 26.1365 16.9063 26.2294C16.7191 26.3366 16.5511 26.4743 16.4091 26.6367C16.2239 26.8544 16.0662 27.0941 15.9395 27.3503L14.3142 30.3845C13.8922 31.1672 13.5516 31.8147 13.2924 32.3272C13.1566 32.595 13.03 32.8506 12.9126 33.094C12.8916 33.138 12.8573 33.1743 12.8146 33.1978C12.7718 33.2213 12.7227 33.2308 12.6743 33.2249C12.6259 33.2191 12.5805 33.1981 12.5446 33.1651C12.5087 33.132 12.4841 33.0886 12.4742 33.0408C12.4143 32.7668 12.3531 32.4898 12.2908 32.2098C12.1685 31.6924 12.0089 31.0901 11.812 30.4028L10.7113 26.367C10.6997 26.3155 10.6712 26.2694 10.6303 26.2361C10.5893 26.2029 10.5384 26.1843 10.4856 26.1836H7.23681C7.19967 26.1832 7.16299 26.1917 7.12978 26.2083C7.09657 26.225 7.06777 26.2492 7.04575 26.2791C7.02372 26.309 7.00911 26.3437 7.0031 26.3804C6.99709 26.417 6.99985 26.4545 7.01117 26.4899L9.99584 36.8124C10.1194 37.3119 10.4092 37.7544 10.8177 38.0672C11.1875 38.3357 11.6338 38.4785 12.0908 38.4745C12.5303 38.4904 12.9637 38.3672 13.3291 38.1222C13.6713 37.8784 13.9541 37.5605 14.1564 37.1922L16.0899 33.7599C16.3541 33.2903 16.5828 32.8806 16.776 32.5308C16.9595 32.1822 17.1429 31.8649 17.2915 31.5824C17.4401 31.2999 17.574 31.0431 17.6877 30.8137C17.7263 30.7385 17.7648 30.6615 17.8015 30.5863C17.8205 30.5467 17.8503 30.5133 17.8874 30.4899C17.9246 30.4665 17.9676 30.4541 18.0115 30.4541C18.0554 30.4541 18.0985 30.4665 18.1356 30.4899C18.1728 30.5133 18.2026 30.5467 18.2216 30.5863C18.2601 30.6633 18.2986 30.7422 18.339 30.8192C18.449 31.0455 18.5836 31.3023 18.7426 31.5897C18.9015 31.8771 19.0758 32.1963 19.2654 32.5473C19.4574 32.9032 19.6861 33.3159 19.9515 33.7856L21.885 37.1995C22.0915 37.5713 22.3786 37.8923 22.7252 38.1388C23.0866 38.3765 23.5128 38.4964 23.9451 38.4818C24.4021 38.4858 24.8484 38.343 25.2182 38.0745C25.6267 37.7617 25.9165 37.3192 26.0401 36.8198L26.9573 33.6828C26.9716 33.6341 27.0013 33.5913 27.042 33.5608C27.0827 33.5304 27.1321 33.514 27.1829 33.5141H36.3094C36.5298 33.5141 36.7411 33.6016 36.897 33.7575C37.0528 33.9133 37.1404 34.1247 37.1404 34.3451C37.1404 34.5655 37.0528 34.7769 36.897 34.9327C36.7411 35.0885 36.5298 35.1761 36.3094 35.1761H28.4817C28.431 35.1763 28.3817 35.1929 28.341 35.2232C28.3004 35.2536 28.2706 35.2963 28.2561 35.3449L27.4985 37.9847C27.4885 38.0196 27.4868 38.0563 27.4935 38.092C27.5002 38.1277 27.515 38.1613 27.5369 38.1903C27.5587 38.2193 27.587 38.2428 27.6195 38.259C27.652 38.2752 27.6878 38.2836 27.7241 38.2837H35.9792C36.7828 38.302 37.5851 38.2106 38.364 38.0122C38.9126 37.8762 39.4264 37.6262 39.8719 37.2784C40.2301 36.9885 40.5049 36.6086 40.6681 36.1777C40.8281 35.728 40.9075 35.2535 40.9029 34.7762C40.9317 34.1306 40.7323 33.4954 40.3397 32.9821ZM36.3534 30.9238H28.0836C28.0473 30.9236 28.0115 30.9149 27.9791 30.8985C27.9466 30.882 27.9185 30.8583 27.8968 30.8291C27.8751 30.8 27.8604 30.7662 27.854 30.7304C27.8476 30.6946 27.8496 30.6578 27.8598 30.623L28.19 29.5021C28.204 29.4535 28.2334 29.4107 28.2737 29.3803C28.3141 29.3498 28.3633 29.3334 28.4139 29.3333H36.3534C36.4611 29.3282 36.5686 29.3449 36.6696 29.3825C36.7706 29.4202 36.8629 29.4779 36.9409 29.5522C37.0189 29.6266 37.081 29.716 37.1235 29.8151C37.1659 29.9142 37.1878 30.0208 37.1878 30.1286C37.1878 30.2363 37.1659 30.343 37.1235 30.442C37.081 30.5411 37.0189 30.6305 36.9409 30.7049C36.8629 30.7792 36.7706 30.837 36.6696 30.8746C36.5686 30.9122 36.4611 30.929 36.3534 30.9238Z" fill="white"/>
<path d="M55.7788 35.1818L46.3864 35.1708C46.3155 35.1703 46.2477 35.1419 46.1975 35.0918C46.1474 35.0417 46.119 34.9739 46.1186 34.903V26.4259C46.1188 26.3906 46.112 26.3556 46.0987 26.3229C46.0853 26.2901 46.0657 26.2604 46.0408 26.2353C46.0159 26.2103 45.9863 26.1904 45.9536 26.1768C45.921 26.1632 45.886 26.1562 45.8507 26.1563H42.6331C42.5977 26.1562 42.5628 26.1632 42.5302 26.1768C42.4975 26.1904 42.4679 26.2103 42.443 26.2353C42.4181 26.2604 42.3984 26.2901 42.3851 26.3229C42.3717 26.3556 42.365 26.3906 42.3652 26.4259V38.0216C42.3652 38.0926 42.3935 38.1607 42.4437 38.2109C42.4939 38.2612 42.562 38.2894 42.6331 38.2894H55.0212C55.0719 38.29 55.1214 38.2737 55.1619 38.2432C55.2024 38.2126 55.2316 38.1695 55.245 38.1206L56.0045 35.4808C56.0144 35.4459 56.0161 35.4092 56.0094 35.3735C56.0028 35.3378 55.9879 35.3042 55.966 35.2752C55.9442 35.2462 55.9159 35.2227 55.8834 35.2065C55.8509 35.1903 55.8151 35.1818 55.7788 35.1818Z" fill="white"/>
</svg>
