<svg width="24" height="24" viewBox="0 0 24 24" fill="none" xmlns="http://www.w3.org/2000/svg">
<path d="M7.25 7C7.25 4.381 9.381 2.25 12 2.25C14.619 2.25 16.75 4.381 16.75 7C16.75 9.619 14.619 11.75 12 11.75C9.381 11.75 7.25 9.619 7.25 7ZM15 13.25H9C5.83 13.25 3.25 15.83 3.25 19C3.25 20.517 4.483 21.75 6 21.75H18C19.517 21.75 20.75 20.517 20.75 19C20.75 15.83 18.17 13.25 15 13.25Z" fill="black"/>
<path d="M7.25 7C7.25 4.381 9.381 2.25 12 2.25C14.619 2.25 16.75 4.381 16.75 7C16.75 9.619 14.619 11.75 12 11.75C9.381 11.75 7.25 9.619 7.25 7ZM15 13.25H9C5.83 13.25 3.25 15.83 3.25 19C3.25 20.517 4.483 21.75 6 21.75H18C19.517 21.75 20.75 20.517 20.75 19C20.75 15.83 18.17 13.25 15 13.25Z" fill="url(#paint0_linear_9380_5306)"/>
<defs>
<linearGradient id="paint0_linear_9380_5306" x1="12" y1="2.25" x2="12" y2="21.75" gradientUnits="userSpaceOnUse">
<stop stop-color="#FFA300"/>
<stop offset="1" stop-color="#EA6F00"/>
</linearGradient>
</defs>
</svg>
