<svg width="20" height="20" viewBox="0 0 20 20" fill="none" xmlns="http://www.w3.org/2000/svg">
<path d="M18.8254 8.48616L14.6723 12.5447L15.6531 18.2769C15.6958 18.5275 15.5931 18.7809 15.3877 18.9306C15.2717 19.0155 15.1337 19.0582 14.9957 19.0582C14.8897 19.0582 14.783 19.0328 14.6857 18.9814L9.55051 16.275L4.41601 18.9807C4.19199 19.0997 3.91929 19.0803 3.71394 18.9299C3.50859 18.7802 3.40591 18.5269 3.44858 18.2762L4.42934 12.544L0.275603 8.48616C0.0942524 8.30837 0.0282459 8.04234 0.10692 7.80105C0.185595 7.55976 0.394282 7.38263 0.64564 7.34587L6.38553 6.51037L8.95245 1.29551C9.17714 0.838996 9.92388 0.838996 10.1486 1.29551L12.7155 6.51037L18.4554 7.34587C18.7067 7.38263 18.9154 7.55909 18.9941 7.80105C19.0728 8.04301 19.0068 8.3077 18.8254 8.48616Z" fill="url(#paint0_linear_9273_6955)"/>
<defs>
<linearGradient id="paint0_linear_9273_6955" x1="9.55051" y1="0.953125" x2="9.55051" y2="19.0582" gradientUnits="userSpaceOnUse">
<stop stop-color="#FFA300"/>
<stop offset="1" stop-color="#EA6F00"/>
</linearGradient>
</defs>
</svg>
