<svg width="18" height="17" viewBox="0 0 18 17" fill="none" xmlns="http://www.w3.org/2000/svg">
<path d="M8.9905 0.00195312C4.30798 0.00195312 0.511719 3.80771 0.511719 8.50195C0.511719 13.1962 4.30798 17.002 8.9905 17.002C13.673 17.002 17.4693 13.1962 17.4693 8.50195C17.4693 3.80771 13.673 0.00195312 8.9905 0.00195312ZM11.426 11.853C11.0561 12.3042 10.5746 12.6085 10.0128 12.7624C9.7686 12.8289 9.65694 12.9583 9.6709 13.2137C9.68137 13.4655 9.6709 13.7139 9.66741 13.9657C9.66741 14.1896 9.55227 14.3085 9.33245 14.3155C9.18939 14.319 9.04633 14.3225 8.90327 14.3225C8.77766 14.3225 8.65205 14.3225 8.52644 14.319C8.28917 14.3155 8.17752 14.1791 8.17752 13.9483C8.17403 13.7664 8.17403 13.581 8.17403 13.3991C8.17054 12.9933 8.15658 12.9793 7.76928 12.9164C7.27381 12.8359 6.78532 12.724 6.33173 12.5036C5.97583 12.3287 5.93744 12.2413 6.03863 11.8635C6.11539 11.5836 6.19216 11.3038 6.27939 11.0275C6.34219 10.8246 6.40151 10.7336 6.50967 10.7336C6.57248 10.7336 6.65273 10.7651 6.7609 10.8211C7.26334 11.0834 7.79719 11.2303 8.35896 11.3003C8.45317 11.3108 8.54737 11.3178 8.64158 11.3178C8.90327 11.3178 9.15799 11.2688 9.40572 11.1604C10.0303 10.8876 10.128 10.1635 9.60112 9.72973C9.42317 9.58282 9.2173 9.47438 9.00446 9.37994C8.45666 9.13858 7.88791 8.95669 7.37151 8.64537C6.5341 8.14167 6.00374 7.45257 6.06654 6.43117C6.13633 5.27685 6.78881 4.55627 7.84604 4.1715C8.28219 4.01409 8.28568 4.01759 8.28568 3.56286C8.28568 3.40895 8.28219 3.25504 8.28917 3.09763C8.29964 2.75483 8.35547 2.69537 8.69741 2.68488C8.73579 2.68488 8.77766 2.68488 8.81604 2.68488C8.88234 2.68488 8.94863 2.68488 9.01493 2.68488C9.04284 2.68488 9.07076 2.68488 9.09518 2.68488C9.74417 2.68488 9.74417 2.71286 9.74766 3.41595C9.75115 3.93364 9.75115 3.93364 10.2641 4.01409C10.6583 4.07706 11.0317 4.19249 11.3946 4.35339C11.5935 4.44084 11.6702 4.58076 11.6074 4.79413C11.5167 5.10895 11.4295 5.42726 11.3318 5.73858C11.269 5.92747 11.2096 6.01492 11.098 6.01492C11.0352 6.01492 10.9584 5.99043 10.8607 5.94146C10.3583 5.6966 9.8314 5.57767 9.28011 5.57767C9.21033 5.57767 9.13705 5.58117 9.06727 5.58467C8.90327 5.59516 8.74277 5.61615 8.58924 5.68261C8.04493 5.92047 7.9577 6.52212 8.42176 6.8929C8.65554 7.08179 8.92421 7.21471 9.19986 7.33014C9.68137 7.52953 10.1629 7.72191 10.62 7.97376C12.0575 8.77829 12.4483 10.6077 11.426 11.853Z" fill="url(#paint0_linear_9273_6949)"/>
<defs>
<linearGradient id="paint0_linear_9273_6949" x1="8.9905" y1="0.00195312" x2="8.9905" y2="17.002" gradientUnits="userSpaceOnUse">
<stop stop-color="#FFA300"/>
<stop offset="1" stop-color="#EA6F00"/>
</linearGradient>
</defs>
</svg>
