<svg width="20" height="15" viewBox="0 0 20 15" fill="none" xmlns="http://www.w3.org/2000/svg">
<path d="M19.3818 10.7931C19.6727 10.7931 19.9273 10.5411 19.9273 10.2532V1.00386C19.9273 1.00386 19.9273 1.00386 19.9273 0.967866C19.9273 0.931876 19.9273 0.931877 19.9273 0.895887V0.823907C19.9273 0.823907 19.9273 0.787917 19.8909 0.787917C19.8909 0.787917 19.8909 0.751928 19.8545 0.751928L19.8182 0.715938C19.8182 0.715938 19.8182 0.715938 19.8182 0.679949L19.7091 0.571979C19.7091 0.571979 19.6727 0.57198 19.6727 0.53599C19.6727 0.53599 19.6364 0.53599 19.6364 0.5H19.6C19.6 0.5 19.5636 0.5 19.5273 0.5H19.4909C19.4909 0.5 19.4909 0.5 19.4545 0.5H0.472727C0.472727 0.5 0.472727 0.5 0.436363 0.5C0.4 0.5 0.4 0.5 0.363636 0.5H0.327273C0.290909 0.5 0.290909 0.5 0.290909 0.5C0.290909 0.5 0.254545 0.5 0.254545 0.53599C0.254545 0.53599 0.218181 0.535989 0.218181 0.571979C0.218181 0.571979 0.181818 0.571979 0.181818 0.607969L0.109091 0.679949C0.109091 0.679949 0.109091 0.679949 0.109091 0.715938L0.0727269 0.751928C0.0727269 0.751928 0.0727267 0.787917 0.0363631 0.787917C0.0363631 0.787917 0.0363636 0.823907 0 0.823907V0.895887C0 0.931877 0 0.931876 0 0.967866C0 0.967866 0 0.967866 0 1.00386V13.9602C0 14.2481 0.254545 14.5 0.545455 14.5H19.4545C19.7455 14.5 20 14.2481 20 13.9602C20 13.6722 19.7455 13.4203 19.4545 13.4203H1.01818V2.15553L9.56364 9.13753C9.6 9.17352 9.67273 9.20951 9.70909 9.20951H9.74545C9.78182 9.20951 9.85455 9.2455 9.89091 9.2455C9.92727 9.2455 10 9.2455 10.0364 9.20951H10.0727C10.1091 9.17352 10.1818 9.17352 10.2182 9.13753L18.7636 2.15553V10.2532C18.8364 10.5411 19.0909 10.7931 19.3818 10.7931ZM9.92727 8.02185L2 1.5437H17.8545L9.92727 8.02185Z" fill="white"/>
</svg>
