<svg width="64" height="64" viewBox="0 0 64 64" fill="none" xmlns="http://www.w3.org/2000/svg">
<circle cx="32" cy="32" r="32" fill="#F8F8F8"/>
<path d="M25.6094 22.8439L27.0817 24.3162C29.7936 21.6048 34.1882 21.6048 36.8988 24.3162L38.3724 22.8439C34.8471 19.319 29.1347 19.319 25.6094 22.8439Z" fill="black"/>
<path d="M25.6094 22.8439L27.0817 24.3162C29.7936 21.6048 34.1882 21.6048 36.8988 24.3162L38.3724 22.8439C34.8471 19.319 29.1347 19.319 25.6094 22.8439Z" fill="url(#paint0_linear_6286_4546)"/>
<path d="M45.8797 29.2243C45.8797 21.556 39.6663 15.3408 31.9963 15.3408C24.3283 15.3408 18.1128 21.556 18.1128 29.2243C16.5792 29.2243 15.3359 30.4676 15.3359 32.0011V40.3313C15.3359 41.8649 16.5792 43.1082 18.1128 43.1082H22.2779C23.0447 43.1082 23.6661 42.4871 23.6661 41.7195V34.778C23.6661 34.0145 23.3196 32.8687 22.896 32.2344L20.8897 29.2247C20.8897 23.0895 25.8619 18.1177 31.9967 18.1177C38.1331 18.1177 43.1037 23.0895 43.1037 29.2247L41.097 32.2344C40.6734 32.8687 40.3264 34.0145 40.3264 34.778V42.1077C38.2914 44.4193 35.3183 45.8846 31.9963 45.8846H29.2194V48.6615H31.9963C36.5354 48.6615 40.5513 46.4744 43.0841 43.1082H45.8797C47.4133 43.1082 48.6566 41.8649 48.6566 40.3313V32.0011C48.6566 30.4676 47.4133 29.2243 45.8797 29.2243Z" fill="black"/>
<defs>
<linearGradient id="paint0_linear_6286_4546" x1="25.125" y1="20.3358" x2="27.1215" y2="27.4664" gradientUnits="userSpaceOnUse">
<stop stop-color="#FFBB00"/>
<stop offset="1" stop-color="#FD7702"/>
</linearGradient>
</defs>
</svg>
