<svg width="64" height="64" viewBox="0 0 64 64" fill="none" xmlns="http://www.w3.org/2000/svg">
<circle cx="32" cy="32" r="32" fill="#F8F8F8"/>
<path d="M37.5574 15.3389H16.732C15.9685 15.3389 15.3438 15.9636 15.3438 16.7271L27.1434 21.5865L38.946 16.7271C38.946 15.9636 38.3208 15.3389 37.5574 15.3389Z" fill="black"/>
<path d="M37.5574 15.3389H16.732C15.9685 15.3389 15.3438 15.9636 15.3438 16.7271L27.1434 21.5865L38.946 16.7271C38.946 15.9636 38.3208 15.3389 37.5574 15.3389Z" fill="url(#paint0_linear_6286_4525)"/>
<path d="M46.5768 34.7764C46.5768 29.7896 42.5367 25.752 37.5523 25.752C32.5684 25.752 28.5279 29.7896 28.5279 34.7764C27.3783 34.7764 26.4453 35.709 26.4453 36.859V43.8005C26.4453 44.9505 27.3783 45.883 28.5279 45.883H32.6929C33.0765 45.883 33.3868 45.5727 33.3868 45.1891V40.3297C33.3868 39.5663 33.1078 38.3826 32.7662 37.6995L31.3047 34.7764C31.3047 31.3244 34.1003 28.5288 37.5523 28.5288C41.0031 28.5288 43.8 31.3244 43.8 34.7764L42.3384 37.6995C41.9969 38.383 41.7174 39.5663 41.7174 40.3297V45.3491C40.4837 46.1421 39.0547 46.5774 37.5523 46.5774H36.1641V48.6599H37.5523C40.2113 48.6599 42.6179 47.5982 44.3856 45.883H46.5768C47.7268 45.883 48.6594 44.9505 48.6594 43.8005V36.859C48.6594 35.709 47.7268 34.7764 46.5768 34.7764Z" fill="black"/>
<path d="M37.5574 23.6684C38.0293 23.6684 38.4903 23.7075 38.946 23.7646V18.9802L27.1434 23.8379L15.3438 18.9785V30.6099C15.3438 31.3738 15.9685 31.9986 16.732 31.9986H26.8165C28.0547 27.2154 32.3935 23.6684 37.5574 23.6684Z" fill="black"/>
<defs>
<linearGradient id="paint0_linear_6286_4525" x1="14.448" y1="15.5447" x2="16.9958" y2="26.631" gradientUnits="userSpaceOnUse">
<stop stop-color="#FFBB00"/>
<stop offset="1" stop-color="#FD7702"/>
</linearGradient>
</defs>
</svg>
