<svg width="151" height="31" viewBox="0 0 151 31" fill="none" xmlns="http://www.w3.org/2000/svg">
<g clip-path="url(#clip0_6286_4369)">
<path d="M138.778 0.078125H12.0351C5.39883 0.078125 0 5.32817 0 11.7815V19.2177C0 25.6711 5.39883 30.9211 12.0351 30.9211H138.778C145.412 30.9211 150.811 25.6711 150.811 19.2177V11.7815C150.811 5.32817 145.412 0.078125 138.778 0.078125ZM149.515 19.2177C149.515 24.9759 144.699 29.6611 138.778 29.6611H67.4356L71.3033 15.4985L75.169 1.33814H138.778C144.699 1.33814 149.515 6.02328 149.515 11.7815V19.2177Z" fill="url(#paint0_linear_6286_4369)"/>
<path d="M95.3558 8.16992V12.1705H88.7713V22.8238H83.2581V12.1705H76.6953L77.5484 8.16992H95.3537H95.3558Z" fill="#0E0F15"/>
<path d="M119.896 8.16992V22.8238H114.383V15.0054L110.379 21.4988H106.9L102.896 15.0054V22.8238H97.3828V8.16992H103.704L108.625 16.423L113.569 8.16992H119.89H119.896Z" fill="#0E0F15"/>
<path d="M142.556 18.5041C142.556 21.82 140.194 22.8259 137.635 22.8259H127.638C125.079 22.8259 122.913 20.8372 122.585 18.1619H128.206C128.513 18.8485 129.191 19.2811 129.912 19.2811C130.765 19.2811 135.425 19.3043 135.425 19.3043C135.818 19.3043 136.892 19.1678 136.892 18.1619C136.892 17.156 135.797 17.0195 135.425 17.0195H127.396C124.816 17.0195 122.453 15.8308 122.453 12.4918C122.453 9.15273 124.816 8.16992 127.375 8.16992H137.306C139.866 8.16992 142.031 10.1586 142.36 12.811L136.738 12.8341C136.432 12.1474 135.754 11.6917 135.032 11.6917H129.586C129.171 11.6917 128.12 11.8282 128.12 12.8341C128.12 13.84 129.212 13.9534 129.586 13.9534H137.615C140.195 13.9534 142.558 15.165 142.558 18.5041H142.556Z" fill="#0E0F15"/>
<path d="M65.6222 18.954L54.3343 18.9414C54.2501 18.9414 54.168 18.9077 54.1075 18.8489C54.0471 18.7901 54.0126 18.7103 54.0126 18.6264V8.67648C54.0126 8.63448 54.0039 8.59457 53.9888 8.55467C53.9736 8.51688 53.9499 8.48118 53.9197 8.45178C53.8894 8.42238 53.8549 8.39927 53.8161 8.38248C53.7772 8.36567 53.734 8.35938 53.693 8.35938H49.8274C49.7842 8.35938 49.7431 8.36777 49.7043 8.38248C49.6655 8.39927 49.6287 8.42238 49.6007 8.45178C49.5704 8.48118 49.5466 8.51688 49.5316 8.55467C49.5165 8.59247 49.5078 8.63448 49.5078 8.67648V22.2867C49.5078 22.3707 49.5423 22.4505 49.6028 22.5093C49.6632 22.5681 49.7453 22.6017 49.8295 22.6017H64.7151C64.7756 22.6017 64.8362 22.5828 64.8837 22.5471C64.9332 22.5114 64.9679 22.4611 64.983 22.4023L65.8965 19.3046C65.9072 19.2626 65.9095 19.2206 65.9029 19.1787C65.8942 19.1367 65.8771 19.0968 65.8511 19.0631C65.8253 19.0296 65.7906 19.0023 65.7518 18.9834C65.7129 18.9644 65.6697 18.954 65.6266 18.954H65.6222Z" fill="#0E0F15"/>
<path d="M47.0811 16.3747C46.7918 16.0156 46.4224 15.7216 46.0143 15.5053C45.9755 15.4927 45.9344 15.4549 45.9086 15.415C45.8826 15.3646 45.8696 15.3247 45.8696 15.2743C45.8696 15.2238 45.8826 15.1714 45.9086 15.1336C45.9344 15.0958 45.9734 15.0559 46.0143 15.0307C46.0662 15.0054 46.1331 14.953 46.1849 14.9152C46.4354 14.7492 46.6449 14.5435 46.8176 14.2999C47.2388 13.7245 47.4633 13.0336 47.4352 12.3154C47.4482 11.7274 47.3166 11.1373 47.0401 10.6122C46.7637 10.1124 46.3685 9.69034 45.8826 9.38373C45.3427 9.02463 44.7251 8.78314 44.0794 8.64243C43.3171 8.47653 42.5266 8.38623 41.7233 8.39884H29.9172C29.7337 8.39884 29.548 8.46184 29.3903 8.56473C29.2455 8.68023 29.1398 8.84614 29.088 9.02463L27.8893 13.3381C27.6778 14.1319 27.4813 14.8354 27.3107 15.4633C27.2178 15.795 27.14 16.1289 27.0602 16.4483C27.0472 16.5112 27.0213 16.5511 26.9803 16.5889C26.9285 16.6267 26.8744 16.6519 26.8226 16.6666C26.7556 16.6666 26.7038 16.654 26.652 16.6288C26.6002 16.6037 26.5591 16.5511 26.5331 16.5007C26.4145 16.2571 26.2698 15.9757 26.1121 15.6691C25.9545 15.3626 25.7709 15.0287 25.5721 14.659C25.3606 14.2873 25.1252 13.84 24.8488 13.3528L22.9138 9.77015C22.7692 9.46354 22.5727 9.18213 22.335 8.92593C22.1645 8.73483 21.9528 8.56683 21.7304 8.43873C21.5339 8.33583 21.3094 8.26022 21.0717 8.23502C20.8212 8.19722 20.5707 8.16992 20.3094 8.16992C20.0481 8.16992 19.8236 8.19512 19.5731 8.23502C19.3354 8.26022 19.1131 8.33793 18.9144 8.43873C18.6897 8.56683 18.4803 8.73273 18.3098 8.92593C18.0981 9.18213 17.9016 9.46354 17.7569 9.75754L15.796 13.315C15.295 14.2368 14.889 15.0034 14.5716 15.6061C14.401 15.9126 14.2563 16.2214 14.1116 16.5028C14.0857 16.5532 14.0469 16.5931 13.9928 16.6183C13.941 16.6561 13.887 16.6687 13.8222 16.6561C13.7704 16.6436 13.7164 16.6309 13.6775 16.5784C13.6257 16.5406 13.5976 16.4882 13.5847 16.4377C13.5177 16.1185 13.44 15.7973 13.3601 15.4654C13.2154 14.8502 13.0318 14.1466 12.7943 13.3402L11.4662 8.60463C11.4532 8.54163 11.4273 8.48912 11.3733 8.45133C11.3215 8.41353 11.2545 8.38833 11.2027 8.38833H7.29395C7.25507 8.38833 7.20109 8.40093 7.16223 8.41353C7.12335 8.43873 7.09743 8.46394 7.05641 8.50383C7.03049 8.54163 7.01753 8.58153 7.01753 8.61932C7.00457 8.66973 7.00457 8.70963 7.01753 8.74744L10.611 20.8667C10.7557 21.4547 11.112 21.9671 11.5979 22.3388C12.0449 22.658 12.5718 22.8259 13.1247 22.8113C13.6516 22.8365 14.1785 22.6958 14.6125 22.4018C15.0207 22.1204 15.362 21.7487 15.6125 21.314L17.9297 17.2819C18.245 16.7317 18.5213 16.2445 18.7589 15.8351C18.9835 15.4255 19.193 15.0538 19.3765 14.722C19.5601 14.3902 19.7178 14.0941 19.8494 13.8253C19.9012 13.735 19.9423 13.6468 19.9941 13.5565C20.0071 13.5061 20.0459 13.4662 20.087 13.441C20.1388 13.4158 20.1928 13.4032 20.2446 13.4032C20.2964 13.4032 20.3505 13.4158 20.3893 13.441C20.4282 13.4662 20.4693 13.5061 20.4951 13.5565C20.5341 13.6468 20.588 13.735 20.6398 13.8253C20.7716 14.0941 20.9293 14.4007 21.1257 14.7346C21.3094 15.0665 21.5209 15.4507 21.7434 15.8602C21.9809 16.2698 22.2574 16.7569 22.5727 17.3071L24.8899 21.314C25.1402 21.7612 25.4945 22.1329 25.9027 22.4269C26.3367 22.6958 26.8507 22.8365 27.3776 22.8238C27.9174 22.8238 28.4574 22.658 28.9044 22.3513C29.3903 21.9796 29.7465 21.4547 29.8913 20.8793L30.997 17.1936C31.0099 17.1286 31.0488 17.0908 31.0899 17.053C31.1417 17.0152 31.2086 16.99 31.2604 16.99H42.2373C42.5008 16.99 42.7513 17.1055 42.9348 17.284C43.1184 17.4625 43.2243 17.706 43.2243 17.9749C43.2243 18.2438 43.1184 18.4747 42.9348 18.6658C42.7513 18.8443 42.5008 18.9472 42.2373 18.9472H32.8282C32.7635 18.9472 32.7094 18.9598 32.6576 18.9976C32.6058 19.0354 32.5777 19.088 32.5518 19.1383L31.6448 22.2358C31.6318 22.2863 31.6318 22.3262 31.6448 22.364C31.6448 22.4143 31.6708 22.4543 31.6966 22.4795C31.7226 22.5173 31.7484 22.5425 31.7895 22.5697C31.8284 22.5824 31.8693 22.595 31.9213 22.595H41.8314C42.8052 22.6202 43.7662 22.5047 44.7014 22.2757C45.3599 22.1225 45.9776 21.8285 46.5175 21.419C46.9515 21.0724 47.2798 20.6252 47.4655 20.1253C47.662 19.6004 47.7549 19.0375 47.7549 18.4748C47.7938 17.7187 47.5454 16.9775 47.0834 16.3768L47.0811 16.3747ZM43.2113 13.3927C43.1595 13.5082 43.0795 13.6111 42.9866 13.6993C42.8937 13.7896 42.7901 13.8526 42.6585 13.8904C42.5396 13.9407 42.4079 13.9534 42.2891 13.9534H32.3402C32.3012 13.9534 32.2603 13.9407 32.2214 13.9282C32.1826 13.9029 32.1415 13.8778 32.1155 13.8379C32.0897 13.8127 32.0767 13.7602 32.0637 13.7224C32.0637 13.6846 32.0637 13.6447 32.0767 13.5943L32.4719 12.2881C32.4849 12.2251 32.5237 12.1726 32.5777 12.1348C32.6165 12.1096 32.6836 12.0844 32.7484 12.0844H42.2891C42.4079 12.0844 42.5396 12.097 42.6585 12.1495C42.7901 12.1873 42.896 12.2524 42.9866 12.3406C43.0795 12.4309 43.1572 12.5317 43.2113 12.6472C43.2631 12.7627 43.2912 12.8908 43.2912 13.0189C43.2912 13.147 43.2652 13.2751 43.2113 13.3906V13.3927Z" fill="#0E0F15"/>
</g>
<defs>
<linearGradient id="paint0_linear_6286_4369" x1="0" y1="15.4985" x2="150.811" y2="15.4985" gradientUnits="userSpaceOnUse">
<stop stop-color="#EBAE2F"/>
<stop offset="0.26" stop-color="#F6DB53"/>
<stop offset="0.5" stop-color="#F6DB53"/>
<stop offset="0.7" stop-color="#FDEE65"/>
<stop offset="1" stop-color="#F0A326"/>
</linearGradient>
<clipPath id="clip0_6286_4369">
<rect width="150.811" height="31" fill="white"/>
</clipPath>
</defs>
</svg>
