<svg width="83" height="83" viewBox="0 0 83 83" fill="none" xmlns="http://www.w3.org/2000/svg">
<g filter="url(#filter0_d_9724_5528)">
<circle cx="41.5" cy="37.5" r="17.5" fill="white"/>
</g>
<g clip-path="url(#clip0_9724_5528)">
<path d="M46.7411 37.2259L36.3004 31.3531C36.0981 31.2395 35.8515 31.2421 35.6518 31.3583C35.4508 31.4758 35.3281 31.6898 35.3281 31.9221V43.6678C35.3281 43.9001 35.4508 44.1142 35.6518 44.2316C35.7536 44.2903 35.8671 44.3204 35.9807 44.3204C36.0903 44.3204 36.2012 44.293 36.3004 44.2368L46.7411 38.364C46.946 38.2478 47.0739 38.0312 47.0739 37.795C47.0739 37.5587 46.946 37.3421 46.7411 37.2259Z" fill="black"/>
</g>
<defs>
<filter id="filter0_d_9724_5528" x="0" y="0" width="83" height="83" filterUnits="userSpaceOnUse" color-interpolation-filters="sRGB">
<feFlood flood-opacity="0" result="BackgroundImageFix"/>
<feColorMatrix in="SourceAlpha" type="matrix" values="0 0 0 0 0 0 0 0 0 0 0 0 0 0 0 0 0 0 127 0" result="hardAlpha"/>
<feOffset dy="4"/>
<feGaussianBlur stdDeviation="12"/>
<feComposite in2="hardAlpha" operator="out"/>
<feColorMatrix type="matrix" values="0 0 0 0 0 0 0 0 0 0 0 0 0 0 0 0 0 0 0.16 0"/>
<feBlend mode="normal" in2="BackgroundImageFix" result="effect1_dropShadow_9724_5528"/>
<feBlend mode="normal" in="SourceGraphic" in2="effect1_dropShadow_9724_5528" result="shape"/>
</filter>
<clipPath id="clip0_9724_5528">
<rect width="13.0508" height="13.0508" fill="white" transform="translate(34.6758 31.2695)"/>
</clipPath>
</defs>
</svg>
