<svg width="158" height="33" viewBox="0 0 158 33" fill="none" xmlns="http://www.w3.org/2000/svg">
<path d="M99.3151 8.66235V12.9427H92.457V24.3411H86.7145V12.9427H79.8789L80.7674 8.66235H99.3129H99.3151Z" fill="black"/>
<path d="M124.881 8.66235V24.3411H119.139V15.976L114.968 22.9233H111.345L107.175 15.976V24.3411H101.432V8.66235H108.016L113.142 17.4926L118.291 8.66235H124.874H124.881Z" fill="black"/>
<path d="M148.482 19.7193C148.482 23.2671 146.021 24.3434 143.356 24.3434H132.944C130.278 24.3434 128.022 22.2156 127.68 19.353H133.535C133.855 20.0878 134.561 20.5506 135.312 20.5506C136.201 20.5506 141.055 20.5753 141.055 20.5753C141.464 20.5753 142.582 20.4293 142.582 19.353C142.582 18.2768 141.442 18.1307 141.055 18.1307H132.692C130.004 18.1307 127.543 16.859 127.543 13.2864C127.543 9.7139 130.004 8.66235 132.669 8.66235H143.014C145.679 8.66235 147.935 10.7902 148.277 13.628L142.422 13.6527C142.103 12.918 141.397 12.4304 140.645 12.4304H134.973C134.541 12.4304 133.445 12.5764 133.445 13.6527C133.445 14.7289 134.584 14.8503 134.973 14.8503H143.336C146.024 14.8503 148.484 16.1467 148.484 19.7193H148.482Z" fill="black"/>
<path d="M144.547 0H12.5354C5.62326 0 0 5.61721 0 12.5219V20.4781C0 27.3828 5.62326 33 12.5354 33H144.547C151.457 33 157.08 27.3828 157.08 20.4781V12.5219C157.08 5.61721 151.457 0 144.547 0ZM155.73 20.4781C155.73 26.6391 150.714 31.6519 144.547 31.6519H70.239L74.2675 16.4989L78.2937 1.34813H144.547C150.714 1.34813 155.73 6.36093 155.73 12.5219V20.4781Z" fill="url(#paint0_linear_9473_5668)"/>
<path d="M68.3519 20.2008L56.5948 20.1873C56.5071 20.1873 56.4216 20.1513 56.3586 20.0884C56.2957 20.0255 56.2597 19.9401 56.2597 19.8503V9.20451C56.2597 9.15958 56.2507 9.11689 56.2349 9.07419C56.2192 9.03375 56.1944 8.99555 56.163 8.9641C56.1315 8.93264 56.0955 8.90793 56.055 8.88995C56.0145 8.87198 55.9695 8.86523 55.9268 8.86523H51.9005C51.8555 8.86523 51.8128 8.87422 51.7723 8.88995C51.7318 8.90793 51.6936 8.93264 51.6643 8.9641C51.6329 8.99555 51.6081 9.03375 51.5924 9.07419C51.5766 9.11464 51.5676 9.15958 51.5676 9.20451V23.7666C51.5676 23.8565 51.6036 23.9418 51.6666 24.0047C51.7296 24.0677 51.8151 24.1036 51.9028 24.1036H67.4072C67.4702 24.1036 67.5332 24.0834 67.5827 24.0452C67.6344 24.007 67.6704 23.9531 67.6861 23.8902L68.6376 20.576C68.6488 20.5311 68.6511 20.4861 68.6443 20.4412C68.6353 20.3962 68.6173 20.3536 68.5903 20.3176C68.5634 20.2817 68.5274 20.2524 68.4869 20.2322C68.4464 20.212 68.4014 20.2008 68.3564 20.2008H68.3519Z" fill="#0E0F15"/>
<path d="M49.0387 17.4409C48.7373 17.0567 48.3526 16.7422 47.9275 16.5107C47.887 16.4972 47.8443 16.4568 47.8173 16.4141C47.7903 16.3602 47.7768 16.3175 47.7768 16.2636C47.7768 16.2096 47.7903 16.1535 47.8173 16.113C47.8443 16.0726 47.8848 16.0299 47.9275 16.0029C47.9815 15.976 48.0512 15.9198 48.1052 15.8793C48.3661 15.7018 48.5843 15.4816 48.7643 15.221C49.2029 14.6054 49.4368 13.8661 49.4076 13.0977C49.4211 12.4686 49.2839 11.8372 48.9959 11.2755C48.708 10.7407 48.2964 10.2891 47.7903 9.96105C47.228 9.57684 46.5847 9.31844 45.9121 9.1679C45.1181 8.9904 44.2949 8.89378 43.4582 8.90726H31.1612C30.97 8.90726 30.7766 8.97467 30.6124 9.08477C30.4617 9.20835 30.3515 9.38585 30.2975 9.57684L29.0491 14.1919C28.8287 15.0413 28.624 15.794 28.4463 16.4658C28.3496 16.8208 28.2686 17.178 28.1854 17.5196C28.1719 17.587 28.1449 17.6297 28.1022 17.6701C28.0482 17.7106 27.992 17.7375 27.938 17.7532C27.8682 17.7532 27.8143 17.7398 27.7603 17.7128C27.7063 17.6858 27.6636 17.6297 27.6366 17.5757C27.5129 17.3151 27.3622 17.014 27.198 16.686C27.0338 16.3579 26.8426 16.0007 26.6356 15.6052C26.4152 15.2075 26.17 14.7289 25.8821 14.2077L23.8667 10.3745C23.716 10.0464 23.5113 9.74535 23.2639 9.47123C23.0862 9.26677 22.8658 9.08701 22.6341 8.94995C22.4294 8.83986 22.1955 8.75897 21.9481 8.73201C21.6872 8.69156 21.4262 8.66235 21.1541 8.66235C20.8819 8.66235 20.648 8.68932 20.3871 8.73201C20.1396 8.75897 19.908 8.8421 19.701 8.94995C19.4671 9.08701 19.2489 9.26452 19.0712 9.47123C18.8508 9.74535 18.6461 10.0464 18.4954 10.361L16.453 14.1672C15.9312 15.1536 15.5083 15.9737 15.1777 16.6186C15 16.9466 14.8493 17.2769 14.6986 17.578C14.6716 17.6319 14.6311 17.6746 14.5749 17.7016C14.5209 17.742 14.4647 17.7555 14.3972 17.742C14.3432 17.7285 14.287 17.7151 14.2465 17.6589C14.1925 17.6184 14.1632 17.5623 14.1498 17.5083C14.08 17.1668 13.999 16.823 13.9158 16.468C13.7651 15.8097 13.5739 15.057 13.3265 14.1942L11.9432 9.12746C11.9297 9.06005 11.9027 9.00388 11.8465 8.96344C11.7925 8.92299 11.7228 8.89603 11.6688 8.89603H7.59753C7.55704 8.89603 7.50081 8.90951 7.46032 8.92299C7.41984 8.94995 7.39285 8.97692 7.35011 9.01961C7.32312 9.06005 7.30962 9.10274 7.30962 9.14319C7.29613 9.19711 7.29613 9.2398 7.30962 9.28025L11.0525 22.247C11.2032 22.8761 11.5743 23.4244 12.0804 23.8221C12.546 24.1636 13.0948 24.3434 13.6706 24.3276C14.2195 24.3546 14.7683 24.2041 15.2204 23.8895C15.6455 23.5884 16.0009 23.1907 16.2618 22.7256L18.6753 18.4116C19.0037 17.8229 19.2917 17.3016 19.5391 16.8635C19.773 16.4253 19.9912 16.0276 20.1824 15.6726C20.3736 15.3176 20.5378 15.0008 20.675 14.7132C20.729 14.6166 20.7717 14.5222 20.8257 14.4256C20.8392 14.3717 20.8797 14.329 20.9224 14.302C20.9764 14.2751 21.0326 14.2616 21.0866 14.2616C21.1406 14.2616 21.1968 14.2751 21.2373 14.302C21.2778 14.329 21.3205 14.3717 21.3475 14.4256C21.388 14.5222 21.4442 14.6166 21.4982 14.7132C21.6354 15.0008 21.7996 15.3289 22.0043 15.6861C22.1955 16.0411 22.4159 16.4523 22.6476 16.8904C22.895 17.3286 23.1829 17.8499 23.5113 18.4385L25.9248 22.7256C26.1858 23.2042 26.5547 23.6019 26.9798 23.9165C27.4319 24.2041 27.9672 24.3546 28.516 24.3411C29.0784 24.3411 29.6407 24.1636 30.1063 23.8356C30.6124 23.4379 30.9835 22.8761 31.1342 22.2605L32.2859 18.3172C32.2994 18.2476 32.3399 18.2071 32.3826 18.1667C32.4366 18.1262 32.5063 18.0993 32.5603 18.0993H43.9935C44.2679 18.0993 44.5288 18.2228 44.72 18.4138C44.9112 18.6048 45.0214 18.8655 45.0214 19.1531C45.0214 19.4407 44.9112 19.6878 44.72 19.8923C44.5288 20.0833 44.2679 20.1934 43.9935 20.1934H34.1933C34.1258 20.1934 34.0696 20.2068 34.0156 20.2473C33.9616 20.2877 33.9324 20.3439 33.9054 20.3978L32.9607 23.712C32.9472 23.7659 32.9472 23.8086 32.9607 23.849C32.9607 23.903 32.9877 23.9457 33.0146 23.9726C33.0416 24.0131 33.0686 24.04 33.1114 24.0692C33.1519 24.0827 33.1946 24.0962 33.2486 24.0962H43.5706C44.5851 24.1232 45.586 23.9996 46.5599 23.7547C47.246 23.5907 47.8893 23.2761 48.4516 22.8379C48.9037 22.4672 49.2456 21.9886 49.4391 21.4539C49.6437 20.8921 49.7405 20.29 49.7405 19.6878C49.781 18.8789 49.5223 18.0858 49.0409 17.4432L49.0387 17.4409ZM45.0079 14.2504C44.9539 14.3739 44.8707 14.484 44.774 14.5784C44.6773 14.675 44.5693 14.7424 44.4321 14.7829C44.3084 14.8368 44.1712 14.8503 44.0475 14.8503H33.6849C33.6445 14.8503 33.6017 14.8368 33.5612 14.8233C33.5207 14.7963 33.478 14.7694 33.451 14.7267C33.424 14.6997 33.4105 14.6436 33.397 14.6031C33.397 14.5627 33.397 14.52 33.4105 14.4661L33.8221 13.0685C33.8356 13.0011 33.8761 12.9449 33.9324 12.9045C33.9729 12.8775 34.0426 12.8505 34.1101 12.8505H44.0475C44.1712 12.8505 44.3084 12.864 44.4321 12.9202C44.5693 12.9606 44.6795 13.0303 44.774 13.1247C44.8707 13.2213 44.9517 13.3291 45.0079 13.4527C45.0619 13.5763 45.0912 13.7134 45.0912 13.8504C45.0912 13.9875 45.0642 14.1245 45.0079 14.2481V14.2504Z" fill="#0E0F15"/>
<defs>
<linearGradient id="paint0_linear_9473_5668" x1="0" y1="16.4989" x2="157.08" y2="16.4989" gradientUnits="userSpaceOnUse">
<stop stop-color="#EBAE2F"/>
<stop offset="0.26" stop-color="#F6DB53"/>
<stop offset="0.5" stop-color="#F6DB53"/>
<stop offset="0.7" stop-color="#FDEE65"/>
<stop offset="1" stop-color="#F0A326"/>
</linearGradient>
</defs>
</svg>
