<svg width="18" height="18" viewBox="0 0 18 18" fill="none" xmlns="http://www.w3.org/2000/svg">
<path d="M8.90142 0C6.51716 0 6.21949 0.0109705 5.28334 0.0526585C4.34865 0.0965406 3.71236 0.243546 3.15286 0.460762C2.57581 0.68456 2.0858 0.985153 1.59798 1.47298C1.11015 1.9608 0.808829 2.45008 0.585762 3.02786C0.368546 3.58736 0.220809 4.22365 0.177658 5.15834C0.133776 6.09449 0.125 6.39216 0.125 8.77642C0.125 11.1607 0.135971 11.4583 0.177658 12.3945C0.221541 13.3285 0.368546 13.9655 0.585762 14.525C0.806117 15.1107 1.15155 15.6413 1.59798 16.0799C2.03627 16.5266 2.56696 16.8721 3.15286 17.0921C3.71309 17.3086 4.34938 17.457 5.28334 17.5002C6.21949 17.5441 6.51716 17.5528 8.90142 17.5528C11.2857 17.5528 11.5833 17.5419 12.5195 17.5002C13.4535 17.4563 14.0905 17.3086 14.65 17.0921C15.2356 16.8714 15.7661 16.5261 16.2049 16.0799C16.6517 15.6417 16.9972 15.111 17.2171 14.525C17.4336 13.9655 17.582 13.3285 17.6252 12.3945C17.6691 11.4583 17.6778 11.1607 17.6778 8.77642C17.6778 6.39216 17.6669 6.09449 17.6252 5.15834C17.5813 4.22438 17.4336 3.58663 17.2171 3.02786C16.9966 2.4422 16.6512 1.9116 16.2049 1.47298C15.7669 1.02585 15.2361 0.680311 14.65 0.460762C14.0905 0.243546 13.4535 0.0958092 12.5195 0.0526585C11.5833 0.00877642 11.2857 0 8.90142 0ZM8.90142 1.57976C11.244 1.57976 11.5234 1.59146 12.4486 1.63168C13.3043 1.67191 13.7687 1.81379 14.0773 1.9352C14.4883 2.09391 14.7794 2.28406 15.0881 2.59051C15.3945 2.89768 15.5847 3.1895 15.7434 3.60052C15.8633 3.90916 16.0067 4.37358 16.0454 5.22928C16.0871 6.15519 16.0966 6.43311 16.0966 8.77642C16.0966 11.1197 16.0856 11.3984 16.0425 12.3236C15.9979 13.1793 15.8553 13.6437 15.7346 13.9523C15.5918 14.3332 15.3674 14.6782 15.0771 14.9631C14.7934 15.2536 14.4487 15.4775 14.0678 15.6184C13.7606 15.7383 13.2889 15.8817 12.4332 15.9204C11.5014 15.9621 11.2272 15.9716 8.87948 15.9716C6.53105 15.9716 6.25679 15.9606 5.32576 15.9175C4.46933 15.8729 3.99759 15.7303 3.69042 15.6096C3.30931 15.4686 2.96467 15.2439 2.68186 14.9521C2.38828 14.6703 2.16311 14.3251 2.02363 13.9428C1.90296 13.6356 1.76107 13.1639 1.71646 12.3082C1.68355 11.3867 1.67184 11.1022 1.67184 8.76545C1.67184 6.42799 1.68355 6.14276 1.71646 5.21027C1.76107 4.35457 1.90296 3.88356 2.02363 3.57639C2.17722 3.15951 2.37396 2.87428 2.68186 2.56637C2.98831 2.25993 3.27427 2.06246 3.69042 1.9096C3.99759 1.7882 4.45909 1.64558 5.31479 1.6017C6.24728 1.56878 6.52154 1.55781 8.86851 1.55781L8.90142 1.57976ZM8.90142 4.26973C8.30959 4.26973 7.72356 4.3863 7.17678 4.61278C6.63 4.83926 6.13319 5.17122 5.71471 5.58971C5.29622 6.00819 4.96426 6.505 4.73778 7.05178C4.5113 7.59856 4.39473 8.18459 4.39473 8.77642C4.39473 9.36824 4.5113 9.95428 4.73778 10.5011C4.96426 11.0478 5.29622 11.5446 5.71471 11.9631C6.13319 12.3816 6.63 12.7136 7.17678 12.9401C7.72356 13.1665 8.30959 13.2831 8.90142 13.2831C10.0967 13.2831 11.243 12.8083 12.0881 11.9631C12.9333 11.118 13.4081 9.97167 13.4081 8.77642C13.4081 7.58117 12.9333 6.43487 12.0881 5.58971C11.243 4.74454 10.0967 4.26973 8.90142 4.26973ZM8.90142 11.7019C7.28509 11.7019 5.97594 10.3927 5.97594 8.77642C5.97594 7.16009 7.28509 5.85094 8.90142 5.85094C10.5177 5.85094 11.8269 7.16009 11.8269 8.77642C11.8269 10.3927 10.5177 11.7019 8.90142 11.7019ZM14.6397 4.092C14.6296 4.36453 14.5142 4.62251 14.3178 4.81172C14.1214 5.00093 13.8593 5.10665 13.5866 5.10665C13.3138 5.10665 13.0517 5.00093 12.8554 4.81172C12.659 4.62251 12.5435 4.36453 12.5334 4.092C12.5334 3.81269 12.6443 3.54481 12.8419 3.3473C13.0394 3.14979 13.3072 3.03883 13.5866 3.03883C13.8659 3.03883 14.1338 3.14979 14.3313 3.3473C14.5288 3.54481 14.6397 3.81269 14.6397 4.092Z" fill="white"/>
</svg>
